<?xml version="1.0" encoding="UTF-8"?>
<svg xmlns="http://www.w3.org/2000/svg" xmlns:xlink="http://www.w3.org/1999/xlink" width="180px" height="48px" viewBox="0 0 181 48" version="1.1">
<g id="surface1">
<path style=" stroke:none;fill-rule:nonzero;fill:rgb(100%,100%,100%);fill-opacity:1;" d="M 116.601562 48.050781 C 77.734375 48.050781 38.890625 48.050781 0.0507812 48.050781 C 0.0507812 32.050781 0.0507812 16.050781 0.0507812 0.0507812 C 60.382812 0.0507812 120.714844 0.0507812 181.050781 0.0507812 C 181.050781 16.050781 181.050781 32.050781 181.050781 48.050781 C 159.574219 48.050781 138.097656 48.050781 116.601562 48.050781 M 16.515625 45.769531 C 16.753906 45.859375 16.988281 45.957031 17.230469 46.035156 C 19.304688 46.710938 21.414062 47.246094 23.605469 47.289062 C 24.90625 47.316406 26.214844 47.320312 27.503906 47.183594 C 29.523438 46.96875 31.480469 46.445312 33.382812 45.707031 C 35.410156 44.917969 37.261719 43.835938 38.980469 42.519531 C 40.4375 41.40625 41.738281 40.140625 42.890625 38.710938 C 43.828125 37.550781 44.652344 36.316406 45.351562 35 C 46.445312 32.941406 47.1875 30.761719 47.621094 28.476562 C 48.011719 26.4375 48.125 24.378906 47.953125 22.3125 C 47.890625 21.53125 47.78125 20.753906 47.640625 19.984375 C 47.351562 18.410156 46.882812 16.890625 46.269531 15.410156 C 45.660156 13.949219 44.941406 12.546875 44.046875 11.246094 C 42.726562 9.324219 41.160156 7.632812 39.339844 6.171875 C 37.472656 4.679688 35.421875 3.515625 33.195312 2.660156 C 31.210938 1.894531 29.15625 1.414062 27.035156 1.21875 C 25.050781 1.035156 23.074219 1.085938 21.109375 1.394531 C 18.804688 1.761719 16.601562 2.46875 14.515625 3.519531 C 12.910156 4.328125 11.40625 5.292969 10.027344 6.445312 C 8.511719 7.710938 7.171875 9.136719 6.019531 10.730469 C 5.042969 12.078125 4.230469 13.523438 3.578125 15.058594 C 2.90625 16.640625 2.421875 18.277344 2.125 19.964844 C 1.761719 22.042969 1.671875 24.140625 1.855469 26.253906 C 2 27.914062 2.332031 29.53125 2.863281 31.101562 C 3.230469 32.1875 3.652344 33.257812 4.140625 34.292969 C 4.929688 35.980469 5.96875 37.515625 7.152344 38.953125 C 8.199219 40.222656 9.371094 41.363281 10.664062 42.371094 C 11.46875 43 12.332031 43.554688 13.191406 44.109375 C 14.226562 44.777344 15.34375 45.292969 16.515625 45.769531 M 108.644531 15.84375 C 107.996094 17.554688 107.347656 19.261719 106.691406 21 C 106.640625 20.917969 106.605469 20.871094 106.585938 20.820312 C 106.265625 19.988281 105.945312 19.160156 105.625 18.328125 C 104.996094 16.699219 104.363281 15.074219 103.742188 13.441406 C 103.671875 13.253906 103.585938 13.195312 103.386719 13.195312 C 102.214844 13.207031 101.042969 13.203125 99.871094 13.203125 C 99.792969 13.203125 99.710938 13.203125 99.621094 13.203125 C 99.621094 17.230469 99.621094 21.230469 99.621094 25.246094 C 100.726562 25.246094 101.820312 25.246094 102.933594 25.246094 C 102.933594 23.046875 102.933594 20.863281 102.933594 18.613281 C 102.984375 18.714844 103.011719 18.753906 103.027344 18.796875 C 103.320312 19.636719 103.609375 20.476562 103.898438 21.316406 C 104.324219 22.566406 104.753906 23.816406 105.175781 25.070312 C 105.226562 25.222656 105.296875 25.269531 105.453125 25.265625 C 106.246094 25.257812 107.042969 25.257812 107.839844 25.265625 C 108 25.269531 108.0625 25.210938 108.113281 25.0625 C 108.691406 23.347656 109.277344 21.640625 109.863281 19.929688 C 109.996094 19.546875 110.125 19.164062 110.257812 18.78125 C 110.277344 18.785156 110.292969 18.785156 110.3125 18.789062 C 110.3125 20.941406 110.3125 23.089844 110.3125 25.242188 C 111.4375 25.242188 112.539062 25.242188 113.640625 25.242188 C 113.640625 21.222656 113.640625 17.222656 113.640625 13.222656 C 113.601562 13.214844 113.578125 13.203125 113.558594 13.203125 C 112.300781 13.203125 111.046875 13.199219 109.792969 13.207031 C 109.71875 13.207031 109.605469 13.300781 109.578125 13.375 C 109.261719 14.183594 108.960938 14.996094 108.644531 15.84375 M 134.027344 23.769531 C 134.703125 23.160156 135.214844 22.441406 135.539062 21.59375 C 135.976562 20.464844 136.0625 19.300781 135.878906 18.113281 C 135.65625 16.675781 135.019531 15.453125 133.875 14.542969 C 132.738281 13.640625 131.410156 13.242188 129.976562 13.21875 C 128.378906 13.191406 126.777344 13.203125 125.179688 13.203125 C 125.101562 13.199219 125.019531 13.203125 124.929688 13.203125 C 124.929688 17.230469 124.929688 21.238281 124.929688 25.253906 C 124.992188 25.257812 125.039062 25.261719 125.085938 25.261719 C 126.617188 25.261719 128.152344 25.265625 129.683594 25.257812 C 130.070312 25.257812 130.453125 25.234375 130.835938 25.179688 C 132.019531 25.019531 133.082031 24.558594 134.027344 23.769531 M 61.820312 24.375 C 62.675781 23.855469 63.371094 23.179688 63.851562 22.292969 C 64.640625 20.847656 64.773438 19.304688 64.441406 17.71875 C 64.1875 16.492188 63.59375 15.445312 62.636719 14.640625 C 61.464844 13.652344 60.066406 13.234375 58.550781 13.214844 C 56.972656 13.191406 55.390625 13.203125 53.808594 13.203125 C 53.730469 13.199219 53.652344 13.210938 53.578125 13.214844 C 53.578125 17.242188 53.578125 21.242188 53.578125 25.261719 C 53.691406 25.261719 53.789062 25.261719 53.886719 25.261719 C 55.296875 25.261719 56.707031 25.25 58.113281 25.265625 C 59.414062 25.277344 60.648438 25.042969 61.820312 24.375 M 70.625 13.199219 C 69.207031 13.199219 67.789062 13.207031 66.371094 13.195312 C 66.125 13.191406 66.074219 13.269531 66.074219 13.5 C 66.082031 17.332031 66.078125 21.160156 66.082031 24.992188 C 66.082031 25.070312 66.085938 25.152344 66.089844 25.246094 C 67.207031 25.246094 68.308594 25.246094 69.4375 25.246094 C 69.4375 23.769531 69.4375 22.304688 69.4375 20.832031 C 69.632812 20.832031 69.785156 20.769531 69.902344 20.988281 C 70.617188 22.351562 71.351562 23.703125 72.074219 25.0625 C 72.152344 25.207031 72.242188 25.269531 72.414062 25.265625 C 73.503906 25.257812 74.59375 25.261719 75.683594 25.261719 C 75.753906 25.261719 75.824219 25.253906 75.921875 25.25 C 75.015625 23.671875 74.121094 22.128906 73.226562 20.578125 C 73.289062 20.546875 73.3125 20.53125 73.332031 20.523438 C 74.835938 20.007812 75.683594 18.980469 75.839844 17.378906 C 76.019531 15.578125 74.898438 13.929688 73.15625 13.453125 C 72.339844 13.230469 71.507812 13.203125 70.625 13.199219 M 163.871094 13.722656 C 163.839844 13.644531 163.800781 13.570312 163.785156 13.492188 C 163.742188 13.238281 163.59375 13.191406 163.351562 13.195312 C 162.246094 13.210938 161.140625 13.203125 160.03125 13.199219 C 159.878906 13.199219 159.804688 13.238281 159.75 13.390625 C 159.277344 14.714844 158.792969 16.035156 158.308594 17.355469 C 157.476562 19.644531 156.636719 21.933594 155.804688 24.222656 C 155.679688 24.558594 155.566406 24.894531 155.441406 25.253906 C 156.628906 25.253906 157.78125 25.253906 158.949219 25.253906 C 159.144531 24.660156 159.347656 24.074219 159.535156 23.480469 C 159.578125 23.339844 159.636719 23.289062 159.789062 23.289062 C 161.085938 23.296875 162.378906 23.296875 163.675781 23.292969 C 163.820312 23.289062 163.890625 23.335938 163.933594 23.480469 C 164.09375 24.003906 164.273438 24.519531 164.433594 25.042969 C 164.484375 25.210938 164.5625 25.269531 164.742188 25.269531 C 165.769531 25.257812 166.792969 25.261719 167.816406 25.261719 C 167.886719 25.261719 167.957031 25.257812 168.050781 25.25 C 166.65625 21.40625 165.269531 17.582031 163.871094 13.722656 M 93.058594 13.199219 C 92.214844 13.199219 91.371094 13.207031 90.527344 13.195312 C 90.351562 13.195312 90.269531 13.238281 90.210938 13.414062 C 90.019531 13.984375 89.804688 14.554688 89.597656 15.121094 C 88.476562 18.195312 87.351562 21.265625 86.230469 24.339844 C 86.125 24.636719 86.023438 24.933594 85.921875 25.238281 C 85.980469 25.25 86.003906 25.257812 86.027344 25.257812 C 87.101562 25.261719 88.175781 25.265625 89.25 25.253906 C 89.320312 25.253906 89.433594 25.160156 89.460938 25.089844 C 89.652344 24.554688 89.828125 24.019531 90 23.480469 C 90.042969 23.351562 90.097656 23.289062 90.253906 23.289062 C 91.550781 23.296875 92.84375 23.296875 94.140625 23.289062 C 94.304688 23.289062 94.363281 23.351562 94.40625 23.496094 C 94.566406 24.019531 94.75 24.535156 94.90625 25.058594 C 94.957031 25.21875 95.03125 25.269531 95.199219 25.265625 C 96.222656 25.257812 97.25 25.261719 98.273438 25.261719 C 98.34375 25.261719 98.414062 25.253906 98.503906 25.25 C 98.472656 25.140625 98.453125 25.054688 98.425781 24.972656 C 97.332031 21.964844 96.242188 18.960938 95.148438 15.957031 C 94.851562 15.136719 94.550781 14.316406 94.261719 13.492188 C 94.1875 13.28125 94.09375 13.167969 93.84375 13.195312 C 93.601562 13.222656 93.351562 13.199219 93.058594 13.199219 M 77.371094 18.238281 C 77.371094 20.574219 77.371094 22.90625 77.371094 25.25 C 79.953125 25.25 82.5 25.25 85.058594 25.25 C 85.058594 24.363281 85.058594 23.488281 85.058594 22.589844 C 83.613281 22.589844 82.183594 22.589844 80.746094 22.589844 C 80.746094 21.847656 80.746094 21.132812 80.746094 20.410156 C 80.832031 20.40625 80.894531 20.398438 80.960938 20.398438 C 82.082031 20.398438 83.207031 20.394531 84.328125 20.402344 C 84.507812 20.402344 84.574219 20.359375 84.570312 20.171875 C 84.554688 19.777344 84.566406 19.382812 84.566406 18.988281 C 84.566406 18.621094 84.566406 18.257812 84.566406 17.859375 C 83.273438 17.859375 82.007812 17.859375 80.742188 17.859375 C 80.742188 17.191406 80.742188 16.554688 80.742188 15.890625 C 82.1875 15.890625 83.617188 15.890625 85.054688 15.890625 C 85.054688 14.984375 85.054688 14.101562 85.054688 13.214844 C 82.492188 13.214844 79.945312 13.214844 77.371094 13.214844 C 77.371094 14.882812 77.371094 16.535156 77.371094 18.238281 M 120.214844 25.261719 C 121.222656 25.261719 122.226562 25.261719 123.246094 25.261719 C 123.246094 24.359375 123.246094 23.488281 123.246094 22.589844 C 121.800781 22.589844 120.371094 22.589844 118.929688 22.589844 C 118.929688 21.851562 118.929688 21.136719 118.929688 20.390625 C 120.210938 20.390625 121.476562 20.390625 122.742188 20.390625 C 122.742188 19.535156 122.742188 18.710938 122.742188 17.855469 C 121.460938 17.855469 120.195312 17.855469 118.925781 17.855469 C 118.925781 17.191406 118.925781 16.554688 118.925781 15.886719 C 120.371094 15.886719 121.808594 15.886719 123.246094 15.886719 C 123.246094 14.980469 123.246094 14.105469 123.246094 13.214844 C 120.683594 13.214844 118.140625 13.214844 115.582031 13.214844 C 115.582031 17.230469 115.582031 21.238281 115.582031 25.261719 C 117.121094 25.261719 118.644531 25.261719 120.214844 25.261719 M 148.550781 18.730469 C 148.550781 17.785156 148.550781 16.839844 148.550781 15.867188 C 149.644531 15.867188 150.699219 15.867188 151.765625 15.867188 C 151.765625 14.972656 151.765625 14.101562 151.765625 13.214844 C 148.519531 13.214844 145.289062 13.214844 142.050781 13.214844 C 142.050781 14.105469 142.050781 14.976562 142.050781 15.871094 C 142.152344 15.871094 142.242188 15.871094 142.332031 15.871094 C 143.199219 15.871094 144.066406 15.878906 144.9375 15.867188 C 145.167969 15.863281 145.21875 15.9375 145.21875 16.15625 C 145.210938 19.082031 145.214844 22.011719 145.214844 24.9375 C 145.214844 25.042969 145.214844 25.144531 145.214844 25.242188 C 146.347656 25.242188 147.441406 25.242188 148.550781 25.242188 C 148.550781 23.078125 148.550781 20.929688 148.550781 18.730469 M 140.804688 19.324219 C 140.804688 17.285156 140.804688 15.25 140.804688 13.21875 C 139.667969 13.21875 138.574219 13.21875 137.472656 13.21875 C 137.472656 17.234375 137.472656 21.238281 137.472656 25.242188 C 138.589844 25.242188 139.6875 25.242188 140.804688 25.242188 C 140.804688 23.273438 140.804688 21.324219 140.804688 19.324219 M 169.136719 22.621094 C 169.136719 23.496094 169.136719 24.371094 169.136719 25.242188 C 170.269531 25.242188 171.371094 25.242188 172.464844 25.242188 C 172.464844 21.21875 172.464844 17.214844 172.464844 13.21875 C 171.351562 13.21875 170.253906 13.21875 169.136719 13.21875 C 169.136719 16.34375 169.136719 19.457031 169.136719 22.621094 M 161.785156 31.21875 C 161.386719 30.617188 160.992188 30.015625 160.59375 29.414062 C 160.550781 29.351562 160.488281 29.253906 160.433594 29.25 C 159.964844 29.238281 159.492188 29.246094 159.027344 29.246094 C 159.027344 31.265625 159.027344 33.246094 159.027344 35.234375 C 159.515625 35.234375 159.996094 35.234375 160.5 35.234375 C 160.5 34.019531 160.5 32.816406 160.5 31.566406 C 161.292969 32.765625 162.054688 33.921875 162.820312 35.070312 C 162.867188 35.144531 162.957031 35.238281 163.027344 35.242188 C 163.476562 35.257812 163.925781 35.25 164.386719 35.25 C 164.386719 33.242188 164.386719 31.25 164.386719 29.257812 C 163.894531 29.257812 163.417969 29.257812 162.921875 29.257812 C 162.921875 30.484375 162.921875 31.6875 162.921875 32.953125 C 162.527344 32.351562 162.167969 31.796875 161.785156 31.21875 M 77.558594 33.355469 C 77.558594 33.980469 77.558594 34.609375 77.558594 35.238281 C 78.0625 35.238281 78.535156 35.238281 79.027344 35.238281 C 79.027344 34.023438 79.027344 32.824219 79.027344 31.570312 C 79.097656 31.664062 79.136719 31.710938 79.171875 31.761719 C 79.902344 32.867188 80.628906 33.976562 81.363281 35.078125 C 81.414062 35.148438 81.5 35.238281 81.574219 35.242188 C 82.023438 35.257812 82.46875 35.25 82.929688 35.25 C 82.929688 33.238281 82.929688 31.25 82.929688 29.257812 C 82.4375 29.257812 81.960938 29.257812 81.464844 29.257812 C 81.464844 30.480469 81.464844 31.6875 81.464844 32.945312 C 81.410156 32.875 81.386719 32.84375 81.367188 32.8125 C 80.617188 31.671875 79.867188 30.53125 79.113281 29.390625 C 79.074219 29.332031 79 29.25 78.941406 29.25 C 78.484375 29.238281 78.03125 29.242188 77.558594 29.242188 C 77.558594 30.617188 77.558594 31.960938 77.558594 33.355469 M 113.71875 35.199219 C 114.726562 35.027344 115.523438 34.558594 115.960938 33.59375 C 116.722656 31.929688 116.039062 29.570312 113.6875 29.304688 C 112.773438 29.203125 111.839844 29.261719 110.914062 29.25 C 110.902344 29.25 110.890625 29.269531 110.886719 29.273438 C 110.886719 31.265625 110.886719 33.253906 110.886719 35.207031 C 111.828125 35.207031 112.753906 35.207031 113.71875 35.199219 M 174.695312 32.417969 C 174.695312 33.359375 174.695312 34.296875 174.695312 35.234375 C 175.5625 35.234375 176.40625 35.277344 177.246094 35.226562 C 178.773438 35.136719 179.828125 34.222656 180.042969 32.769531 C 180.304688 30.992188 179.332031 29.511719 177.535156 29.304688 C 176.664062 29.207031 175.773438 29.257812 174.886719 29.242188 C 174.824219 29.242188 174.761719 29.253906 174.695312 29.257812 C 174.695312 30.304688 174.695312 31.335938 174.695312 32.417969 M 72.171875 34.929688 C 72.832031 35.277344 73.527344 35.378906 74.261719 35.25 C 75.917969 34.957031 76.941406 33.496094 76.726562 31.800781 C 76.507812 30.070312 75.027344 29.042969 73.398438 29.179688 C 71.464844 29.339844 70.167969 31.171875 70.738281 33.160156 C 70.960938 33.9375 71.453125 34.503906 72.171875 34.929688 M 146.839844 29.191406 C 146.039062 29.316406 145.371094 29.683594 144.867188 30.316406 C 143.886719 31.5625 144.046875 33.554688 145.3125 34.601562 C 146.378906 35.484375 148.132812 35.542969 149.21875 34.671875 C 150.199219 33.886719 150.609375 32.582031 150.261719 31.367188 C 150.007812 30.476562 149.472656 29.828125 148.628906 29.441406 C 148.074219 29.1875 147.488281 29.125 146.839844 29.191406 M 124.863281 33.894531 C 125.375 34.691406 126.109375 35.15625 127.042969 35.269531 C 128.203125 35.414062 129.1875 35.066406 129.921875 34.125 C 130.472656 33.421875 130.625 32.605469 130.511719 31.746094 C 130.394531 30.878906 129.96875 30.179688 129.242188 29.6875 C 128.546875 29.21875 127.769531 29.074219 126.953125 29.203125 C 126.15625 29.332031 125.480469 29.703125 125.011719 30.363281 C 124.21875 31.488281 124.203125 32.664062 124.863281 33.894531 M 136.007812 30.964844 C 135.929688 30.015625 135.242188 29.363281 134.339844 29.304688 C 133.355469 29.246094 132.367188 29.292969 131.375 29.292969 C 131.375 31.257812 131.375 33.25 131.375 35.234375 C 131.867188 35.234375 132.335938 35.234375 132.832031 35.234375 C 132.832031 34.480469 132.832031 33.738281 132.832031 33.003906 C 133.0625 32.949219 133.195312 32.992188 133.308594 33.222656 C 133.628906 33.863281 133.992188 34.484375 134.34375 35.109375 C 134.378906 35.167969 134.453125 35.242188 134.511719 35.242188 C 135.015625 35.253906 135.523438 35.25 136.066406 35.25 C 135.59375 34.4375 135.144531 33.65625 134.6875 32.875 C 135.699219 32.53125 136.054688 31.761719 136.007812 30.964844 M 63.367188 31.582031 C 63.367188 30.804688 63.367188 30.03125 63.367188 29.261719 C 62.863281 29.261719 62.382812 29.261719 61.886719 29.261719 C 61.886719 30.046875 61.886719 30.816406 61.886719 31.585938 C 61.128906 31.585938 60.386719 31.585938 59.621094 31.585938 C 59.621094 30.796875 59.621094 30.023438 59.621094 29.25 C 59.132812 29.25 58.664062 29.25 58.195312 29.25 C 58.195312 31.253906 58.195312 33.246094 58.195312 35.230469 C 58.683594 35.230469 59.15625 35.230469 59.640625 35.230469 C 59.640625 34.402344 59.640625 33.59375 59.640625 32.792969 C 60.402344 32.792969 61.144531 32.792969 61.902344 32.792969 C 61.902344 33.613281 61.902344 34.421875 61.902344 35.234375 C 62.402344 35.234375 62.878906 35.234375 63.367188 35.234375 C 63.367188 34.023438 63.367188 32.828125 63.367188 31.582031 M 96.0625 32.933594 C 95.78125 33.695312 95.503906 34.460938 95.21875 35.242188 C 95.757812 35.242188 96.25 35.242188 96.75 35.242188 C 96.847656 34.949219 96.949219 34.660156 97.039062 34.367188 C 97.078125 34.242188 97.128906 34.183594 97.277344 34.1875 C 97.90625 34.195312 98.539062 34.195312 99.167969 34.1875 C 99.3125 34.1875 99.371094 34.242188 99.410156 34.371094 C 99.484375 34.621094 99.574219 34.867188 99.667969 35.113281 C 99.6875 35.167969 99.753906 35.242188 99.800781 35.242188 C 100.277344 35.253906 100.757812 35.25 101.25 35.25 C 100.882812 34.226562 100.519531 33.226562 100.160156 32.230469 C 99.800781 31.234375 99.441406 30.238281 99.082031 29.25 C 98.503906 29.25 97.949219 29.25 97.390625 29.25 C 97.167969 29.859375 96.945312 30.457031 96.730469 31.0625 C 96.507812 31.671875 96.292969 32.285156 96.0625 32.933594 M 154.859375 29.242188 C 154.664062 29.222656 154.730469 29.367188 154.730469 29.457031 C 154.726562 30.5625 154.742188 31.671875 154.71875 32.777344 C 154.714844 33.042969 154.65625 33.347656 154.515625 33.5625 C 154.230469 33.988281 153.769531 34.015625 153.304688 33.902344 C 152.894531 33.804688 152.714844 33.5 152.65625 33.109375 C 152.632812 32.972656 152.621094 32.832031 152.621094 32.695312 C 152.621094 31.628906 152.621094 30.5625 152.621094 29.496094 C 152.621094 29.414062 152.621094 29.335938 152.621094 29.253906 C 152.125 29.253906 151.652344 29.253906 151.179688 29.253906 C 151.171875 29.289062 151.164062 29.3125 151.164062 29.335938 C 151.160156 30.464844 151.15625 31.597656 151.164062 32.730469 C 151.167969 33.265625 151.230469 33.792969 151.53125 34.257812 C 152.019531 35.007812 152.75 35.289062 153.605469 35.300781 C 155.042969 35.324219 156.15625 34.445312 156.179688 32.953125 C 156.195312 31.730469 156.1875 30.511719 156.191406 29.289062 C 156.191406 29.277344 156.171875 29.261719 156.15625 29.242188 C 155.742188 29.242188 155.324219 29.242188 154.859375 29.242188 M 107.226562 29.242188 C 106.902344 29.242188 106.578125 29.242188 106.261719 29.242188 C 106.261719 31.265625 106.261719 33.253906 106.261719 35.230469 C 107.488281 35.230469 108.695312 35.230469 109.894531 35.230469 C 109.894531 34.839844 109.894531 34.464844 109.894531 34.074219 C 109.160156 34.074219 108.445312 34.074219 107.714844 34.074219 C 107.714844 33.632812 107.714844 33.210938 107.714844 32.757812 C 108.371094 32.757812 109.011719 32.757812 109.652344 32.757812 C 109.652344 32.367188 109.652344 32.011719 109.652344 31.625 C 109 31.625 108.359375 31.625 107.71875 31.625 C 107.71875 31.207031 107.71875 30.820312 107.71875 30.410156 C 108.449219 30.410156 109.167969 30.410156 109.894531 30.410156 C 109.894531 30.015625 109.894531 29.632812 109.894531 29.242188 C 109.011719 29.242188 108.144531 29.242188 107.226562 29.242188 M 65.875 33.839844 C 65.875 33.484375 65.875 33.128906 65.875 32.75 C 66.546875 32.75 67.183594 32.75 67.820312 32.75 C 67.820312 32.367188 67.820312 32.003906 67.820312 31.625 C 67.164062 31.625 66.53125 31.625 65.894531 31.625 C 65.894531 31.210938 65.894531 30.816406 65.894531 30.40625 C 66.632812 30.40625 67.351562 30.40625 68.078125 30.40625 C 68.078125 30.015625 68.078125 29.632812 68.078125 29.261719 C 66.847656 29.261719 65.628906 29.261719 64.417969 29.261719 C 64.417969 31.265625 64.417969 33.246094 64.417969 35.234375 C 65.648438 35.234375 66.863281 35.234375 68.070312 35.234375 C 68.070312 34.839844 68.070312 34.460938 68.070312 34.070312 C 67.332031 34.070312 66.613281 34.070312 65.875 34.070312 C 65.875 34 65.875 33.945312 65.875 33.839844 M 166.070312 35.25 C 167.089844 35.25 168.109375 35.25 169.117188 35.25 C 169.117188 34.839844 169.117188 34.464844 169.117188 34.066406 C 168.378906 34.066406 167.652344 34.066406 166.9375 34.066406 C 166.9375 33.621094 166.9375 33.195312 166.9375 32.753906 C 167.585938 32.753906 168.222656 32.753906 168.851562 32.753906 C 168.851562 32.367188 168.851562 32.003906 168.851562 31.628906 C 168.203125 31.628906 167.574219 31.628906 166.9375 31.628906 C 166.9375 31.21875 166.9375 30.824219 166.9375 30.402344 C 167.675781 30.402344 168.398438 30.402344 169.121094 30.402344 C 169.121094 30.003906 169.121094 29.628906 169.121094 29.257812 C 167.890625 29.257812 166.675781 29.257812 165.46875 29.257812 C 165.46875 31.261719 165.46875 33.25 165.46875 35.25 C 165.660156 35.25 165.839844 35.25 166.070312 35.25 M 170.078125 29.328125 C 170.078125 31.300781 170.078125 33.273438 170.078125 35.242188 C 171.316406 35.242188 172.519531 35.242188 173.726562 35.242188 C 173.726562 34.851562 173.726562 34.46875 173.726562 34.0625 C 172.984375 34.0625 172.261719 34.0625 171.542969 34.0625 C 171.542969 33.621094 171.542969 33.207031 171.542969 32.761719 C 172.195312 32.761719 172.835938 32.761719 173.476562 32.761719 C 173.476562 32.367188 173.476562 32.003906 173.476562 31.621094 C 172.824219 31.621094 172.1875 31.621094 171.542969 31.621094 C 171.542969 31.210938 171.542969 30.824219 171.542969 30.410156 C 172.277344 30.410156 173.003906 30.410156 173.734375 30.410156 C 173.734375 30.011719 173.734375 29.640625 173.734375 29.257812 C 173.695312 29.25 173.664062 29.242188 173.632812 29.242188 C 172.492188 29.242188 171.351562 29.242188 170.214844 29.246094 C 170.167969 29.246094 170.125 29.265625 170.078125 29.328125 M 141.121094 31.675781 C 141.074219 31.621094 141.011719 31.574219 140.984375 31.511719 C 140.652344 30.808594 140.332031 30.105469 139.996094 29.40625 C 139.964844 29.339844 139.878906 29.25 139.820312 29.25 C 139.316406 29.238281 138.808594 29.242188 138.292969 29.242188 C 138.304688 29.292969 138.308594 29.316406 138.316406 29.335938 C 138.90625 30.476562 139.496094 31.613281 140.082031 32.753906 C 140.207031 33.003906 140.378906 33.226562 140.363281 33.546875 C 140.332031 34.105469 140.355469 34.671875 140.355469 35.238281 C 140.851562 35.238281 141.320312 35.238281 141.8125 35.238281 C 141.8125 34.640625 141.808594 34.050781 141.816406 33.460938 C 141.820312 33.328125 141.851562 33.183594 141.914062 33.066406 C 142.484375 31.953125 143.0625 30.839844 143.636719 29.730469 C 143.714844 29.574219 143.796875 29.417969 143.886719 29.242188 C 143.378906 29.242188 142.914062 29.253906 142.445312 29.238281 C 142.273438 29.230469 142.214844 29.300781 142.148438 29.445312 C 141.824219 30.183594 141.480469 30.914062 141.121094 31.675781 M 89.679688 33.421875 C 89.679688 34.027344 89.679688 34.628906 89.679688 35.238281 C 90.175781 35.238281 90.648438 35.238281 91.140625 35.238281 C 91.140625 34.628906 91.136719 34.035156 91.144531 33.4375 C 91.144531 33.328125 91.167969 33.207031 91.214844 33.109375 C 91.769531 32.023438 92.328125 30.9375 92.886719 29.855469 C 92.988281 29.65625 93.097656 29.460938 93.210938 29.246094 C 92.640625 29.246094 92.109375 29.246094 91.570312 29.246094 C 91.195312 30.0625 90.820312 30.882812 90.425781 31.734375 C 90.363281 31.613281 90.316406 31.539062 90.28125 31.460938 C 89.964844 30.78125 89.652344 30.097656 89.332031 29.421875 C 89.300781 29.351562 89.222656 29.253906 89.160156 29.25 C 88.652344 29.238281 88.140625 29.242188 87.601562 29.242188 C 87.632812 29.304688 87.644531 29.335938 87.660156 29.363281 C 88.25 30.5 88.839844 31.640625 89.425781 32.78125 C 89.523438 32.972656 89.597656 33.179688 89.679688 33.421875 M 52.796875 29.425781 C 52.796875 29.75 52.796875 30.074219 52.796875 30.421875 C 53.34375 30.421875 53.859375 30.421875 54.390625 30.421875 C 54.390625 32.035156 54.390625 33.632812 54.390625 35.234375 C 54.886719 35.234375 55.363281 35.234375 55.859375 35.234375 C 55.859375 33.621094 55.859375 32.027344 55.859375 30.414062 C 56.390625 30.414062 56.902344 30.414062 57.425781 30.414062 C 57.425781 30.015625 57.425781 29.632812 57.425781 29.242188 C 57.207031 29.242188 57 29.242188 56.796875 29.242188 C 55.535156 29.242188 54.273438 29.242188 53.011719 29.246094 C 52.917969 29.246094 52.777344 29.191406 52.796875 29.425781 M 119.921875 29.242188 C 119.703125 29.242188 119.488281 29.242188 119.28125 29.242188 C 119.28125 29.65625 119.28125 30.027344 119.28125 30.421875 C 119.8125 30.421875 120.324219 30.421875 120.855469 30.421875 C 120.855469 32.039062 120.855469 33.632812 120.855469 35.234375 C 121.355469 35.234375 121.832031 35.234375 122.328125 35.234375 C 122.328125 33.621094 122.328125 32.027344 122.328125 30.414062 C 122.855469 30.414062 123.371094 30.414062 123.890625 30.414062 C 123.890625 30.015625 123.890625 29.632812 123.890625 29.242188 C 122.574219 29.242188 121.273438 29.242188 119.921875 29.242188 M 84.257812 35.25 C 85.289062 35.25 86.320312 35.25 87.355469 35.25 C 87.355469 34.859375 87.355469 34.496094 87.355469 34.105469 C 86.714844 34.105469 86.085938 34.105469 85.441406 34.105469 C 85.441406 32.472656 85.441406 30.859375 85.441406 29.257812 C 84.949219 29.257812 84.480469 29.257812 84.003906 29.257812 C 84.003906 31.257812 84.003906 33.246094 84.003906 35.25 C 84.082031 35.25 84.148438 35.25 84.257812 35.25 M 102.601562 35.25 C 102.855469 35.25 103.105469 35.25 103.355469 35.25 C 103.355469 33.234375 103.355469 31.246094 103.355469 29.261719 C 102.867188 29.261719 102.386719 29.261719 101.914062 29.261719 C 101.914062 31.261719 101.914062 33.242188 101.914062 35.25 C 102.132812 35.25 102.34375 35.25 102.601562 35.25 M 117.171875 35.25 C 117.621094 35.25 118.070312 35.25 118.519531 35.25 C 118.519531 33.238281 118.519531 31.25 118.519531 29.257812 C 118.035156 29.257812 117.5625 29.257812 117.089844 29.257812 C 117.085938 29.292969 117.078125 29.316406 117.078125 29.339844 C 117.078125 31.257812 117.078125 33.175781 117.082031 35.09375 C 117.082031 35.144531 117.109375 35.195312 117.171875 35.25 Z M 117.171875 35.25 "/>
<path style=" stroke:none;fill-rule:nonzero;fill:rgb(0.392157%,0%,0%);fill-opacity:1;" d="M 16.5 45.757812 C 15.34375 45.292969 14.226562 44.777344 13.191406 44.109375 C 12.332031 43.554688 11.46875 43 10.664062 42.371094 C 9.371094 41.363281 8.199219 40.222656 7.152344 38.953125 C 5.96875 37.515625 4.929688 35.980469 4.140625 34.292969 C 3.652344 33.257812 3.230469 32.1875 2.863281 31.101562 C 2.332031 29.53125 2 27.914062 1.855469 26.253906 C 1.671875 24.140625 1.761719 22.042969 2.125 19.964844 C 2.421875 18.277344 2.90625 16.640625 3.578125 15.058594 C 4.230469 13.523438 5.042969 12.078125 6.019531 10.730469 C 7.171875 9.136719 8.511719 7.710938 10.027344 6.445312 C 11.40625 5.292969 12.910156 4.328125 14.515625 3.519531 C 16.601562 2.46875 18.804688 1.761719 21.109375 1.394531 C 23.074219 1.085938 25.050781 1.035156 27.035156 1.21875 C 29.15625 1.414062 31.210938 1.894531 33.195312 2.660156 C 35.421875 3.515625 37.472656 4.679688 39.339844 6.171875 C 41.160156 7.632812 42.726562 9.324219 44.046875 11.246094 C 44.941406 12.546875 45.660156 13.949219 46.269531 15.410156 C 46.882812 16.890625 47.351562 18.410156 47.640625 19.984375 C 47.78125 20.753906 47.890625 21.53125 47.953125 22.3125 C 48.125 24.378906 48.011719 26.4375 47.621094 28.476562 C 47.1875 30.761719 46.445312 32.941406 45.351562 35 C 44.652344 36.316406 43.828125 37.550781 42.890625 38.710938 C 41.738281 40.140625 40.4375 41.40625 38.980469 42.519531 C 37.261719 43.835938 35.410156 44.917969 33.382812 45.707031 C 31.480469 46.445312 29.523438 46.96875 27.503906 47.183594 C 26.214844 47.320312 24.90625 47.316406 23.605469 47.289062 C 21.414062 47.246094 19.304688 46.710938 17.230469 46.035156 C 16.988281 45.957031 16.753906 45.859375 16.5 45.757812 M 19.410156 30.261719 C 19.390625 30.355469 19.386719 30.457031 19.347656 30.546875 C 19.039062 31.261719 19 32.027344 18.894531 32.78125 C 18.765625 33.71875 18.636719 34.652344 18.511719 35.589844 C 18.492188 35.75 18.511719 35.914062 18.511719 36.074219 C 18.535156 36.074219 18.554688 36.074219 18.578125 36.074219 C 18.578125 35.988281 18.578125 35.902344 18.578125 35.734375 C 18.675781 35.816406 18.746094 35.851562 18.753906 35.894531 C 18.792969 36.175781 18.972656 36.164062 19.214844 36.09375 C 19.226562 36.378906 19.242188 36.648438 19.257812 36.917969 C 19.28125 36.914062 19.304688 36.914062 19.324219 36.914062 C 19.363281 36.570312 19.25 36.1875 19.53125 35.898438 C 19.597656 35.832031 19.640625 35.734375 19.71875 35.703125 C 19.835938 35.65625 19.96875 35.648438 20.121094 35.621094 C 20.121094 35.375 20.113281 35.132812 20.128906 34.886719 C 20.132812 34.808594 20.203125 34.675781 20.253906 34.671875 C 20.535156 34.648438 20.820312 34.660156 21.125 34.660156 C 21.125 34.960938 21.121094 35.230469 21.125 35.496094 C 21.132812 35.832031 21.136719 36.167969 21.164062 36.5 C 21.167969 36.5625 21.265625 36.640625 21.332031 36.65625 C 21.375 36.667969 21.488281 36.582031 21.492188 36.535156 C 21.507812 36.308594 21.625 36.207031 21.828125 36.210938 C 21.75 35.832031 21.65625 35.46875 21.601562 35.101562 C 21.449219 34.074219 21.355469 33.039062 20.871094 32.082031 C 20.597656 31.542969 20.433594 30.949219 20.21875 30.339844 C 20.066406 29.902344 19.910156 29.464844 19.757812 29.027344 C 19.722656 29.03125 19.683594 29.03125 19.648438 29.035156 C 19.578125 29.433594 19.503906 29.832031 19.410156 30.261719 M 41.511719 28.9375 C 41.613281 28.578125 41.722656 28.214844 41.808594 27.851562 C 42.363281 25.585938 42.339844 23.304688 41.941406 21.027344 C 41.648438 19.324219 41.027344 17.722656 40.246094 16.179688 C 39.507812 14.71875 38.566406 13.398438 37.429688 12.21875 C 36.261719 11.007812 34.949219 9.980469 33.480469 9.160156 C 31.78125 8.210938 29.976562 7.53125 28.054688 7.1875 C 26.230469 6.863281 24.398438 6.847656 22.558594 7.074219 C 20.785156 7.289062 19.09375 7.773438 17.488281 8.535156 C 15.253906 9.59375 13.292969 11.027344 11.679688 12.921875 C 10.679688 14.101562 9.859375 15.390625 9.195312 16.789062 C 8.394531 18.464844 7.890625 20.226562 7.683594 22.0625 C 7.4375 24.234375 7.542969 26.394531 8.128906 28.507812 C 8.296875 29.109375 8.539062 29.6875 8.753906 30.3125 C 9.261719 31.679688 9.992188 32.921875 10.84375 34.101562 C 10.882812 34.152344 10.960938 34.191406 11.027344 34.203125 C 11.4375 34.273438 11.4375 34.269531 11.457031 34.671875 C 11.460938 34.703125 11.476562 34.730469 11.488281 34.769531 C 12.050781 34.671875 11.8125 35.175781 11.945312 35.398438 C 12.058594 35.097656 12.167969 34.8125 12.273438 34.53125 C 12.683594 34.464844 12.730469 34.5 12.769531 34.882812 C 12.785156 35.023438 12.769531 35.167969 12.800781 35.300781 C 12.835938 35.445312 12.910156 35.578125 12.964844 35.71875 C 13.15625 35.632812 13.34375 35.550781 13.398438 35.605469 C 13.480469 35.6875 13.46875 35.863281 13.5 35.992188 C 13.992188 35.496094 13.773438 34.859375 13.804688 34.257812 C 14.101562 34.257812 14.375 34.257812 14.675781 34.257812 C 14.6875 34.496094 14.699219 34.714844 14.710938 34.960938 C 14.90625 34.960938 15.089844 34.960938 15.324219 34.960938 C 15.324219 35.558594 15.324219 36.125 15.324219 36.691406 C 15.496094 36.507812 15.691406 36.398438 15.675781 36.109375 C 15.648438 35.582031 15.703125 35.046875 15.726562 34.515625 C 15.761719 33.648438 15.820312 32.78125 15.828125 31.914062 C 15.832031 31.25 15.773438 30.589844 15.753906 29.886719 C 15.808594 29.597656 15.871094 29.3125 15.921875 29.023438 C 15.964844 28.757812 16.003906 28.492188 16.027344 28.230469 C 16.050781 27.984375 16.042969 27.742188 16.0625 27.496094 C 16.070312 27.351562 16.046875 27.230469 15.890625 27.1875 C 15.703125 27.132812 15.675781 27.015625 15.699219 26.835938 C 15.875 25.433594 16.046875 24.027344 16.214844 22.621094 C 16.300781 21.890625 16.382812 21.160156 16.464844 20.425781 C 16.496094 20.152344 16.433594 20.101562 16.164062 20.183594 C 15.984375 20.242188 15.8125 20.308594 15.632812 20.359375 C 15.125 20.511719 14.792969 20.386719 14.492188 19.945312 C 14.101562 19.367188 14.136719 18.785156 14.464844 18.191406 C 14.8125 17.558594 15.160156 16.925781 15.507812 16.292969 C 15.863281 15.644531 16.296875 15.417969 17.039062 15.492188 C 17.097656 15.5 17.183594 15.503906 17.214844 15.472656 C 17.382812 15.28125 17.589844 15.105469 17.675781 14.878906 C 17.816406 14.519531 17.90625 14.132812 17.957031 13.75 C 18.003906 13.371094 18.167969 13.128906 18.519531 12.992188 C 18.617188 12.953125 18.707031 12.878906 18.792969 12.808594 C 19.089844 12.5625 19.113281 12.203125 19.183594 11.859375 C 19.257812 11.519531 19.367188 11.199219 19.679688 10.992188 C 20.230469 10.632812 20.808594 10.574219 21.398438 10.871094 C 22.015625 11.1875 22.3125 11.699219 22.289062 12.402344 C 22.273438 12.898438 22.285156 12.890625 22.78125 12.902344 C 22.996094 12.90625 23.15625 12.882812 23.128906 12.605469 C 23.265625 12.605469 23.390625 12.605469 23.527344 12.605469 C 23.511719 12.699219 23.5 12.769531 23.484375 12.871094 C 23.691406 12.882812 23.882812 12.886719 24.078125 12.902344 C 24.496094 12.9375 24.617188 13.089844 24.566406 13.496094 C 24.546875 13.648438 24.546875 13.804688 24.539062 13.957031 C 24.6875 13.984375 24.8125 13.992188 24.921875 14.035156 C 25.03125 14.078125 25.175781 14.140625 25.214844 14.230469 C 25.402344 14.6875 25.601562 15.148438 25.71875 15.628906 C 25.847656 16.15625 25.890625 16.703125 25.960938 17.246094 C 25.984375 17.429688 25.980469 17.601562 26.226562 17.644531 C 26.285156 17.65625 26.335938 17.777344 26.363281 17.859375 C 26.570312 18.421875 26.597656 19.011719 26.5625 19.597656 C 26.53125 20.109375 26.453125 20.621094 26.375 21.128906 C 26.339844 21.339844 26.253906 21.546875 26.179688 21.75 C 26.140625 21.855469 26.066406 21.949219 26.027344 22.054688 C 25.695312 22.964844 25.367188 23.878906 25.03125 24.789062 C 24.601562 25.96875 24.160156 27.148438 23.734375 28.328125 C 23.671875 28.507812 23.617188 28.710938 23.632812 28.894531 C 23.664062 29.234375 23.753906 29.566406 23.808594 29.9375 C 23.804688 30.078125 23.796875 30.214844 23.800781 30.351562 C 23.820312 30.859375 23.847656 31.367188 23.867188 31.875 C 23.875 32.058594 23.8125 32.265625 23.875 32.429688 C 24.1875 33.292969 24.355469 34.191406 24.542969 35.085938 C 24.628906 35.507812 24.652344 35.917969 24.496094 36.339844 C 24.425781 36.535156 24.453125 36.765625 24.433594 36.980469 C 24.460938 36.984375 24.488281 36.992188 24.515625 37 C 24.574219 36.84375 24.628906 36.683594 24.683594 36.527344 C 24.699219 36.523438 24.71875 36.519531 24.738281 36.515625 C 24.792969 36.664062 24.847656 36.816406 24.90625 36.976562 C 24.988281 36.816406 25.0625 36.675781 25.152344 36.5 C 25.277344 36.660156 25.363281 36.769531 25.480469 36.917969 C 25.527344 36.726562 25.550781 36.585938 25.597656 36.449219 C 25.621094 36.386719 25.691406 36.292969 25.734375 36.292969 C 25.816406 36.296875 25.902344 36.351562 25.976562 36.402344 C 26.011719 36.421875 26.019531 36.480469 26.039062 36.519531 C 26.121094 36.375 26.15625 36.226562 26.183594 36.078125 C 26.222656 35.851562 26.402344 35.902344 26.550781 35.898438 C 26.667969 35.894531 26.796875 35.90625 26.769531 36.078125 C 26.726562 36.300781 26.839844 36.351562 27.027344 36.335938 C 27.074219 36.332031 27.117188 36.34375 27.171875 36.351562 C 27.164062 36.464844 27.15625 36.5625 27.152344 36.65625 C 27.179688 36.660156 27.210938 36.660156 27.242188 36.664062 C 27.285156 36.332031 27.328125 36 27.375 35.652344 C 27.554688 35.652344 27.738281 35.652344 27.933594 35.652344 C 27.949219 35.882812 27.964844 36.09375 27.980469 36.308594 C 28.003906 36.304688 28.027344 36.300781 28.054688 36.300781 C 28.054688 35.777344 28.054688 35.257812 28.054688 34.707031 C 28.300781 34.707031 28.53125 34.726562 28.753906 34.703125 C 28.996094 34.675781 29.0625 34.796875 29.066406 34.992188 C 29.074219 35.328125 29.074219 35.667969 29.078125 36.003906 C 29.078125 36.023438 29.089844 36.046875 29.097656 36.074219 C 29.167969 36.058594 29.238281 36.042969 29.257812 36.039062 C 29.371094 36.117188 29.445312 36.167969 29.519531 36.222656 C 29.601562 36.074219 29.6875 35.929688 29.769531 35.78125 C 29.71875 35.816406 29.667969 35.851562 29.617188 35.886719 C 29.71875 35.949219 29.820312 36.011719 29.953125 36.09375 C 30.027344 35.9375 30.039062 35.84375 30.089844 35.8125 C 30.28125 35.683594 30.289062 35.691406 30.289062 35.484375 C 30.289062 34.5 30.289062 33.515625 30.289062 32.53125 C 30.289062 32.214844 30.289062 31.894531 30.289062 31.515625 C 30.640625 31.515625 30.976562 31.53125 31.308594 31.511719 C 31.542969 31.496094 31.605469 31.582031 31.605469 31.800781 C 31.601562 33.011719 31.601562 34.226562 31.605469 35.441406 C 31.605469 35.503906 31.617188 35.566406 31.625 35.632812 C 31.648438 35.628906 31.667969 35.628906 31.6875 35.625 C 31.6875 35.292969 31.6875 34.960938 31.6875 34.597656 C 31.898438 34.585938 32.082031 34.5625 32.265625 34.574219 C 32.609375 34.589844 32.609375 34.597656 32.621094 34.949219 C 32.625 35.03125 32.613281 35.117188 32.628906 35.195312 C 32.648438 35.3125 32.699219 35.53125 32.71875 35.53125 C 32.929688 35.511719 32.859375 35.328125 32.859375 35.207031 C 32.859375 35.054688 32.917969 35 33.0625 35.007812 C 33.136719 35.015625 33.210938 35.007812 33.285156 35.003906 C 33.429688 34.988281 33.5 35.050781 33.496094 35.199219 C 33.496094 35.273438 33.5 35.347656 33.496094 35.417969 C 33.488281 35.5625 33.5625 35.601562 33.691406 35.59375 C 34 35.582031 33.875 35.339844 33.878906 35.207031 C 33.902344 34.582031 33.890625 34.585938 34.523438 34.585938 C 34.710938 34.585938 34.761719 34.648438 34.757812 34.828125 C 34.75 35.066406 34.777344 35.308594 34.785156 35.535156 C 35.007812 35.535156 35.195312 35.535156 35.394531 35.535156 C 35.410156 35.382812 35.375 35.203125 35.449219 35.121094 C 35.527344 35.039062 35.707031 35.054688 35.785156 35.039062 C 35.882812 35.210938 35.949219 35.328125 36.015625 35.445312 C 36.097656 35.359375 36.179688 35.277344 36.3125 35.148438 C 36.449219 35.15625 36.664062 35.167969 36.871094 35.183594 C 36.894531 35.308594 36.914062 35.398438 36.9375 35.523438 C 37.101562 35.195312 37.101562 35.195312 37.226562 35.183594 C 37.261719 35.289062 37.292969 35.394531 37.335938 35.53125 C 37.566406 35.386719 37.789062 35.292969 37.949219 35.132812 C 38.183594 34.90625 38.371094 34.632812 38.574219 34.378906 C 39.21875 33.5625 39.78125 32.695312 40.261719 31.773438 C 40.476562 31.355469 40.667969 30.929688 40.898438 30.449219 C 40.324219 30.449219 39.804688 30.449219 39.28125 30.449219 C 39.332031 30.359375 39.382812 30.324219 39.441406 30.296875 C 39.984375 30.035156 40.527344 29.769531 41.078125 29.519531 C 41.328125 29.40625 41.46875 29.234375 41.511719 28.9375 M 25.003906 23.332031 C 25.128906 22.984375 25.25 22.640625 25.378906 22.296875 C 25.429688 22.167969 25.414062 22.113281 25.261719 22.046875 C 24.84375 21.867188 24.429688 21.667969 24.035156 21.433594 C 23.734375 21.253906 23.472656 21.007812 23.171875 20.777344 C 23.167969 20.84375 23.164062 20.894531 23.164062 20.949219 C 23.164062 22.085938 23.15625 23.21875 23.167969 24.355469 C 23.171875 25.160156 23.203125 25.960938 23.222656 26.761719 C 23.230469 27.03125 23.277344 27.277344 23.5625 27.457031 C 24.042969 26.078125 24.515625 24.722656 25.003906 23.332031 M 24.667969 18.121094 C 24.796875 17.699219 24.789062 17.324219 24.414062 16.992188 C 24.167969 16.773438 23.984375 16.480469 23.785156 16.210938 C 23.601562 15.96875 23.4375 15.710938 23.261719 15.460938 C 23.539062 15.304688 23.539062 15.304688 24.082031 15.746094 C 24.191406 15.570312 24.300781 15.402344 24.421875 15.210938 C 24.351562 15.191406 24.324219 15.175781 24.292969 15.175781 C 23.605469 15.171875 22.917969 15.167969 22.230469 15.171875 C 22.171875 15.171875 22.113281 15.21875 22.054688 15.246094 C 21.949219 15.300781 21.847656 15.363281 21.742188 15.414062 C 21.609375 15.476562 21.519531 15.542969 21.597656 15.710938 C 21.78125 16.101562 22.015625 16.355469 22.5 16.410156 C 23.179688 16.484375 23.777344 16.785156 24.164062 17.398438 C 24.320312 17.648438 24.480469 17.890625 24.667969 18.121094 M 19.082031 15.277344 C 19.210938 15.230469 19.324219 15.179688 19.191406 14.988281 C 19.082031 15.082031 18.984375 15.160156 18.886719 15.242188 C 18.894531 15.261719 18.90625 15.277344 18.914062 15.292969 C 18.957031 15.292969 19.003906 15.292969 19.082031 15.277344 Z M 19.082031 15.277344 "/>
<path style=" stroke:none;fill-rule:nonzero;fill:rgb(26.666667%,53.333333%,87.058824%);fill-opacity:1;" d="M 108.648438 15.828125 C 108.960938 14.996094 109.261719 14.183594 109.578125 13.375 C 109.605469 13.300781 109.71875 13.207031 109.792969 13.207031 C 111.046875 13.199219 112.300781 13.203125 113.558594 13.203125 C 113.578125 13.203125 113.601562 13.214844 113.640625 13.222656 C 113.640625 17.222656 113.640625 21.222656 113.640625 25.242188 C 112.539062 25.242188 111.4375 25.242188 110.3125 25.242188 C 110.3125 23.089844 110.3125 20.941406 110.3125 18.789062 C 110.292969 18.785156 110.277344 18.785156 110.257812 18.78125 C 110.125 19.164062 109.996094 19.546875 109.863281 19.929688 C 109.277344 21.640625 108.691406 23.347656 108.113281 25.0625 C 108.0625 25.210938 108 25.269531 107.839844 25.265625 C 107.042969 25.257812 106.246094 25.257812 105.453125 25.265625 C 105.296875 25.269531 105.226562 25.222656 105.175781 25.070312 C 104.753906 23.816406 104.324219 22.566406 103.898438 21.316406 C 103.609375 20.476562 103.320312 19.636719 103.027344 18.796875 C 103.011719 18.753906 102.984375 18.714844 102.933594 18.613281 C 102.933594 20.863281 102.933594 23.046875 102.933594 25.246094 C 101.820312 25.246094 100.726562 25.246094 99.621094 25.246094 C 99.621094 21.230469 99.621094 17.230469 99.621094 13.203125 C 99.710938 13.203125 99.792969 13.203125 99.871094 13.203125 C 101.042969 13.203125 102.214844 13.207031 103.386719 13.195312 C 103.585938 13.195312 103.671875 13.253906 103.742188 13.441406 C 104.363281 15.074219 104.996094 16.699219 105.625 18.328125 C 105.945312 19.160156 106.265625 19.988281 106.585938 20.820312 C 106.605469 20.871094 106.640625 20.917969 106.691406 21 C 107.347656 19.261719 107.996094 17.554688 108.648438 15.828125 Z M 108.648438 15.828125 "/>
<path style=" stroke:none;fill-rule:nonzero;fill:rgb(24.313725%,48.235294%,87.45098%);fill-opacity:1;" d="M 134.015625 23.78125 C 133.082031 24.558594 132.019531 25.019531 130.835938 25.179688 C 130.453125 25.234375 130.070312 25.257812 129.683594 25.257812 C 128.152344 25.265625 126.617188 25.261719 125.085938 25.261719 C 125.039062 25.261719 124.992188 25.257812 124.929688 25.253906 C 124.929688 21.238281 124.929688 17.230469 124.929688 13.203125 C 125.019531 13.203125 125.101562 13.199219 125.179688 13.203125 C 126.777344 13.203125 128.378906 13.191406 129.976562 13.21875 C 131.410156 13.242188 132.738281 13.640625 133.875 14.542969 C 135.019531 15.453125 135.65625 16.675781 135.878906 18.113281 C 136.0625 19.300781 135.976562 20.464844 135.539062 21.59375 C 135.214844 22.441406 134.703125 23.160156 134.015625 23.78125 M 131.945312 17.164062 C 131.769531 17.007812 131.609375 16.828125 131.421875 16.6875 C 130.464844 15.996094 129.363281 16.121094 128.277344 16.105469 C 128.277344 18.1875 128.277344 20.238281 128.277344 22.253906 C 128.894531 22.253906 129.496094 22.296875 130.089844 22.246094 C 130.871094 22.175781 131.515625 21.808594 132.003906 21.179688 C 132.730469 20.242188 132.773438 18.214844 131.945312 17.164062 Z M 131.945312 17.164062 "/>
<path style=" stroke:none;fill-rule:nonzero;fill:rgb(31.372549%,64.705882%,86.27451%);fill-opacity:1;" d="M 61.804688 24.386719 C 60.648438 25.042969 59.414062 25.277344 58.113281 25.265625 C 56.707031 25.25 55.296875 25.261719 53.886719 25.261719 C 53.789062 25.261719 53.691406 25.261719 53.578125 25.261719 C 53.578125 21.242188 53.578125 17.242188 53.578125 13.214844 C 53.652344 13.210938 53.730469 13.199219 53.808594 13.203125 C 55.390625 13.203125 56.972656 13.191406 58.550781 13.214844 C 60.066406 13.234375 61.464844 13.652344 62.636719 14.640625 C 63.59375 15.445312 64.1875 16.492188 64.441406 17.71875 C 64.773438 19.304688 64.640625 20.847656 63.851562 22.292969 C 63.371094 23.179688 62.675781 23.855469 61.804688 24.386719 M 56.90625 16.328125 C 56.90625 18.308594 56.90625 20.289062 56.90625 22.300781 C 57.695312 22.285156 58.464844 22.375 59.214844 22.152344 C 60.078125 21.894531 60.691406 21.359375 60.996094 20.507812 C 61.214844 19.902344 61.234375 19.277344 61.164062 18.640625 C 61.03125 17.453125 60.289062 16.507812 59.117188 16.265625 C 58.445312 16.125 57.738281 16.148438 57.046875 16.113281 C 57 16.109375 56.953125 16.222656 56.90625 16.328125 Z M 56.90625 16.328125 "/>
<path style=" stroke:none;fill-rule:nonzero;fill:rgb(30.196078%,61.960784%,86.27451%);fill-opacity:1;" d="M 70.648438 13.199219 C 71.507812 13.203125 72.339844 13.230469 73.15625 13.453125 C 74.898438 13.929688 76.019531 15.578125 75.839844 17.378906 C 75.683594 18.980469 74.835938 20.007812 73.332031 20.523438 C 73.3125 20.53125 73.289062 20.546875 73.226562 20.578125 C 74.121094 22.128906 75.015625 23.671875 75.921875 25.25 C 75.824219 25.253906 75.753906 25.261719 75.683594 25.261719 C 74.59375 25.261719 73.503906 25.257812 72.414062 25.265625 C 72.242188 25.269531 72.152344 25.207031 72.074219 25.0625 C 71.351562 23.703125 70.617188 22.351562 69.902344 20.988281 C 69.785156 20.769531 69.632812 20.832031 69.4375 20.832031 C 69.4375 22.304688 69.4375 23.769531 69.4375 25.246094 C 68.308594 25.246094 67.207031 25.246094 66.089844 25.246094 C 66.085938 25.152344 66.082031 25.070312 66.082031 24.992188 C 66.078125 21.160156 66.082031 17.332031 66.074219 13.5 C 66.074219 13.269531 66.125 13.191406 66.371094 13.195312 C 67.789062 13.207031 69.207031 13.199219 70.648438 13.199219 M 71.242188 16.015625 C 70.648438 16.015625 70.054688 16.015625 69.453125 16.015625 C 69.453125 16.855469 69.453125 17.675781 69.453125 18.515625 C 70.070312 18.515625 70.667969 18.527344 71.261719 18.511719 C 72.230469 18.488281 72.765625 17.570312 72.347656 16.691406 C 72.132812 16.234375 71.75 16.066406 71.242188 16.015625 Z M 71.242188 16.015625 "/>
<path style=" stroke:none;fill-rule:nonzero;fill:rgb(21.176471%,40.784314%,87.843137%);fill-opacity:1;" d="M 163.875 13.742188 C 165.269531 17.582031 166.65625 21.40625 168.050781 25.25 C 167.957031 25.257812 167.886719 25.261719 167.816406 25.261719 C 166.792969 25.261719 165.769531 25.257812 164.742188 25.269531 C 164.5625 25.269531 164.484375 25.210938 164.433594 25.042969 C 164.273438 24.519531 164.09375 24.003906 163.933594 23.480469 C 163.890625 23.335938 163.820312 23.289062 163.675781 23.292969 C 162.378906 23.296875 161.085938 23.296875 159.789062 23.289062 C 159.636719 23.289062 159.578125 23.339844 159.535156 23.480469 C 159.347656 24.074219 159.144531 24.660156 158.949219 25.253906 C 157.78125 25.253906 156.628906 25.253906 155.441406 25.253906 C 155.566406 24.894531 155.679688 24.558594 155.804688 24.222656 C 156.636719 21.933594 157.476562 19.644531 158.308594 17.355469 C 158.792969 16.035156 159.277344 14.714844 159.75 13.390625 C 159.804688 13.238281 159.878906 13.199219 160.03125 13.199219 C 161.140625 13.203125 162.246094 13.210938 163.351562 13.195312 C 163.59375 13.191406 163.742188 13.238281 163.785156 13.492188 C 163.800781 13.570312 163.839844 13.644531 163.875 13.742188 M 162.292969 18.496094 C 162.113281 17.960938 161.929688 17.421875 161.730469 16.835938 C 161.296875 18.15625 160.878906 19.429688 160.453125 20.726562 C 161.339844 20.726562 162.171875 20.726562 163.03125 20.726562 C 162.785156 19.984375 162.542969 19.261719 162.292969 18.496094 Z M 162.292969 18.496094 "/>
<path style=" stroke:none;fill-rule:nonzero;fill:rgb(28.235294%,56.862745%,86.666667%);fill-opacity:1;" d="M 93.082031 13.199219 C 93.351562 13.199219 93.601562 13.222656 93.84375 13.195312 C 94.09375 13.167969 94.1875 13.28125 94.261719 13.492188 C 94.550781 14.316406 94.851562 15.136719 95.148438 15.957031 C 96.242188 18.960938 97.332031 21.964844 98.425781 24.972656 C 98.453125 25.054688 98.472656 25.140625 98.503906 25.25 C 98.414062 25.253906 98.34375 25.261719 98.273438 25.261719 C 97.25 25.261719 96.222656 25.257812 95.199219 25.265625 C 95.03125 25.269531 94.957031 25.21875 94.90625 25.058594 C 94.75 24.535156 94.566406 24.019531 94.40625 23.496094 C 94.363281 23.351562 94.304688 23.289062 94.140625 23.289062 C 92.84375 23.296875 91.550781 23.296875 90.253906 23.289062 C 90.097656 23.289062 90.042969 23.351562 90 23.480469 C 89.828125 24.019531 89.652344 24.554688 89.460938 25.089844 C 89.433594 25.160156 89.320312 25.253906 89.25 25.253906 C 88.175781 25.265625 87.101562 25.261719 86.027344 25.257812 C 86.003906 25.257812 85.980469 25.25 85.921875 25.238281 C 86.023438 24.933594 86.125 24.636719 86.230469 24.339844 C 87.351562 21.265625 88.476562 18.195312 89.597656 15.121094 C 89.804688 14.554688 90.019531 13.984375 90.210938 13.414062 C 90.269531 13.238281 90.351562 13.195312 90.527344 13.195312 C 91.371094 13.207031 92.214844 13.199219 93.082031 13.199219 M 91.570312 18.742188 C 91.359375 19.394531 91.144531 20.050781 90.929688 20.71875 C 91.800781 20.71875 92.632812 20.71875 93.496094 20.71875 C 93.070312 19.429688 92.648438 18.167969 92.207031 16.835938 C 91.980469 17.5 91.78125 18.101562 91.570312 18.742188 Z M 91.570312 18.742188 "/>
<path style=" stroke:none;fill-rule:nonzero;fill:rgb(29.411765%,59.607843%,86.666667%);fill-opacity:1;" d="M 77.371094 18.214844 C 77.371094 16.535156 77.371094 14.882812 77.371094 13.214844 C 79.945312 13.214844 82.492188 13.214844 85.054688 13.214844 C 85.054688 14.101562 85.054688 14.984375 85.054688 15.890625 C 83.617188 15.890625 82.1875 15.890625 80.742188 15.890625 C 80.742188 16.554688 80.742188 17.191406 80.742188 17.859375 C 82.007812 17.859375 83.273438 17.859375 84.566406 17.859375 C 84.566406 18.257812 84.566406 18.621094 84.566406 18.988281 C 84.566406 19.382812 84.554688 19.777344 84.570312 20.171875 C 84.574219 20.359375 84.507812 20.402344 84.328125 20.402344 C 83.207031 20.394531 82.082031 20.398438 80.960938 20.398438 C 80.894531 20.398438 80.832031 20.40625 80.746094 20.410156 C 80.746094 21.132812 80.746094 21.847656 80.746094 22.589844 C 82.183594 22.589844 83.613281 22.589844 85.058594 22.589844 C 85.058594 23.488281 85.058594 24.363281 85.058594 25.25 C 82.5 25.25 79.953125 25.25 77.371094 25.25 C 77.371094 22.90625 77.371094 20.574219 77.371094 18.214844 Z M 77.371094 18.214844 "/>
<path style=" stroke:none;fill-rule:nonzero;fill:rgb(25.490196%,50.588235%,87.058824%);fill-opacity:1;" d="M 120.191406 25.261719 C 118.644531 25.261719 117.121094 25.261719 115.582031 25.261719 C 115.582031 21.238281 115.582031 17.230469 115.582031 13.214844 C 118.140625 13.214844 120.683594 13.214844 123.246094 13.214844 C 123.246094 14.105469 123.246094 14.980469 123.246094 15.886719 C 121.808594 15.886719 120.371094 15.886719 118.925781 15.886719 C 118.925781 16.554688 118.925781 17.191406 118.925781 17.855469 C 120.195312 17.855469 121.460938 17.855469 122.742188 17.855469 C 122.742188 18.710938 122.742188 19.535156 122.742188 20.390625 C 121.476562 20.390625 120.210938 20.390625 118.929688 20.390625 C 118.929688 21.136719 118.929688 21.851562 118.929688 22.589844 C 120.371094 22.589844 121.800781 22.589844 123.246094 22.589844 C 123.246094 23.488281 123.246094 24.359375 123.246094 25.261719 C 122.226562 25.261719 121.222656 25.261719 120.191406 25.261719 Z M 120.191406 25.261719 "/>
<path style=" stroke:none;fill-rule:nonzero;fill:rgb(22.745098%,44.313725%,87.843137%);fill-opacity:1;" d="M 148.550781 18.757812 C 148.550781 20.929688 148.550781 23.078125 148.550781 25.242188 C 147.441406 25.242188 146.347656 25.242188 145.214844 25.242188 C 145.214844 25.144531 145.214844 25.042969 145.214844 24.9375 C 145.214844 22.011719 145.210938 19.082031 145.21875 16.15625 C 145.21875 15.9375 145.167969 15.863281 144.9375 15.867188 C 144.066406 15.878906 143.199219 15.871094 142.332031 15.871094 C 142.242188 15.871094 142.152344 15.871094 142.050781 15.871094 C 142.050781 14.976562 142.050781 14.105469 142.050781 13.214844 C 145.289062 13.214844 148.519531 13.214844 151.765625 13.214844 C 151.765625 14.101562 151.765625 14.972656 151.765625 15.867188 C 150.699219 15.867188 149.644531 15.867188 148.550781 15.867188 C 148.550781 16.839844 148.550781 17.785156 148.550781 18.757812 Z M 148.550781 18.757812 "/>
<path style=" stroke:none;fill-rule:nonzero;fill:rgb(23.529412%,46.27451%,87.45098%);fill-opacity:1;" d="M 140.804688 19.347656 C 140.804688 21.324219 140.804688 23.273438 140.804688 25.242188 C 139.6875 25.242188 138.589844 25.242188 137.472656 25.242188 C 137.472656 21.238281 137.472656 17.234375 137.472656 13.21875 C 138.574219 13.21875 139.667969 13.21875 140.804688 13.21875 C 140.804688 15.25 140.804688 17.285156 140.804688 19.347656 Z M 140.804688 19.347656 "/>
<path style=" stroke:none;fill-rule:nonzero;fill:rgb(20.392157%,38.823529%,88.235294%);fill-opacity:1;" d="M 169.136719 22.597656 C 169.136719 19.457031 169.136719 16.34375 169.136719 13.21875 C 170.253906 13.21875 171.351562 13.21875 172.464844 13.21875 C 172.464844 17.214844 172.464844 21.21875 172.464844 25.242188 C 171.371094 25.242188 170.269531 25.242188 169.136719 25.242188 C 169.136719 24.371094 169.136719 23.496094 169.136719 22.597656 Z M 169.136719 22.597656 "/>
<path style=" stroke:none;fill-rule:nonzero;fill:rgb(2.352941%,0.392157%,0.392157%);fill-opacity:1;" d="M 161.796875 31.230469 C 162.167969 31.796875 162.527344 32.351562 162.921875 32.953125 C 162.921875 31.6875 162.921875 30.484375 162.921875 29.257812 C 163.417969 29.257812 163.894531 29.257812 164.386719 29.257812 C 164.386719 31.25 164.386719 33.242188 164.386719 35.25 C 163.925781 35.25 163.476562 35.257812 163.027344 35.242188 C 162.957031 35.238281 162.867188 35.144531 162.820312 35.070312 C 162.054688 33.921875 161.292969 32.765625 160.5 31.566406 C 160.5 32.816406 160.5 34.019531 160.5 35.234375 C 159.996094 35.234375 159.515625 35.234375 159.027344 35.234375 C 159.027344 33.246094 159.027344 31.265625 159.027344 29.246094 C 159.492188 29.246094 159.964844 29.238281 160.433594 29.25 C 160.488281 29.253906 160.550781 29.351562 160.59375 29.414062 C 160.992188 30.015625 161.386719 30.617188 161.796875 31.230469 Z M 161.796875 31.230469 "/>
<path style=" stroke:none;fill-rule:nonzero;fill:rgb(2.352941%,0.392157%,0.392157%);fill-opacity:1;" d="M 77.558594 33.328125 C 77.558594 31.960938 77.558594 30.617188 77.558594 29.242188 C 78.03125 29.242188 78.484375 29.238281 78.941406 29.25 C 79 29.25 79.074219 29.332031 79.113281 29.390625 C 79.867188 30.53125 80.617188 31.671875 81.367188 32.8125 C 81.386719 32.84375 81.410156 32.875 81.464844 32.945312 C 81.464844 31.6875 81.464844 30.480469 81.464844 29.257812 C 81.960938 29.257812 82.4375 29.257812 82.929688 29.257812 C 82.929688 31.25 82.929688 33.238281 82.929688 35.25 C 82.46875 35.25 82.023438 35.257812 81.574219 35.242188 C 81.5 35.238281 81.414062 35.148438 81.363281 35.078125 C 80.628906 33.976562 79.902344 32.867188 79.171875 31.761719 C 79.136719 31.710938 79.097656 31.664062 79.027344 31.570312 C 79.027344 32.824219 79.027344 34.023438 79.027344 35.238281 C 78.535156 35.238281 78.0625 35.238281 77.558594 35.238281 C 77.558594 34.609375 77.558594 33.980469 77.558594 33.328125 Z M 77.558594 33.328125 "/>
<path style=" stroke:none;fill-rule:nonzero;fill:rgb(2.352941%,0.392157%,0.392157%);fill-opacity:1;" d="M 113.699219 35.203125 C 112.753906 35.207031 111.828125 35.207031 110.886719 35.207031 C 110.886719 33.253906 110.886719 31.265625 110.886719 29.273438 C 110.890625 29.269531 110.902344 29.25 110.914062 29.25 C 111.839844 29.261719 112.773438 29.203125 113.6875 29.304688 C 116.039062 29.570312 116.722656 31.929688 115.960938 33.59375 C 115.523438 34.558594 114.726562 35.027344 113.699219 35.203125 M 114.054688 33.71875 C 114.148438 33.640625 114.253906 33.574219 114.335938 33.484375 C 114.800781 32.96875 114.828125 32.347656 114.707031 31.714844 C 114.609375 31.222656 114.3125 30.871094 113.847656 30.660156 C 113.355469 30.4375 112.84375 30.515625 112.335938 30.5 C 112.335938 31.671875 112.335938 32.824219 112.335938 33.980469 C 112.917969 33.960938 113.5 34.058594 114.054688 33.71875 Z M 114.054688 33.71875 "/>
<path style=" stroke:none;fill-rule:nonzero;fill:rgb(2.745098%,0.784314%,0.784314%);fill-opacity:1;" d="M 174.695312 32.394531 C 174.695312 31.335938 174.695312 30.304688 174.695312 29.257812 C 174.761719 29.253906 174.824219 29.242188 174.886719 29.242188 C 175.773438 29.257812 176.664062 29.207031 177.535156 29.304688 C 179.332031 29.511719 180.304688 30.992188 180.042969 32.769531 C 179.828125 34.222656 178.773438 35.136719 177.246094 35.226562 C 176.40625 35.277344 175.5625 35.234375 174.695312 35.234375 C 174.695312 34.296875 174.695312 33.359375 174.695312 32.394531 M 177.027344 33.96875 C 177.464844 33.945312 177.871094 33.824219 178.171875 33.492188 C 178.660156 32.949219 178.746094 31.898438 178.363281 31.265625 C 178.269531 31.109375 178.136719 30.964844 177.996094 30.847656 C 177.453125 30.398438 176.804688 30.511719 176.164062 30.503906 C 176.164062 31.671875 176.164062 32.8125 176.164062 33.972656 C 176.445312 33.972656 176.710938 33.972656 177.027344 33.96875 Z M 177.027344 33.96875 "/>
<path style=" stroke:none;fill-rule:nonzero;fill:rgb(2.745098%,0.784314%,0.784314%);fill-opacity:1;" d="M 72.15625 34.921875 C 71.453125 34.503906 70.960938 33.9375 70.738281 33.160156 C 70.167969 31.171875 71.464844 29.339844 73.398438 29.179688 C 75.027344 29.042969 76.507812 30.070312 76.726562 31.800781 C 76.941406 33.496094 75.917969 34.957031 74.261719 35.25 C 73.527344 35.378906 72.832031 35.277344 72.15625 34.921875 M 75.246094 32.523438 C 75.253906 32.472656 75.257812 32.425781 75.261719 32.375 C 75.324219 31.601562 74.976562 30.898438 74.382812 30.632812 C 73.777344 30.355469 72.851562 30.46875 72.429688 31.097656 C 72.097656 31.585938 72.046875 32.117188 72.140625 32.664062 C 72.242188 33.242188 72.550781 33.691406 73.144531 33.882812 C 74.027344 34.167969 75.046875 33.789062 75.246094 32.523438 Z M 75.246094 32.523438 "/>
<path style=" stroke:none;fill-rule:nonzero;fill:rgb(2.745098%,0.784314%,0.784314%);fill-opacity:1;" d="M 146.863281 29.1875 C 147.488281 29.125 148.074219 29.1875 148.628906 29.441406 C 149.472656 29.828125 150.007812 30.476562 150.261719 31.367188 C 150.609375 32.582031 150.199219 33.886719 149.21875 34.671875 C 148.132812 35.542969 146.378906 35.484375 145.3125 34.601562 C 144.046875 33.554688 143.886719 31.5625 144.867188 30.316406 C 145.371094 29.683594 146.039062 29.316406 146.863281 29.1875 M 148.523438 31.046875 C 147.992188 30.386719 146.929688 30.28125 146.292969 30.839844 C 145.6875 31.378906 145.628906 32.074219 145.800781 32.800781 C 146.121094 34.167969 147.707031 34.210938 148.367188 33.582031 C 148.972656 33.011719 149.074219 31.785156 148.523438 31.046875 Z M 148.523438 31.046875 "/>
<path style=" stroke:none;fill-rule:nonzero;fill:rgb(2.745098%,0.784314%,0.784314%);fill-opacity:1;" d="M 124.851562 33.878906 C 124.203125 32.664062 124.21875 31.488281 125.011719 30.363281 C 125.480469 29.703125 126.15625 29.332031 126.953125 29.203125 C 127.769531 29.074219 128.546875 29.21875 129.242188 29.6875 C 129.96875 30.179688 130.394531 30.878906 130.511719 31.746094 C 130.625 32.605469 130.472656 33.421875 129.921875 34.125 C 129.1875 35.066406 128.203125 35.414062 127.042969 35.269531 C 126.109375 35.15625 125.375 34.691406 124.851562 33.878906 M 126.050781 33.046875 C 126.472656 34.148438 127.949219 34.21875 128.601562 33.519531 C 129.023438 33.066406 129.105469 32.503906 129.035156 31.917969 C 128.964844 31.300781 128.675781 30.804688 128.070312 30.59375 C 127.449219 30.378906 126.824219 30.425781 126.351562 30.941406 C 125.800781 31.546875 125.796875 32.265625 126.050781 33.046875 Z M 126.050781 33.046875 "/>
<path style=" stroke:none;fill-rule:nonzero;fill:rgb(2.352941%,0.784314%,0.784314%);fill-opacity:1;" d="M 136.007812 30.988281 C 136.054688 31.761719 135.699219 32.53125 134.6875 32.875 C 135.144531 33.65625 135.59375 34.4375 136.066406 35.25 C 135.523438 35.25 135.015625 35.253906 134.511719 35.242188 C 134.453125 35.242188 134.378906 35.167969 134.34375 35.109375 C 133.992188 34.484375 133.628906 33.863281 133.308594 33.222656 C 133.195312 32.992188 133.0625 32.949219 132.832031 33.003906 C 132.832031 33.738281 132.832031 34.480469 132.832031 35.234375 C 132.335938 35.234375 131.867188 35.234375 131.375 35.234375 C 131.375 33.25 131.375 31.257812 131.375 29.292969 C 132.367188 29.292969 133.355469 29.246094 134.339844 29.304688 C 135.242188 29.363281 135.929688 30.015625 136.007812 30.988281 M 134.351562 31.710938 C 134.566406 31.453125 134.566406 31.164062 134.460938 30.863281 C 134.367188 30.601562 134.144531 30.492188 133.890625 30.476562 C 133.542969 30.457031 133.191406 30.472656 132.835938 30.472656 C 132.835938 30.96875 132.835938 31.449219 132.835938 31.941406 C 133.203125 31.941406 133.5625 31.957031 133.917969 31.929688 C 134.058594 31.921875 134.1875 31.808594 134.351562 31.710938 Z M 134.351562 31.710938 "/>
<path style=" stroke:none;fill-rule:nonzero;fill:rgb(2.352941%,0.392157%,0.392157%);fill-opacity:1;" d="M 63.367188 31.605469 C 63.367188 32.828125 63.367188 34.023438 63.367188 35.234375 C 62.878906 35.234375 62.402344 35.234375 61.902344 35.234375 C 61.902344 34.421875 61.902344 33.613281 61.902344 32.792969 C 61.144531 32.792969 60.402344 32.792969 59.640625 32.792969 C 59.640625 33.59375 59.640625 34.402344 59.640625 35.230469 C 59.15625 35.230469 58.683594 35.230469 58.195312 35.230469 C 58.195312 33.246094 58.195312 31.253906 58.195312 29.25 C 58.664062 29.25 59.132812 29.25 59.621094 29.25 C 59.621094 30.023438 59.621094 30.796875 59.621094 31.585938 C 60.386719 31.585938 61.128906 31.585938 61.886719 31.585938 C 61.886719 30.816406 61.886719 30.046875 61.886719 29.261719 C 62.382812 29.261719 62.863281 29.261719 63.367188 29.261719 C 63.367188 30.03125 63.367188 30.804688 63.367188 31.605469 Z M 63.367188 31.605469 "/>
<path style=" stroke:none;fill-rule:nonzero;fill:rgb(2.745098%,0.784314%,0.784314%);fill-opacity:1;" d="M 96.070312 32.914062 C 96.292969 32.285156 96.507812 31.671875 96.730469 31.0625 C 96.945312 30.457031 97.167969 29.859375 97.390625 29.25 C 97.949219 29.25 98.503906 29.25 99.082031 29.25 C 99.441406 30.238281 99.800781 31.234375 100.160156 32.230469 C 100.519531 33.226562 100.882812 34.226562 101.25 35.25 C 100.757812 35.25 100.277344 35.253906 99.800781 35.242188 C 99.753906 35.242188 99.6875 35.167969 99.667969 35.113281 C 99.574219 34.867188 99.484375 34.621094 99.410156 34.371094 C 99.371094 34.242188 99.3125 34.1875 99.167969 34.1875 C 98.539062 34.195312 97.90625 34.195312 97.277344 34.1875 C 97.128906 34.183594 97.078125 34.242188 97.039062 34.367188 C 96.949219 34.660156 96.847656 34.949219 96.75 35.242188 C 96.25 35.242188 95.757812 35.242188 95.21875 35.242188 C 95.503906 34.460938 95.78125 33.695312 96.070312 32.914062 M 97.683594 32.492188 C 97.625 32.671875 97.566406 32.851562 97.507812 33.039062 C 98.003906 33.039062 98.472656 33.039062 98.964844 33.039062 C 98.71875 32.316406 98.480469 31.617188 98.222656 30.863281 C 98.039062 31.433594 97.867188 31.945312 97.683594 32.492188 Z M 97.683594 32.492188 "/>
<path style=" stroke:none;fill-rule:nonzero;fill:rgb(2.352941%,0.392157%,0.392157%);fill-opacity:1;" d="M 154.882812 29.242188 C 155.324219 29.242188 155.742188 29.242188 156.15625 29.242188 C 156.171875 29.261719 156.191406 29.277344 156.191406 29.289062 C 156.1875 30.511719 156.195312 31.730469 156.179688 32.953125 C 156.15625 34.445312 155.042969 35.324219 153.605469 35.300781 C 152.75 35.289062 152.019531 35.007812 151.53125 34.257812 C 151.230469 33.792969 151.167969 33.265625 151.164062 32.730469 C 151.15625 31.597656 151.160156 30.464844 151.164062 29.335938 C 151.164062 29.3125 151.171875 29.289062 151.179688 29.253906 C 151.652344 29.253906 152.125 29.253906 152.621094 29.253906 C 152.621094 29.335938 152.621094 29.414062 152.621094 29.496094 C 152.621094 30.5625 152.621094 31.628906 152.621094 32.695312 C 152.621094 32.832031 152.632812 32.972656 152.65625 33.109375 C 152.714844 33.5 152.894531 33.804688 153.304688 33.902344 C 153.769531 34.015625 154.230469 33.988281 154.515625 33.5625 C 154.65625 33.347656 154.714844 33.042969 154.71875 32.777344 C 154.742188 31.671875 154.726562 30.5625 154.730469 29.457031 C 154.730469 29.367188 154.664062 29.222656 154.882812 29.242188 Z M 154.882812 29.242188 "/>
<path style=" stroke:none;fill-rule:nonzero;fill:rgb(2.352941%,0.392157%,0.392157%);fill-opacity:1;" d="M 107.253906 29.242188 C 108.144531 29.242188 109.011719 29.242188 109.894531 29.242188 C 109.894531 29.632812 109.894531 30.015625 109.894531 30.410156 C 109.167969 30.410156 108.449219 30.410156 107.71875 30.410156 C 107.71875 30.820312 107.71875 31.207031 107.71875 31.625 C 108.359375 31.625 109 31.625 109.652344 31.625 C 109.652344 32.011719 109.652344 32.367188 109.652344 32.757812 C 109.011719 32.757812 108.371094 32.757812 107.714844 32.757812 C 107.714844 33.210938 107.714844 33.632812 107.714844 34.074219 C 108.445312 34.074219 109.160156 34.074219 109.894531 34.074219 C 109.894531 34.464844 109.894531 34.839844 109.894531 35.230469 C 108.695312 35.230469 107.488281 35.230469 106.261719 35.230469 C 106.261719 33.253906 106.261719 31.265625 106.261719 29.242188 C 106.578125 29.242188 106.902344 29.242188 107.253906 29.242188 Z M 107.253906 29.242188 "/>
<path style=" stroke:none;fill-rule:nonzero;fill:rgb(2.745098%,0.784314%,0.784314%);fill-opacity:1;" d="M 65.875 33.867188 C 65.875 33.945312 65.875 34 65.875 34.070312 C 66.613281 34.070312 67.332031 34.070312 68.070312 34.070312 C 68.070312 34.460938 68.070312 34.839844 68.070312 35.234375 C 66.863281 35.234375 65.648438 35.234375 64.417969 35.234375 C 64.417969 33.246094 64.417969 31.265625 64.417969 29.261719 C 65.628906 29.261719 66.847656 29.261719 68.078125 29.261719 C 68.078125 29.632812 68.078125 30.015625 68.078125 30.40625 C 67.351562 30.40625 66.632812 30.40625 65.894531 30.40625 C 65.894531 30.816406 65.894531 31.210938 65.894531 31.625 C 66.53125 31.625 67.164062 31.625 67.820312 31.625 C 67.820312 32.003906 67.820312 32.367188 67.820312 32.75 C 67.183594 32.75 66.546875 32.75 65.875 32.75 C 65.875 33.128906 65.875 33.484375 65.875 33.867188 Z M 65.875 33.867188 "/>
<path style=" stroke:none;fill-rule:nonzero;fill:rgb(2.745098%,0.784314%,0.784314%);fill-opacity:1;" d="M 166.042969 35.25 C 165.839844 35.25 165.660156 35.25 165.46875 35.25 C 165.46875 33.25 165.46875 31.261719 165.46875 29.257812 C 166.675781 29.257812 167.890625 29.257812 169.121094 29.257812 C 169.121094 29.628906 169.121094 30.003906 169.121094 30.402344 C 168.398438 30.402344 167.675781 30.402344 166.9375 30.402344 C 166.9375 30.824219 166.9375 31.21875 166.9375 31.628906 C 167.574219 31.628906 168.203125 31.628906 168.851562 31.628906 C 168.851562 32.003906 168.851562 32.367188 168.851562 32.753906 C 168.222656 32.753906 167.585938 32.753906 166.9375 32.753906 C 166.9375 33.195312 166.9375 33.621094 166.9375 34.066406 C 167.652344 34.066406 168.378906 34.066406 169.117188 34.066406 C 169.117188 34.464844 169.117188 34.839844 169.117188 35.25 C 168.109375 35.25 167.089844 35.25 166.042969 35.25 Z M 166.042969 35.25 "/>
<path style=" stroke:none;fill-rule:nonzero;fill:rgb(2.352941%,0.392157%,0.392157%);fill-opacity:1;" d="M 170.078125 29.304688 C 170.125 29.265625 170.167969 29.246094 170.214844 29.246094 C 171.351562 29.242188 172.492188 29.242188 173.632812 29.242188 C 173.664062 29.242188 173.695312 29.25 173.734375 29.257812 C 173.734375 29.640625 173.734375 30.011719 173.734375 30.410156 C 173.003906 30.410156 172.277344 30.410156 171.542969 30.410156 C 171.542969 30.824219 171.542969 31.210938 171.542969 31.621094 C 172.1875 31.621094 172.824219 31.621094 173.476562 31.621094 C 173.476562 32.003906 173.476562 32.367188 173.476562 32.761719 C 172.835938 32.761719 172.195312 32.761719 171.542969 32.761719 C 171.542969 33.207031 171.542969 33.621094 171.542969 34.0625 C 172.261719 34.0625 172.984375 34.0625 173.726562 34.0625 C 173.726562 34.46875 173.726562 34.851562 173.726562 35.242188 C 172.519531 35.242188 171.316406 35.242188 170.078125 35.242188 C 170.078125 33.273438 170.078125 31.300781 170.078125 29.304688 Z M 170.078125 29.304688 "/>
<path style=" stroke:none;fill-rule:nonzero;fill:rgb(2.352941%,0.392157%,0.392157%);fill-opacity:1;" d="M 141.132812 31.660156 C 141.480469 30.914062 141.824219 30.183594 142.148438 29.445312 C 142.214844 29.300781 142.273438 29.230469 142.445312 29.238281 C 142.914062 29.253906 143.378906 29.242188 143.886719 29.242188 C 143.796875 29.417969 143.714844 29.574219 143.636719 29.730469 C 143.0625 30.839844 142.484375 31.953125 141.914062 33.066406 C 141.851562 33.183594 141.820312 33.328125 141.816406 33.460938 C 141.808594 34.050781 141.8125 34.640625 141.8125 35.238281 C 141.320312 35.238281 140.851562 35.238281 140.355469 35.238281 C 140.355469 34.671875 140.332031 34.105469 140.363281 33.546875 C 140.378906 33.226562 140.207031 33.003906 140.082031 32.753906 C 139.496094 31.613281 138.90625 30.476562 138.316406 29.335938 C 138.308594 29.316406 138.304688 29.292969 138.292969 29.242188 C 138.808594 29.242188 139.316406 29.238281 139.820312 29.25 C 139.878906 29.25 139.964844 29.339844 139.996094 29.40625 C 140.332031 30.105469 140.652344 30.808594 140.984375 31.511719 C 141.011719 31.574219 141.074219 31.621094 141.132812 31.660156 Z M 141.132812 31.660156 "/>
<path style=" stroke:none;fill-rule:nonzero;fill:rgb(2.352941%,0.392157%,0.392157%);fill-opacity:1;" d="M 89.679688 33.402344 C 89.597656 33.179688 89.523438 32.972656 89.425781 32.78125 C 88.839844 31.640625 88.25 30.5 87.660156 29.363281 C 87.644531 29.335938 87.632812 29.304688 87.601562 29.242188 C 88.140625 29.242188 88.652344 29.238281 89.160156 29.25 C 89.222656 29.253906 89.300781 29.351562 89.332031 29.421875 C 89.652344 30.097656 89.964844 30.78125 90.28125 31.460938 C 90.316406 31.539062 90.363281 31.613281 90.425781 31.734375 C 90.820312 30.882812 91.195312 30.0625 91.570312 29.246094 C 92.109375 29.246094 92.640625 29.246094 93.210938 29.246094 C 93.097656 29.460938 92.988281 29.65625 92.886719 29.855469 C 92.328125 30.9375 91.769531 32.023438 91.214844 33.109375 C 91.167969 33.207031 91.144531 33.328125 91.144531 33.4375 C 91.136719 34.035156 91.140625 34.628906 91.140625 35.238281 C 90.648438 35.238281 90.175781 35.238281 89.679688 35.238281 C 89.679688 34.628906 89.679688 34.027344 89.679688 33.402344 Z M 89.679688 33.402344 "/>
<path style=" stroke:none;fill-rule:nonzero;fill:rgb(2.352941%,0.392157%,0.392157%);fill-opacity:1;" d="M 52.796875 29.402344 C 52.777344 29.191406 52.917969 29.246094 53.011719 29.246094 C 54.273438 29.242188 55.535156 29.242188 56.796875 29.242188 C 57 29.242188 57.207031 29.242188 57.425781 29.242188 C 57.425781 29.632812 57.425781 30.015625 57.425781 30.414062 C 56.902344 30.414062 56.390625 30.414062 55.859375 30.414062 C 55.859375 32.027344 55.859375 33.621094 55.859375 35.234375 C 55.363281 35.234375 54.886719 35.234375 54.390625 35.234375 C 54.390625 33.632812 54.390625 32.035156 54.390625 30.421875 C 53.859375 30.421875 53.34375 30.421875 52.796875 30.421875 C 52.796875 30.074219 52.796875 29.75 52.796875 29.402344 Z M 52.796875 29.402344 "/>
<path style=" stroke:none;fill-rule:nonzero;fill:rgb(2.352941%,0.392157%,0.392157%);fill-opacity:1;" d="M 119.945312 29.242188 C 121.273438 29.242188 122.574219 29.242188 123.890625 29.242188 C 123.890625 29.632812 123.890625 30.015625 123.890625 30.414062 C 123.371094 30.414062 122.855469 30.414062 122.328125 30.414062 C 122.328125 32.027344 122.328125 33.621094 122.328125 35.234375 C 121.832031 35.234375 121.355469 35.234375 120.855469 35.234375 C 120.855469 33.632812 120.855469 32.039062 120.855469 30.421875 C 120.324219 30.421875 119.8125 30.421875 119.28125 30.421875 C 119.28125 30.027344 119.28125 29.65625 119.28125 29.242188 C 119.488281 29.242188 119.703125 29.242188 119.945312 29.242188 Z M 119.945312 29.242188 "/>
<path style=" stroke:none;fill-rule:nonzero;fill:rgb(2.745098%,0.784314%,0.784314%);fill-opacity:1;" d="M 84.234375 35.25 C 84.148438 35.25 84.082031 35.25 84.003906 35.25 C 84.003906 33.246094 84.003906 31.257812 84.003906 29.257812 C 84.480469 29.257812 84.949219 29.257812 85.441406 29.257812 C 85.441406 30.859375 85.441406 32.472656 85.441406 34.105469 C 86.085938 34.105469 86.714844 34.105469 87.355469 34.105469 C 87.355469 34.496094 87.355469 34.859375 87.355469 35.25 C 86.320312 35.25 85.289062 35.25 84.234375 35.25 Z M 84.234375 35.25 "/>
<path style=" stroke:none;fill-rule:nonzero;fill:rgb(3.137255%,1.568627%,1.568627%);fill-opacity:1;" d="M 102.578125 35.25 C 102.34375 35.25 102.132812 35.25 101.914062 35.25 C 101.914062 33.242188 101.914062 31.261719 101.914062 29.261719 C 102.386719 29.261719 102.867188 29.261719 103.355469 29.261719 C 103.355469 31.246094 103.355469 33.234375 103.355469 35.25 C 103.105469 35.25 102.855469 35.25 102.578125 35.25 Z M 102.578125 35.25 "/>
<path style=" stroke:none;fill-rule:nonzero;fill:rgb(1.960784%,0%,0%);fill-opacity:1;" d="M 117.148438 35.246094 C 117.109375 35.195312 117.082031 35.144531 117.082031 35.09375 C 117.078125 33.175781 117.078125 31.257812 117.078125 29.339844 C 117.078125 29.316406 117.085938 29.292969 117.089844 29.257812 C 117.5625 29.257812 118.035156 29.257812 118.519531 29.257812 C 118.519531 31.25 118.519531 33.238281 118.519531 35.25 C 118.070312 35.25 117.621094 35.25 117.148438 35.246094 Z M 117.148438 35.246094 "/>
<path style=" stroke:none;fill-rule:nonzero;fill:rgb(100%,100%,100%);fill-opacity:1;" d="M 23.820312 29.902344 C 23.753906 29.566406 23.664062 29.234375 23.632812 28.894531 C 23.617188 28.710938 23.671875 28.507812 23.734375 28.328125 C 24.160156 27.148438 24.601562 25.96875 25.03125 24.789062 C 25.367188 23.878906 25.695312 22.964844 26.027344 22.054688 C 26.066406 21.949219 26.140625 21.855469 26.179688 21.75 C 26.253906 21.546875 26.339844 21.339844 26.375 21.128906 C 26.453125 20.621094 26.53125 20.109375 26.5625 19.597656 C 26.597656 19.011719 26.570312 18.421875 26.363281 17.859375 C 26.335938 17.777344 26.285156 17.65625 26.226562 17.644531 C 25.980469 17.601562 25.984375 17.429688 25.960938 17.246094 C 25.890625 16.703125 25.847656 16.15625 25.71875 15.628906 C 25.601562 15.148438 25.402344 14.6875 25.214844 14.230469 C 25.175781 14.140625 25.03125 14.078125 24.921875 14.035156 C 24.8125 13.992188 24.6875 13.984375 24.539062 13.957031 C 24.546875 13.804688 24.546875 13.648438 24.566406 13.496094 C 24.617188 13.089844 24.496094 12.9375 24.078125 12.902344 C 23.882812 12.886719 23.691406 12.882812 23.484375 12.871094 C 23.5 12.769531 23.511719 12.699219 23.527344 12.605469 C 23.390625 12.605469 23.265625 12.605469 23.128906 12.605469 C 23.15625 12.882812 22.996094 12.90625 22.78125 12.902344 C 22.285156 12.890625 22.273438 12.898438 22.289062 12.402344 C 22.3125 11.699219 22.015625 11.1875 21.398438 10.871094 C 20.808594 10.574219 20.230469 10.632812 19.679688 10.992188 C 19.367188 11.199219 19.257812 11.519531 19.183594 11.859375 C 19.113281 12.203125 19.089844 12.5625 18.792969 12.808594 C 18.707031 12.878906 18.617188 12.953125 18.519531 12.992188 C 18.167969 13.128906 18.003906 13.371094 17.957031 13.75 C 17.90625 14.132812 17.816406 14.519531 17.675781 14.878906 C 17.589844 15.105469 17.382812 15.28125 17.214844 15.472656 C 17.183594 15.503906 17.097656 15.5 17.039062 15.492188 C 16.296875 15.417969 15.863281 15.644531 15.507812 16.292969 C 15.160156 16.925781 14.8125 17.558594 14.464844 18.191406 C 14.136719 18.785156 14.101562 19.367188 14.492188 19.945312 C 14.792969 20.386719 15.125 20.511719 15.632812 20.359375 C 15.8125 20.308594 15.984375 20.242188 16.164062 20.183594 C 16.433594 20.101562 16.496094 20.152344 16.464844 20.425781 C 16.382812 21.160156 16.300781 21.890625 16.214844 22.621094 C 16.046875 24.027344 15.875 25.433594 15.699219 26.835938 C 15.675781 27.015625 15.703125 27.132812 15.890625 27.1875 C 16.046875 27.230469 16.070312 27.351562 16.0625 27.496094 C 16.042969 27.742188 16.050781 27.984375 16.027344 28.230469 C 16.003906 28.492188 15.964844 28.757812 15.921875 29.023438 C 15.871094 29.3125 15.808594 29.597656 15.726562 29.90625 C 15.382812 29.996094 15.066406 30.070312 14.746094 30.136719 C 14.566406 30.171875 14.363281 30.253906 14.199219 30.207031 C 13.828125 30.109375 13.476562 29.933594 13.105469 29.8125 C 12.917969 29.75 12.699219 29.683594 12.519531 29.722656 C 11.941406 29.851562 11.378906 30.035156 10.804688 30.183594 C 10.503906 30.261719 10.191406 30.351562 9.882812 30.363281 C 9.503906 30.375 9.125 30.308594 8.75 30.273438 C 8.539062 29.6875 8.296875 29.109375 8.128906 28.507812 C 7.542969 26.394531 7.4375 24.234375 7.683594 22.0625 C 7.890625 20.226562 8.394531 18.464844 9.195312 16.789062 C 9.859375 15.390625 10.679688 14.101562 11.679688 12.921875 C 13.292969 11.027344 15.253906 9.59375 17.488281 8.535156 C 19.09375 7.773438 20.785156 7.289062 22.558594 7.074219 C 24.398438 6.847656 26.230469 6.863281 28.054688 7.1875 C 29.976562 7.53125 31.78125 8.210938 33.480469 9.160156 C 34.949219 9.980469 36.261719 11.007812 37.429688 12.21875 C 38.566406 13.398438 39.507812 14.71875 40.246094 16.179688 C 41.027344 17.722656 41.648438 19.324219 41.941406 21.027344 C 42.339844 23.304688 42.363281 25.585938 41.808594 27.851562 C 41.722656 28.214844 41.613281 28.578125 41.488281 28.929688 C 41.457031 28.855469 41.4375 28.789062 41.433594 28.726562 C 41.242188 26.660156 40.296875 25.003906 38.636719 23.785156 C 37.328125 22.820312 35.839844 22.410156 34.210938 22.558594 C 33.066406 22.660156 32.003906 23.019531 31.066406 23.679688 C 29.96875 24.449219 29.125 25.4375 28.613281 26.699219 C 28.1875 27.75 28.011719 28.832031 28.117188 29.96875 C 27.347656 30.0625 26.597656 30.148438 25.835938 30.222656 C 25.175781 29.96875 24.523438 29.769531 23.820312 29.902344 Z M 23.820312 29.902344 "/>
<path style=" stroke:none;fill-rule:nonzero;fill:rgb(90.196078%,18.431373%,13.72549%);fill-opacity:1;" d="M 23.8125 29.921875 C 24.523438 29.769531 25.175781 29.96875 25.824219 30.234375 C 25.726562 30.308594 25.625 30.351562 25.523438 30.394531 C 25.527344 30.410156 25.53125 30.421875 25.539062 30.4375 C 28.148438 30.4375 30.757812 30.4375 33.367188 30.4375 C 33.289062 30.335938 33.195312 30.273438 33.09375 30.238281 C 32.398438 30.003906 31.699219 29.777344 31.003906 29.546875 C 30.691406 29.445312 30.390625 29.46875 30.070312 29.550781 C 29.433594 29.714844 28.785156 29.828125 28.140625 29.964844 C 28.011719 28.832031 28.1875 27.75 28.613281 26.699219 C 29.125 25.4375 29.96875 24.449219 31.066406 23.679688 C 32.003906 23.019531 33.066406 22.660156 34.210938 22.558594 C 35.839844 22.410156 37.328125 22.820312 38.636719 23.785156 C 40.296875 25.003906 41.242188 26.660156 41.433594 28.726562 C 41.4375 28.789062 41.457031 28.855469 41.472656 28.9375 C 41.46875 29.234375 41.328125 29.40625 41.078125 29.519531 C 40.527344 29.769531 39.984375 30.035156 39.441406 30.296875 C 39.382812 30.324219 39.332031 30.359375 39.28125 30.449219 C 39.804688 30.449219 40.324219 30.449219 40.898438 30.449219 C 40.667969 30.929688 40.476562 31.355469 40.261719 31.773438 C 39.78125 32.695312 39.21875 33.5625 38.574219 34.378906 C 38.371094 34.632812 38.183594 34.90625 37.949219 35.132812 C 37.789062 35.292969 37.566406 35.386719 37.335938 35.53125 C 37.292969 35.394531 37.261719 35.289062 37.226562 35.183594 C 37.101562 35.195312 37.101562 35.195312 36.9375 35.523438 C 36.914062 35.398438 36.894531 35.308594 36.871094 35.183594 C 36.664062 35.167969 36.449219 35.15625 36.3125 35.148438 C 36.179688 35.277344 36.097656 35.359375 36.015625 35.445312 C 35.949219 35.328125 35.882812 35.210938 35.785156 35.039062 C 35.707031 35.054688 35.527344 35.039062 35.449219 35.121094 C 35.375 35.203125 35.410156 35.382812 35.394531 35.535156 C 35.195312 35.535156 35.007812 35.535156 34.785156 35.535156 C 34.777344 35.308594 34.75 35.066406 34.757812 34.828125 C 34.761719 34.648438 34.710938 34.585938 34.523438 34.585938 C 33.890625 34.585938 33.902344 34.582031 33.878906 35.207031 C 33.875 35.339844 34 35.582031 33.691406 35.59375 C 33.5625 35.601562 33.488281 35.5625 33.496094 35.417969 C 33.5 35.347656 33.496094 35.273438 33.496094 35.199219 C 33.5 35.050781 33.429688 34.988281 33.285156 35.003906 C 33.210938 35.007812 33.136719 35.015625 33.0625 35.007812 C 32.917969 35 32.859375 35.054688 32.859375 35.207031 C 32.859375 35.328125 32.929688 35.511719 32.71875 35.53125 C 32.699219 35.53125 32.648438 35.3125 32.628906 35.195312 C 32.613281 35.117188 32.625 35.03125 32.621094 34.949219 C 32.609375 34.597656 32.609375 34.589844 32.265625 34.574219 C 32.082031 34.5625 31.898438 34.585938 31.6875 34.597656 C 31.6875 34.960938 31.6875 35.292969 31.6875 35.625 C 31.667969 35.628906 31.648438 35.628906 31.625 35.632812 C 31.617188 35.566406 31.605469 35.503906 31.605469 35.441406 C 31.601562 34.226562 31.601562 33.011719 31.605469 31.800781 C 31.605469 31.582031 31.542969 31.496094 31.308594 31.511719 C 30.976562 31.53125 30.640625 31.515625 30.289062 31.515625 C 30.289062 31.894531 30.289062 32.214844 30.289062 32.53125 C 30.289062 33.515625 30.289062 34.5 30.289062 35.484375 C 30.289062 35.691406 30.28125 35.683594 30.089844 35.8125 C 30.039062 35.84375 30.027344 35.9375 29.953125 36.09375 C 29.820312 36.011719 29.71875 35.949219 29.617188 35.886719 C 29.667969 35.851562 29.71875 35.816406 29.769531 35.78125 C 29.6875 35.929688 29.601562 36.074219 29.519531 36.222656 C 29.445312 36.167969 29.371094 36.117188 29.257812 36.039062 C 29.238281 36.042969 29.167969 36.058594 29.097656 36.074219 C 29.089844 36.046875 29.078125 36.023438 29.078125 36.003906 C 29.074219 35.667969 29.074219 35.328125 29.066406 34.992188 C 29.0625 34.796875 28.996094 34.675781 28.753906 34.703125 C 28.53125 34.726562 28.300781 34.707031 28.054688 34.707031 C 28.054688 35.257812 28.054688 35.777344 28.054688 36.300781 C 28.027344 36.300781 28.003906 36.304688 27.980469 36.308594 C 27.964844 36.09375 27.949219 35.882812 27.933594 35.652344 C 27.738281 35.652344 27.554688 35.652344 27.375 35.652344 C 27.328125 36 27.285156 36.332031 27.242188 36.664062 C 27.210938 36.660156 27.179688 36.660156 27.152344 36.65625 C 27.15625 36.5625 27.164062 36.464844 27.171875 36.351562 C 27.117188 36.34375 27.074219 36.332031 27.027344 36.335938 C 26.839844 36.351562 26.726562 36.300781 26.769531 36.078125 C 26.796875 35.90625 26.667969 35.894531 26.550781 35.898438 C 26.402344 35.902344 26.222656 35.851562 26.183594 36.078125 C 26.15625 36.226562 26.121094 36.375 26.039062 36.519531 C 26.019531 36.480469 26.011719 36.421875 25.976562 36.402344 C 25.902344 36.351562 25.816406 36.296875 25.734375 36.292969 C 25.691406 36.292969 25.621094 36.386719 25.597656 36.449219 C 25.550781 36.585938 25.527344 36.726562 25.480469 36.917969 C 25.363281 36.769531 25.277344 36.660156 25.152344 36.5 C 25.0625 36.675781 24.988281 36.816406 24.90625 36.976562 C 24.847656 36.816406 24.792969 36.664062 24.738281 36.515625 C 24.71875 36.519531 24.699219 36.523438 24.683594 36.527344 C 24.628906 36.683594 24.574219 36.84375 24.515625 37 C 24.488281 36.992188 24.460938 36.984375 24.433594 36.980469 C 24.453125 36.765625 24.425781 36.535156 24.496094 36.339844 C 24.652344 35.917969 24.628906 35.507812 24.542969 35.085938 C 24.355469 34.191406 24.1875 33.292969 23.875 32.429688 C 23.8125 32.265625 23.875 32.058594 23.867188 31.875 C 23.847656 31.367188 23.820312 30.859375 23.800781 30.351562 C 23.796875 30.214844 23.804688 30.078125 23.8125 29.921875 M 34.210938 30.4375 C 35.382812 30.4375 36.554688 30.4375 37.722656 30.4375 C 37.730469 30.410156 37.734375 30.382812 37.742188 30.359375 C 37.332031 30.09375 36.933594 29.8125 36.515625 29.570312 C 36.21875 29.398438 35.859375 29.320312 35.554688 29.5 C 35.074219 29.777344 34.632812 30.113281 34.210938 30.4375 Z M 34.210938 30.4375 "/>
<path style=" stroke:none;fill-rule:nonzero;fill:rgb(90.588235%,18.039216%,13.333333%);fill-opacity:1;" d="M 8.75 30.292969 C 9.125 30.308594 9.503906 30.375 9.882812 30.363281 C 10.191406 30.351562 10.503906 30.261719 10.804688 30.183594 C 11.378906 30.035156 11.941406 29.851562 12.519531 29.722656 C 12.699219 29.683594 12.917969 29.75 13.105469 29.8125 C 13.476562 29.933594 13.828125 30.109375 14.199219 30.207031 C 14.363281 30.253906 14.566406 30.171875 14.746094 30.136719 C 15.066406 30.070312 15.382812 29.996094 15.71875 29.925781 C 15.773438 30.589844 15.832031 31.25 15.828125 31.914062 C 15.820312 32.78125 15.761719 33.648438 15.726562 34.515625 C 15.703125 35.046875 15.648438 35.582031 15.675781 36.109375 C 15.691406 36.398438 15.496094 36.507812 15.324219 36.691406 C 15.324219 36.125 15.324219 35.558594 15.324219 34.960938 C 15.089844 34.960938 14.90625 34.960938 14.710938 34.960938 C 14.699219 34.714844 14.6875 34.496094 14.675781 34.257812 C 14.375 34.257812 14.101562 34.257812 13.804688 34.257812 C 13.773438 34.859375 13.992188 35.496094 13.5 35.992188 C 13.46875 35.863281 13.480469 35.6875 13.398438 35.605469 C 13.34375 35.550781 13.15625 35.632812 12.964844 35.71875 C 12.910156 35.578125 12.835938 35.445312 12.800781 35.300781 C 12.769531 35.167969 12.785156 35.023438 12.769531 34.882812 C 12.730469 34.5 12.683594 34.464844 12.273438 34.53125 C 12.167969 34.8125 12.058594 35.097656 11.945312 35.398438 C 11.8125 35.175781 12.050781 34.671875 11.488281 34.769531 C 11.476562 34.730469 11.460938 34.703125 11.457031 34.671875 C 11.4375 34.269531 11.4375 34.273438 11.027344 34.203125 C 10.960938 34.191406 10.882812 34.152344 10.84375 34.101562 C 9.992188 32.921875 9.261719 31.679688 8.75 30.292969 Z M 8.75 30.292969 "/>
<path style=" stroke:none;fill-rule:nonzero;fill:rgb(89.411765%,19.607843%,14.117647%);fill-opacity:1;" d="M 20.21875 30.378906 C 20.433594 30.949219 20.597656 31.542969 20.871094 32.082031 C 21.355469 33.039062 21.449219 34.074219 21.601562 35.101562 C 21.65625 35.46875 21.75 35.832031 21.828125 36.210938 C 21.625 36.207031 21.507812 36.308594 21.492188 36.535156 C 21.488281 36.582031 21.375 36.667969 21.332031 36.65625 C 21.265625 36.640625 21.167969 36.5625 21.164062 36.5 C 21.136719 36.167969 21.132812 35.832031 21.125 35.496094 C 21.121094 35.230469 21.125 34.960938 21.125 34.660156 C 20.820312 34.660156 20.535156 34.648438 20.253906 34.671875 C 20.203125 34.675781 20.132812 34.808594 20.128906 34.886719 C 20.113281 35.132812 20.121094 35.375 20.121094 35.621094 C 19.96875 35.648438 19.835938 35.65625 19.71875 35.703125 C 19.640625 35.734375 19.597656 35.832031 19.53125 35.898438 C 19.25 36.1875 19.363281 36.570312 19.324219 36.914062 C 19.304688 36.914062 19.28125 36.914062 19.257812 36.917969 C 19.242188 36.648438 19.226562 36.378906 19.214844 36.09375 C 18.972656 36.164062 18.792969 36.175781 18.753906 35.894531 C 18.746094 35.851562 18.675781 35.816406 18.578125 35.734375 C 18.578125 35.902344 18.578125 35.988281 18.578125 36.074219 C 18.554688 36.074219 18.535156 36.074219 18.511719 36.074219 C 18.511719 35.914062 18.492188 35.75 18.511719 35.589844 C 18.636719 34.652344 18.765625 33.71875 18.894531 32.78125 C 19 32.027344 19.039062 31.261719 19.347656 30.546875 C 19.386719 30.457031 19.390625 30.355469 19.441406 30.253906 C 19.71875 30.289062 19.96875 30.335938 20.21875 30.378906 Z M 20.21875 30.378906 "/>
<path style=" stroke:none;fill-rule:nonzero;fill:rgb(99.607843%,99.607843%,99.607843%);fill-opacity:1;" d="M 24.996094 23.347656 C 24.515625 24.722656 24.042969 26.078125 23.5625 27.457031 C 23.277344 27.277344 23.230469 27.03125 23.222656 26.761719 C 23.203125 25.960938 23.171875 25.160156 23.167969 24.355469 C 23.15625 23.21875 23.164062 22.085938 23.164062 20.949219 C 23.164062 20.894531 23.167969 20.84375 23.171875 20.777344 C 23.472656 21.007812 23.734375 21.253906 24.035156 21.433594 C 24.429688 21.667969 24.84375 21.867188 25.261719 22.046875 C 25.414062 22.113281 25.429688 22.167969 25.378906 22.296875 C 25.25 22.640625 25.128906 22.984375 24.996094 23.347656 Z M 24.996094 23.347656 "/>
<path style=" stroke:none;fill-rule:nonzero;fill:rgb(98.823529%,98.823529%,98.823529%);fill-opacity:1;" d="M 24.652344 18.128906 C 24.480469 17.890625 24.320312 17.648438 24.164062 17.398438 C 23.777344 16.785156 23.179688 16.484375 22.5 16.410156 C 22.015625 16.355469 21.78125 16.101562 21.597656 15.710938 C 21.519531 15.542969 21.609375 15.476562 21.742188 15.414062 C 21.847656 15.363281 21.949219 15.300781 22.054688 15.246094 C 22.113281 15.21875 22.171875 15.171875 22.230469 15.171875 C 22.917969 15.167969 23.605469 15.171875 24.292969 15.175781 C 24.324219 15.175781 24.351562 15.191406 24.421875 15.210938 C 24.300781 15.402344 24.191406 15.570312 24.082031 15.746094 C 23.539062 15.304688 23.539062 15.304688 23.261719 15.460938 C 23.4375 15.710938 23.601562 15.96875 23.785156 16.210938 C 23.984375 16.480469 24.167969 16.773438 24.414062 16.992188 C 24.789062 17.324219 24.796875 17.699219 24.652344 18.128906 Z M 24.652344 18.128906 "/>
<path style=" stroke:none;fill-rule:nonzero;fill:rgb(96.078431%,95.686275%,95.294118%);fill-opacity:1;" d="M 20.21875 30.359375 C 19.96875 30.335938 19.71875 30.289062 19.453125 30.238281 C 19.503906 29.832031 19.578125 29.433594 19.648438 29.035156 C 19.683594 29.03125 19.722656 29.03125 19.757812 29.027344 C 19.910156 29.464844 20.066406 29.902344 20.21875 30.359375 Z M 20.21875 30.359375 "/>
<path style=" stroke:none;fill-rule:nonzero;fill:rgb(75.686275%,74.901961%,74.117647%);fill-opacity:1;" d="M 19.066406 15.285156 C 19.003906 15.292969 18.957031 15.292969 18.914062 15.292969 C 18.90625 15.277344 18.894531 15.261719 18.886719 15.242188 C 18.984375 15.160156 19.082031 15.082031 19.191406 14.988281 C 19.324219 15.179688 19.210938 15.230469 19.066406 15.285156 Z M 19.066406 15.285156 "/>
<path style=" stroke:none;fill-rule:nonzero;fill:rgb(100%,100%,100%);fill-opacity:1;" d="M 131.953125 17.179688 C 132.773438 18.214844 132.730469 20.242188 132.003906 21.179688 C 131.515625 21.808594 130.871094 22.175781 130.089844 22.246094 C 129.496094 22.296875 128.894531 22.253906 128.277344 22.253906 C 128.277344 20.238281 128.277344 18.1875 128.277344 16.105469 C 129.363281 16.121094 130.464844 15.996094 131.421875 16.6875 C 131.609375 16.828125 131.769531 17.007812 131.953125 17.179688 Z M 131.953125 17.179688 "/>
<path style=" stroke:none;fill-rule:nonzero;fill:rgb(100%,100%,100%);fill-opacity:1;" d="M 56.90625 16.304688 C 56.953125 16.222656 57 16.109375 57.046875 16.113281 C 57.738281 16.148438 58.445312 16.125 59.117188 16.265625 C 60.289062 16.507812 61.03125 17.453125 61.164062 18.640625 C 61.234375 19.277344 61.214844 19.902344 60.996094 20.507812 C 60.691406 21.359375 60.078125 21.894531 59.214844 22.152344 C 58.464844 22.375 57.695312 22.285156 56.90625 22.300781 C 56.90625 20.289062 56.90625 18.308594 56.90625 16.304688 Z M 56.90625 16.304688 "/>
<path style=" stroke:none;fill-rule:nonzero;fill:rgb(98.823529%,99.215686%,99.607843%);fill-opacity:1;" d="M 71.265625 16.015625 C 71.75 16.066406 72.132812 16.234375 72.347656 16.691406 C 72.765625 17.570312 72.230469 18.488281 71.261719 18.511719 C 70.667969 18.527344 70.070312 18.515625 69.453125 18.515625 C 69.453125 17.675781 69.453125 16.855469 69.453125 16.015625 C 70.054688 16.015625 70.648438 16.015625 71.265625 16.015625 Z M 71.265625 16.015625 "/>
<path style=" stroke:none;fill-rule:nonzero;fill:rgb(99.215686%,99.215686%,100%);fill-opacity:1;" d="M 162.296875 18.515625 C 162.542969 19.261719 162.785156 19.984375 163.03125 20.726562 C 162.171875 20.726562 161.339844 20.726562 160.453125 20.726562 C 160.878906 19.429688 161.296875 18.15625 161.730469 16.835938 C 161.929688 17.421875 162.113281 17.960938 162.296875 18.515625 Z M 162.296875 18.515625 "/>
<path style=" stroke:none;fill-rule:nonzero;fill:rgb(99.607843%,100%,100%);fill-opacity:1;" d="M 91.574219 18.722656 C 91.78125 18.101562 91.980469 17.5 92.207031 16.835938 C 92.648438 18.167969 93.070312 19.429688 93.496094 20.71875 C 92.632812 20.71875 91.800781 20.71875 90.929688 20.71875 C 91.144531 20.050781 91.359375 19.394531 91.574219 18.722656 Z M 91.574219 18.722656 "/>
<path style=" stroke:none;fill-rule:nonzero;fill:rgb(99.607843%,99.607843%,99.607843%);fill-opacity:1;" d="M 114.035156 33.722656 C 113.5 34.058594 112.917969 33.960938 112.335938 33.980469 C 112.335938 32.824219 112.335938 31.671875 112.335938 30.5 C 112.84375 30.515625 113.355469 30.4375 113.847656 30.660156 C 114.3125 30.871094 114.609375 31.222656 114.707031 31.714844 C 114.828125 32.347656 114.800781 32.96875 114.335938 33.484375 C 114.253906 33.574219 114.148438 33.640625 114.035156 33.722656 Z M 114.035156 33.722656 "/>
<path style=" stroke:none;fill-rule:nonzero;fill:rgb(99.607843%,99.607843%,99.607843%);fill-opacity:1;" d="M 177.003906 33.96875 C 176.710938 33.972656 176.445312 33.972656 176.164062 33.972656 C 176.164062 32.8125 176.164062 31.671875 176.164062 30.503906 C 176.804688 30.511719 177.453125 30.398438 177.996094 30.847656 C 178.136719 30.964844 178.269531 31.109375 178.363281 31.265625 C 178.746094 31.898438 178.660156 32.949219 178.171875 33.492188 C 177.871094 33.824219 177.464844 33.945312 177.003906 33.96875 Z M 177.003906 33.96875 "/>
<path style=" stroke:none;fill-rule:nonzero;fill:rgb(99.607843%,99.607843%,99.607843%);fill-opacity:1;" d="M 75.246094 32.542969 C 75.046875 33.789062 74.027344 34.167969 73.144531 33.882812 C 72.550781 33.691406 72.242188 33.242188 72.140625 32.664062 C 72.046875 32.117188 72.097656 31.585938 72.429688 31.097656 C 72.851562 30.46875 73.777344 30.355469 74.382812 30.632812 C 74.976562 30.898438 75.324219 31.601562 75.261719 32.375 C 75.257812 32.425781 75.253906 32.472656 75.246094 32.542969 Z M 75.246094 32.542969 "/>
<path style=" stroke:none;fill-rule:nonzero;fill:rgb(99.607843%,99.607843%,99.607843%);fill-opacity:1;" d="M 148.535156 31.0625 C 149.074219 31.785156 148.972656 33.011719 148.367188 33.582031 C 147.707031 34.210938 146.121094 34.167969 145.800781 32.800781 C 145.628906 32.074219 145.6875 31.378906 146.292969 30.839844 C 146.929688 30.28125 147.992188 30.386719 148.535156 31.0625 Z M 148.535156 31.0625 "/>
<path style=" stroke:none;fill-rule:nonzero;fill:rgb(99.607843%,99.607843%,99.607843%);fill-opacity:1;" d="M 126.042969 33.027344 C 125.796875 32.265625 125.800781 31.546875 126.351562 30.941406 C 126.824219 30.425781 127.449219 30.378906 128.070312 30.59375 C 128.675781 30.804688 128.964844 31.300781 129.035156 31.917969 C 129.105469 32.503906 129.023438 33.066406 128.601562 33.519531 C 127.949219 34.21875 126.472656 34.148438 126.042969 33.027344 Z M 126.042969 33.027344 "/>
<path style=" stroke:none;fill-rule:nonzero;fill:rgb(99.607843%,99.607843%,99.607843%);fill-opacity:1;" d="M 134.339844 31.726562 C 134.1875 31.808594 134.058594 31.921875 133.917969 31.929688 C 133.5625 31.957031 133.203125 31.941406 132.835938 31.941406 C 132.835938 31.449219 132.835938 30.96875 132.835938 30.472656 C 133.191406 30.472656 133.542969 30.457031 133.890625 30.476562 C 134.144531 30.492188 134.367188 30.601562 134.460938 30.863281 C 134.566406 31.164062 134.566406 31.453125 134.339844 31.726562 Z M 134.339844 31.726562 "/>
<path style=" stroke:none;fill-rule:nonzero;fill:rgb(99.215686%,99.215686%,99.215686%);fill-opacity:1;" d="M 97.691406 32.472656 C 97.867188 31.945312 98.039062 31.433594 98.222656 30.863281 C 98.480469 31.617188 98.71875 32.316406 98.964844 33.039062 C 98.472656 33.039062 98.003906 33.039062 97.507812 33.039062 C 97.566406 32.851562 97.625 32.671875 97.691406 32.472656 Z M 97.691406 32.472656 "/>
<path style=" stroke:none;fill-rule:nonzero;fill:rgb(3.137255%,0.392157%,0.784314%);fill-opacity:1;" d="M 28.117188 29.96875 C 28.785156 29.828125 29.433594 29.714844 30.070312 29.550781 C 30.390625 29.46875 30.691406 29.445312 31.003906 29.546875 C 31.699219 29.777344 32.398438 30.003906 33.09375 30.238281 C 33.195312 30.273438 33.289062 30.335938 33.367188 30.4375 C 30.757812 30.4375 28.148438 30.4375 25.539062 30.4375 C 25.53125 30.421875 25.527344 30.410156 25.523438 30.394531 C 25.625 30.351562 25.726562 30.308594 25.839844 30.25 C 26.597656 30.148438 27.347656 30.0625 28.117188 29.96875 Z M 28.117188 29.96875 "/>
<path style=" stroke:none;fill-rule:nonzero;fill:rgb(2.745098%,0.392157%,0.392157%);fill-opacity:1;" d="M 34.195312 30.433594 C 34.632812 30.113281 35.074219 29.777344 35.554688 29.5 C 35.859375 29.320312 36.21875 29.398438 36.515625 29.570312 C 36.933594 29.8125 37.332031 30.09375 37.742188 30.359375 C 37.734375 30.382812 37.730469 30.410156 37.722656 30.4375 C 36.554688 30.4375 35.382812 30.4375 34.195312 30.433594 Z M 34.195312 30.433594 "/>
</g>
</svg>
