<?xml version="1.0" encoding="UTF-8"?>
<svg xmlns="http://www.w3.org/2000/svg" xmlns:xlink="http://www.w3.org/1999/xlink" width="168px" height="55px" viewBox="0 0 155 55" version="1.1">
<defs>
<linearGradient id="linear0" gradientUnits="userSpaceOnUse" x1="0" y1="0" x2="1" y2="1" gradientTransform="matrix(93.675781,0,0,9.539062,47.949219,18.78125)">
<stop offset="0" style="stop-color:rgb(31.764706%,65.882353%,85.882353%);stop-opacity:1;"/>
<stop offset="1" style="stop-color:rgb(20%,38.039216%,88.235294%);stop-opacity:1;"/>
</linearGradient>
<clipPath id="clip1">
  <path d="M 7.15625 9.210938 L 43.609375 9.210938 L 43.609375 45.789062 L 7.15625 45.789062 Z M 7.15625 9.210938 "/>
</clipPath>
<clipPath id="clip2">
  <path d="M 7.15625 9.210938 L 43.609375 9.210938 L 43.609375 45.789062 L 7.15625 45.789062 Z M 7.15625 9.210938 "/>
</clipPath>
<filter id="alpha" filterUnits="objectBoundingBox" x="0%" y="0%" width="100%" height="100%">
  <feColorMatrix type="matrix" in="SourceGraphic" values="0 0 0 0 1 0 0 0 0 1 0 0 0 0 1 0 0 0 1 0"/>
</filter>
<mask id="mask0">
  <g filter="url(#alpha)">
<rect x="0" y="0" width="155" height="55" style="fill:rgb(0%,0%,0%);fill-opacity:0.00392157;stroke:none;"/>
  </g>
</mask>
<clipPath id="clip3">
  <rect x="0" y="0" width="155" height="55"/>
</clipPath>
<g id="surface5" clip-path="url(#clip3)">
<path style=" stroke:none;fill-rule:evenodd;fill:rgb(64.313725%,60.392157%,57.647059%);fill-opacity:1;" d="M 21.707031 32.378906 C 21.585938 32.355469 21.46875 32.308594 21.347656 32.292969 C 21.261719 32.28125 21.152344 32.292969 21.074219 32.257812 C 21.140625 32.039062 21.164062 31.816406 21.191406 31.589844 C 21.199219 31.507812 21.210938 31.371094 21.273438 31.308594 C 21.292969 31.308594 21.308594 31.308594 21.324219 31.308594 C 21.351562 31.335938 21.359375 31.382812 21.371094 31.414062 C 21.386719 31.476562 21.410156 31.546875 21.4375 31.605469 C 21.546875 31.855469 21.652344 32.109375 21.707031 32.378906 "/>
</g>
<clipPath id="clip4">
  <path d="M 7.15625 9.210938 L 43.609375 9.210938 L 43.609375 45.789062 L 7.15625 45.789062 Z M 7.15625 9.210938 "/>
</clipPath>
<mask id="mask1">
  <g filter="url(#alpha)">
<rect x="0" y="0" width="155" height="55" style="fill:rgb(0%,0%,0%);fill-opacity:0.243137;stroke:none;"/>
  </g>
</mask>
<clipPath id="clip5">
  <rect x="0" y="0" width="155" height="55"/>
</clipPath>
<g id="surface8" clip-path="url(#clip5)">
<path style=" stroke:none;fill-rule:evenodd;fill:rgb(70.980392%,53.72549%,62.352941%);fill-opacity:1;" d="M 25.339844 20.207031 C 25.277344 20.203125 25.207031 20.136719 25.1875 20.074219 C 25.179688 20.046875 25.183594 19.980469 25.21875 19.972656 C 25.328125 19.945312 25.371094 20.136719 25.339844 20.207031 "/>
</g>
</defs>
<g id="surface1">
<rect x="0" y="0" width="155" height="55" style="fill:rgb(100%,100%,100%);fill-opacity:1;stroke:none;"/>
<path style=" stroke:none;fill-rule:nonzero;fill:url(#linear0);" d="M 54.324219 19.382812 C 55.074219 19.785156 55.648438 20.34375 56.054688 21.066406 C 56.457031 21.789062 56.660156 22.613281 56.660156 23.542969 C 56.660156 24.464844 56.453125 25.285156 56.046875 26.007812 C 55.636719 26.726562 55.058594 27.292969 54.308594 27.703125 C 53.5625 28.113281 52.691406 28.320312 51.707031 28.320312 L 47.949219 28.320312 L 47.949219 18.78125 L 51.707031 18.78125 C 52.703125 18.78125 53.574219 18.980469 54.324219 19.382812 M 53.320312 25.34375 C 53.761719 24.917969 53.980469 24.320312 53.980469 23.542969 C 53.980469 22.757812 53.761719 22.152344 53.320312 21.722656 C 52.882812 21.292969 52.273438 21.082031 51.503906 21.082031 L 50.589844 21.082031 L 50.589844 25.980469 L 51.503906 25.980469 C 52.273438 25.980469 52.882812 25.765625 53.320312 25.34375 M 62.632812 28.320312 L 60.75 24.800781 L 60.46875 24.800781 L 60.46875 28.320312 L 57.828125 28.320312 L 57.828125 18.78125 L 61.988281 18.78125 C 62.75 18.78125 63.398438 18.914062 63.925781 19.179688 C 64.457031 19.445312 64.855469 19.8125 65.125 20.277344 C 65.394531 20.738281 65.527344 21.261719 65.527344 21.839844 C 65.527344 22.488281 65.351562 23.058594 64.996094 23.550781 C 64.640625 24.042969 64.125 24.390625 63.441406 24.597656 L 65.582031 28.320312 L 62.632812 28.320312 M 60.46875 22.988281 L 61.773438 22.988281 C 62.132812 22.988281 62.402344 22.902344 62.582031 22.730469 C 62.761719 22.558594 62.847656 22.3125 62.847656 21.988281 C 62.847656 21.679688 62.757812 21.4375 62.574219 21.261719 C 62.390625 21.085938 62.121094 21 61.773438 21 L 60.46875 21 L 60.46875 22.988281 M 69.351562 20.90625 L 69.351562 22.460938 L 72.378906 22.460938 L 72.378906 24.476562 L 69.351562 24.476562 L 69.351562 26.195312 L 72.78125 26.195312 L 72.78125 28.320312 L 66.710938 28.320312 L 66.710938 18.78125 L 72.78125 18.78125 L 72.78125 20.90625 L 69.351562 20.90625 M 80.078125 26.765625 L 76.710938 26.765625 L 76.199219 28.320312 L 73.429688 28.320312 L 76.886719 18.78125 L 79.929688 18.78125 L 83.375 28.320312 L 80.589844 28.320312 L 80.078125 26.765625 M 79.417969 24.734375 L 78.394531 21.648438 L 77.386719 24.734375 L 79.417969 24.734375 M 95.300781 18.78125 L 95.300781 28.320312 L 92.660156 28.320312 L 92.660156 23.054688 L 90.871094 28.320312 L 88.664062 28.320312 L 86.859375 23.015625 L 86.859375 28.320312 L 84.222656 28.320312 L 84.222656 18.78125 L 87.414062 18.78125 L 89.792969 24.976562 L 92.125 18.78125 L 95.300781 18.78125 M 99.433594 20.90625 L 99.433594 22.460938 L 102.460938 22.460938 L 102.460938 24.476562 L 99.433594 24.476562 L 99.433594 26.195312 L 102.863281 26.195312 L 102.863281 28.320312 L 96.792969 28.320312 L 96.792969 18.78125 L 102.863281 18.78125 L 102.863281 20.90625 L 99.433594 20.90625 M 110.527344 19.382812 C 111.277344 19.785156 111.855469 20.34375 112.257812 21.066406 C 112.660156 21.789062 112.863281 22.613281 112.863281 23.542969 C 112.863281 24.464844 112.660156 25.285156 112.25 26.007812 C 111.84375 26.726562 111.265625 27.292969 110.515625 27.703125 C 109.765625 28.113281 108.898438 28.320312 107.910156 28.320312 L 104.15625 28.320312 L 104.15625 18.78125 L 107.910156 18.78125 C 108.90625 18.78125 109.78125 18.980469 110.527344 19.382812 M 109.527344 25.34375 C 109.964844 24.917969 110.183594 24.320312 110.183594 23.542969 C 110.183594 22.757812 109.964844 22.152344 109.527344 21.722656 C 109.085938 21.292969 108.480469 21.082031 107.707031 21.082031 L 106.792969 21.082031 L 106.792969 25.980469 L 107.707031 25.980469 C 108.480469 25.980469 109.085938 25.765625 109.527344 25.34375 M 116.671875 18.78125 L 116.671875 28.320312 L 114.035156 28.320312 L 114.035156 18.78125 L 116.671875 18.78125 M 125.3125 18.78125 L 125.3125 20.890625 L 122.78125 20.890625 L 122.78125 28.320312 L 120.144531 28.320312 L 120.144531 20.890625 L 117.640625 20.890625 L 117.640625 18.78125 L 125.3125 18.78125 M 134.84375 26.765625 L 131.476562 26.765625 L 130.964844 28.320312 L 128.191406 28.320312 L 131.652344 18.78125 L 134.695312 18.78125 L 138.140625 28.320312 L 135.355469 28.320312 L 134.84375 26.765625 M 134.183594 24.734375 L 133.160156 21.648438 L 132.148438 24.734375 L 134.183594 24.734375 M 141.625 18.78125 L 141.625 28.320312 L 138.988281 28.320312 L 138.988281 18.78125 L 141.625 18.78125 "/>
<path style=" stroke:none;fill-rule:nonzero;fill:rgb(1.960784%,0%,0%);fill-opacity:1;" d="M 51.011719 31.46875 L 51.011719 32.398438 L 49.761719 32.398438 L 49.761719 36.21875 L 48.609375 36.21875 L 48.609375 32.398438 L 47.359375 32.398438 L 47.359375 31.46875 L 51.011719 31.46875 M 55.683594 31.46875 L 55.683594 36.21875 L 54.53125 36.21875 L 54.53125 34.265625 L 52.742188 34.265625 L 52.742188 36.21875 L 51.589844 36.21875 L 51.589844 31.46875 L 52.742188 31.46875 L 52.742188 33.332031 L 54.53125 33.332031 L 54.53125 31.46875 L 55.683594 31.46875 M 57.660156 32.398438 L 57.660156 33.359375 L 59.203125 33.359375 L 59.203125 34.25 L 57.660156 34.25 L 57.660156 35.292969 L 59.40625 35.292969 L 59.40625 36.21875 L 56.511719 36.21875 L 56.511719 31.46875 L 59.40625 31.46875 L 59.40625 32.398438 L 57.660156 32.398438 M 62.589844 35.957031 C 62.21875 35.75 61.925781 35.457031 61.710938 35.085938 C 61.492188 34.714844 61.382812 34.296875 61.382812 33.832031 C 61.382812 33.367188 61.492188 32.949219 61.710938 32.578125 C 61.925781 32.210938 62.21875 31.921875 62.589844 31.714844 C 62.960938 31.507812 63.367188 31.402344 63.8125 31.402344 C 64.257812 31.402344 64.664062 31.507812 65.035156 31.714844 C 65.402344 31.921875 65.695312 32.210938 65.910156 32.578125 C 66.121094 32.949219 66.226562 33.367188 66.226562 33.832031 C 66.226562 34.296875 66.121094 34.714844 65.90625 35.085938 C 65.691406 35.457031 65.398438 35.75 65.03125 35.957031 C 64.664062 36.164062 64.257812 36.265625 63.8125 36.265625 C 63.367188 36.265625 62.960938 36.164062 62.589844 35.957031 M 64.71875 34.832031 C 64.945312 34.582031 65.058594 34.246094 65.058594 33.832031 C 65.058594 33.410156 64.945312 33.078125 64.71875 32.828125 C 64.492188 32.578125 64.1875 32.453125 63.8125 32.453125 C 63.429688 32.453125 63.125 32.574219 62.898438 32.824219 C 62.671875 33.070312 62.558594 33.40625 62.558594 33.832031 C 62.558594 34.25 62.671875 34.585938 62.898438 34.835938 C 63.125 35.085938 63.429688 35.210938 63.8125 35.210938 C 64.1875 35.210938 64.492188 35.085938 64.71875 34.832031 M 71.09375 36.21875 L 69.941406 36.21875 L 68.019531 33.289062 L 68.019531 36.21875 L 66.867188 36.21875 L 66.867188 31.46875 L 68.019531 31.46875 L 69.941406 34.414062 L 69.941406 31.46875 L 71.09375 31.46875 L 71.09375 36.21875 M 73.078125 35.328125 L 74.585938 35.328125 L 74.585938 36.21875 L 71.929688 36.21875 L 71.929688 31.46875 L 73.078125 31.46875 L 73.078125 35.328125 M 79.191406 31.46875 L 77.554688 34.648438 L 77.554688 36.21875 L 76.402344 36.21875 L 76.402344 34.648438 L 74.769531 31.46875 L 76.074219 31.46875 L 76.988281 33.460938 L 77.898438 31.46875 L 79.191406 31.46875 M 84.019531 35.378906 L 82.257812 35.378906 L 81.976562 36.21875 L 80.769531 36.21875 L 82.480469 31.46875 L 83.8125 31.46875 L 85.523438 36.21875 L 84.304688 36.21875 L 84.019531 35.378906 M 83.726562 34.488281 L 83.140625 32.75 L 82.5625 34.488281 L 83.726562 34.488281 M 87.191406 31.46875 L 87.191406 36.21875 L 86.039062 36.21875 L 86.039062 31.46875 L 87.191406 31.46875 M 90.601562 32.398438 L 90.601562 33.359375 L 92.144531 33.359375 L 92.144531 34.25 L 90.601562 34.25 L 90.601562 35.292969 L 92.34375 35.292969 L 92.34375 36.21875 L 89.453125 36.21875 L 89.453125 31.46875 L 92.34375 31.46875 L 92.34375 32.398438 L 90.601562 32.398438 M 96.167969 31.769531 C 96.539062 31.964844 96.828125 32.246094 97.03125 32.601562 C 97.238281 32.960938 97.339844 33.375 97.339844 33.84375 C 97.339844 34.308594 97.238281 34.722656 97.03125 35.082031 C 96.828125 35.445312 96.539062 35.722656 96.164062 35.921875 C 95.789062 36.121094 95.355469 36.21875 94.863281 36.21875 L 93.09375 36.21875 L 93.09375 31.46875 L 94.863281 31.46875 C 95.359375 31.46875 95.796875 31.570312 96.167969 31.769531 M 95.804688 34.859375 C 96.046875 34.621094 96.167969 34.28125 96.167969 33.84375 C 96.167969 33.40625 96.046875 33.066406 95.804688 32.824219 C 95.5625 32.578125 95.222656 32.457031 94.789062 32.457031 L 94.242188 32.457031 L 94.242188 35.21875 L 94.789062 35.21875 C 95.222656 35.21875 95.5625 35.097656 95.804688 34.859375 M 99.136719 31.46875 L 99.136719 36.21875 L 97.984375 36.21875 L 97.984375 31.46875 L 99.136719 31.46875 M 103.367188 31.46875 L 103.367188 32.398438 L 102.117188 32.398438 L 102.117188 36.21875 L 100.964844 36.21875 L 100.964844 32.398438 L 99.714844 32.398438 L 99.714844 31.46875 L 103.367188 31.46875 M 104.960938 35.957031 C 104.589844 35.75 104.296875 35.457031 104.078125 35.085938 C 103.859375 34.714844 103.753906 34.296875 103.753906 33.832031 C 103.753906 33.367188 103.859375 32.949219 104.078125 32.578125 C 104.296875 32.210938 104.589844 31.921875 104.960938 31.714844 C 105.332031 31.507812 105.738281 31.402344 106.183594 31.402344 C 106.625 31.402344 107.03125 31.507812 107.402344 31.714844 C 107.773438 31.921875 108.066406 32.210938 108.277344 32.578125 C 108.492188 32.949219 108.597656 33.367188 108.597656 33.832031 C 108.597656 34.296875 108.488281 34.714844 108.273438 35.085938 C 108.058594 35.457031 107.769531 35.75 107.398438 35.957031 C 107.03125 36.164062 106.625 36.265625 106.183594 36.265625 C 105.738281 36.265625 105.332031 36.164062 104.960938 35.957031 M 107.085938 34.832031 C 107.3125 34.582031 107.425781 34.246094 107.425781 33.832031 C 107.425781 33.410156 107.3125 33.078125 107.085938 32.828125 C 106.859375 32.578125 106.558594 32.453125 106.183594 32.453125 C 105.800781 32.453125 105.496094 32.574219 105.269531 32.824219 C 105.042969 33.070312 104.929688 33.40625 104.929688 33.832031 C 104.929688 34.25 105.042969 34.585938 105.269531 34.835938 C 105.496094 35.085938 105.800781 35.210938 106.183594 35.210938 C 106.558594 35.210938 106.859375 35.085938 107.085938 34.832031 M 111.644531 36.21875 L 110.664062 34.425781 L 110.386719 34.425781 L 110.386719 36.21875 L 109.238281 36.21875 L 109.238281 31.46875 L 111.167969 31.46875 C 111.539062 31.46875 111.859375 31.535156 112.121094 31.667969 C 112.382812 31.796875 112.578125 31.976562 112.710938 32.203125 C 112.839844 32.433594 112.90625 32.6875 112.90625 32.964844 C 112.90625 33.28125 112.816406 33.5625 112.640625 33.8125 C 112.460938 34.058594 112.199219 34.234375 111.855469 34.339844 L 112.945312 36.21875 L 111.644531 36.21875 M 110.386719 33.609375 L 111.101562 33.609375 C 111.3125 33.609375 111.46875 33.554688 111.574219 33.453125 C 111.679688 33.347656 111.734375 33.203125 111.734375 33.011719 C 111.734375 32.832031 111.679688 32.691406 111.574219 32.585938 C 111.46875 32.484375 111.3125 32.429688 111.101562 32.429688 L 110.386719 32.429688 L 110.386719 33.609375 M 119.101562 31.46875 L 117.46875 34.648438 L 117.46875 36.21875 L 116.316406 36.21875 L 116.316406 34.648438 L 114.679688 31.46875 L 115.988281 31.46875 L 116.902344 33.460938 L 117.808594 31.46875 L 119.101562 31.46875 M 120.578125 35.957031 C 120.210938 35.75 119.914062 35.457031 119.699219 35.085938 C 119.480469 34.714844 119.371094 34.296875 119.371094 33.832031 C 119.371094 33.367188 119.480469 32.949219 119.699219 32.578125 C 119.914062 32.210938 120.210938 31.921875 120.578125 31.714844 C 120.949219 31.507812 121.355469 31.402344 121.800781 31.402344 C 122.246094 31.402344 122.652344 31.507812 123.023438 31.714844 C 123.394531 31.921875 123.683594 32.210938 123.898438 32.578125 C 124.109375 32.949219 124.21875 33.367188 124.21875 33.832031 C 124.21875 34.296875 124.109375 34.714844 123.894531 35.085938 C 123.679688 35.457031 123.386719 35.75 123.019531 35.957031 C 122.652344 36.164062 122.246094 36.265625 121.800781 36.265625 C 121.355469 36.265625 120.949219 36.164062 120.578125 35.957031 M 122.707031 34.832031 C 122.933594 34.582031 123.046875 34.246094 123.046875 33.832031 C 123.046875 33.410156 122.933594 33.078125 122.707031 32.828125 C 122.480469 32.578125 122.179688 32.453125 121.800781 32.453125 C 121.417969 32.453125 121.117188 32.574219 120.890625 32.824219 C 120.664062 33.070312 120.550781 33.40625 120.550781 33.832031 C 120.550781 34.25 120.664062 34.585938 120.890625 34.835938 C 121.117188 35.085938 121.417969 35.210938 121.800781 35.210938 C 122.179688 35.210938 122.480469 35.085938 122.707031 34.832031 M 125.988281 31.46875 L 125.988281 34.3125 C 125.988281 34.597656 126.054688 34.816406 126.195312 34.96875 C 126.335938 35.121094 126.539062 35.199219 126.808594 35.199219 C 127.078125 35.199219 127.285156 35.121094 127.425781 34.96875 C 127.570312 34.816406 127.640625 34.597656 127.640625 34.3125 L 127.640625 31.46875 L 128.792969 31.46875 L 128.792969 34.304688 C 128.792969 34.730469 128.703125 35.085938 128.523438 35.378906 C 128.34375 35.675781 128.105469 35.894531 127.800781 36.042969 C 127.496094 36.191406 127.160156 36.265625 126.789062 36.265625 C 126.414062 36.265625 126.082031 36.195312 125.789062 36.046875 C 125.496094 35.902344 125.261719 35.679688 125.09375 35.382812 C 124.921875 35.089844 124.835938 34.730469 124.835938 34.304688 L 124.835938 31.46875 L 125.988281 31.46875 M 135.253906 36.21875 L 134.101562 36.21875 L 132.179688 33.289062 L 132.179688 36.21875 L 131.027344 36.21875 L 131.027344 31.46875 L 132.179688 31.46875 L 134.101562 34.414062 L 134.101562 31.46875 L 135.253906 31.46875 L 135.253906 36.21875 M 137.238281 32.398438 L 137.238281 33.359375 L 138.78125 33.359375 L 138.78125 34.25 L 137.238281 34.25 L 137.238281 35.292969 L 138.980469 35.292969 L 138.980469 36.21875 L 136.089844 36.21875 L 136.089844 31.46875 L 138.980469 31.46875 L 138.980469 32.398438 L 137.238281 32.398438 M 140.878906 32.398438 L 140.878906 33.359375 L 142.421875 33.359375 L 142.421875 34.25 L 140.878906 34.25 L 140.878906 35.292969 L 142.621094 35.292969 L 142.621094 36.21875 L 139.730469 36.21875 L 139.730469 31.46875 L 142.621094 31.46875 L 142.621094 32.398438 L 140.878906 32.398438 M 146.445312 31.769531 C 146.816406 31.964844 147.105469 32.246094 147.308594 32.601562 C 147.515625 32.960938 147.617188 33.375 147.617188 33.84375 C 147.617188 34.308594 147.515625 34.722656 147.308594 35.082031 C 147.105469 35.445312 146.816406 35.722656 146.441406 35.921875 C 146.066406 36.121094 145.632812 36.21875 145.140625 36.21875 L 143.371094 36.21875 L 143.371094 31.46875 L 145.140625 31.46875 C 145.636719 31.46875 146.074219 31.570312 146.445312 31.769531 M 146.082031 34.859375 C 146.324219 34.621094 146.445312 34.28125 146.445312 33.84375 C 146.445312 33.40625 146.324219 33.066406 146.082031 32.824219 C 145.839844 32.578125 145.5 32.457031 145.066406 32.457031 L 144.519531 32.457031 L 144.519531 35.21875 L 145.066406 35.21875 C 145.5 35.21875 145.839844 35.097656 146.082031 34.859375 "/>
<g clip-path="url(#clip1)" clip-rule="nonzero">
<path style=" stroke:none;fill-rule:evenodd;fill:rgb(0%,0%,0%);fill-opacity:1;" d="M 10.160156 17.3125 C 10.207031 17.292969 10.242188 17.222656 10.269531 17.179688 C 10.328125 17.089844 10.398438 17.003906 10.453125 16.910156 C 10.476562 16.871094 10.507812 16.84375 10.519531 16.796875 C 10.609375 16.738281 10.664062 16.605469 10.730469 16.523438 C 10.882812 16.332031 11.027344 16.136719 11.183594 15.945312 C 11.628906 15.398438 12.109375 14.886719 12.613281 14.382812 C 13.082031 13.910156 13.59375 13.488281 14.105469 13.066406 C 14.363281 12.855469 14.648438 12.6875 14.90625 12.476562 C 15.003906 12.394531 15.125 12.324219 15.234375 12.261719 C 15.511719 12.097656 15.769531 11.902344 16.046875 11.742188 C 16.171875 11.667969 16.308594 11.605469 16.429688 11.523438 C 16.660156 11.425781 16.867188 11.28125 17.089844 11.171875 C 17.628906 10.898438 18.179688 10.640625 18.742188 10.421875 C 19.238281 10.230469 19.742188 10.070312 20.25 9.921875 C 20.5 9.851562 20.75 9.765625 21.003906 9.710938 C 21.367188 9.632812 21.730469 9.5625 22.089844 9.484375 C 22.28125 9.441406 22.480469 9.421875 22.671875 9.398438 C 23.214844 9.328125 23.757812 9.261719 24.304688 9.226562 C 24.644531 9.203125 24.988281 9.210938 25.324219 9.210938 C 25.625 9.210938 25.929688 9.203125 26.230469 9.21875 C 29.328125 9.375 32.363281 10.320312 35 11.953125 C 35.832031 12.464844 36.59375 13.070312 37.34375 13.6875 C 37.496094 13.8125 37.625 13.964844 37.773438 14.085938 C 37.96875 14.246094 38.140625 14.441406 38.316406 14.617188 C 38.503906 14.804688 38.695312 14.992188 38.859375 15.195312 C 38.9375 15.289062 39.03125 15.367188 39.109375 15.460938 C 39.28125 15.675781 39.460938 15.882812 39.636719 16.097656 C 39.746094 16.230469 39.84375 16.375 39.953125 16.507812 C 40.046875 16.625 40.121094 16.757812 40.21875 16.875 C 40.386719 17.085938 40.542969 17.332031 40.679688 17.566406 C 40.785156 17.746094 40.910156 17.914062 41.011719 18.09375 C 41.191406 18.398438 41.378906 18.707031 41.535156 19.019531 C 41.90625 19.765625 42.234375 20.519531 42.523438 21.300781 C 42.808594 22.0625 43.027344 22.847656 43.195312 23.640625 C 43.273438 24.011719 43.367188 24.382812 43.410156 24.753906 C 43.484375 25.34375 43.550781 25.929688 43.589844 26.519531 C 43.601562 26.671875 43.589844 26.828125 43.597656 26.984375 C 43.625 27.53125 43.589844 28.074219 43.5625 28.621094 C 43.496094 30 43.226562 31.363281 42.847656 32.6875 C 42.714844 33.167969 42.542969 33.632812 42.367188 34.097656 C 42.257812 34.382812 42.15625 34.671875 42.019531 34.945312 C 41.894531 35.199219 41.789062 35.464844 41.652344 35.714844 C 41.621094 35.777344 41.59375 35.84375 41.558594 35.90625 C 41.519531 35.964844 41.46875 36.039062 41.457031 36.105469 C 41.425781 36.128906 41.414062 36.167969 41.398438 36.199219 C 41.363281 36.261719 41.328125 36.320312 41.296875 36.386719 C 41.210938 36.574219 41.089844 36.746094 40.984375 36.921875 C 40.800781 37.226562 40.625 37.554688 40.398438 37.832031 C 40.292969 37.960938 40.214844 38.113281 40.113281 38.242188 C 40.011719 38.363281 39.929688 38.503906 39.832031 38.625 C 39.605469 38.90625 39.378906 39.183594 39.152344 39.460938 C 38.980469 39.671875 38.773438 39.851562 38.605469 40.058594 C 38.507812 40.179688 38.394531 40.285156 38.285156 40.390625 C 38.179688 40.5 38.074219 40.617188 37.957031 40.710938 C 37.792969 40.84375 37.65625 41.007812 37.496094 41.140625 C 37.28125 41.316406 37.070312 41.492188 36.863281 41.675781 C 36.75 41.777344 36.617188 41.863281 36.5 41.960938 C 36.386719 42.050781 36.265625 42.128906 36.152344 42.21875 C 36.09375 42.265625 36.011719 42.300781 35.96875 42.367188 C 35.929688 42.378906 35.898438 42.40625 35.867188 42.433594 C 35.820312 42.472656 35.761719 42.496094 35.714844 42.535156 C 35.648438 42.589844 35.566406 42.628906 35.5 42.683594 C 35.378906 42.78125 35.238281 42.875 35.105469 42.953125 C 34.90625 43.070312 34.714844 43.199219 34.515625 43.316406 C 34.125 43.542969 33.726562 43.757812 33.320312 43.964844 C 33.097656 44.074219 32.863281 44.164062 32.636719 44.261719 C 31.566406 44.734375 30.457031 45.097656 29.3125 45.34375 C 28.523438 45.511719 27.722656 45.671875 26.917969 45.726562 C 26.539062 45.75 26.15625 45.757812 25.777344 45.777344 C 25.609375 45.785156 25.4375 45.796875 25.265625 45.789062 C 24.828125 45.765625 24.390625 45.761719 23.953125 45.738281 C 23.484375 45.714844 23.015625 45.632812 22.550781 45.574219 C 22.414062 45.558594 22.273438 45.523438 22.140625 45.496094 C 21.707031 45.402344 21.265625 45.328125 20.84375 45.207031 C 20.585938 45.132812 20.328125 45.058594 20.070312 44.984375 C 19.789062 44.902344 19.507812 44.820312 19.234375 44.71875 C 18.421875 44.410156 17.621094 44.054688 16.851562 43.640625 C 16.53125 43.46875 16.226562 43.269531 15.914062 43.085938 C 15.566406 42.882812 15.207031 42.664062 14.894531 42.410156 C 14.6875 42.234375 14.445312 42.097656 14.234375 41.921875 C 13.972656 41.707031 13.71875 41.480469 13.457031 41.261719 C 13.328125 41.15625 13.21875 41.027344 13.089844 40.921875 C 12.945312 40.804688 12.824219 40.660156 12.683594 40.542969 C 12.566406 40.445312 12.4375 40.320312 12.34375 40.203125 C 12.246094 40.082031 12.125 39.984375 12.027344 39.867188 C 11.921875 39.738281 11.800781 39.621094 11.695312 39.492188 C 11.488281 39.234375 11.269531 38.988281 11.0625 38.734375 C 10.890625 38.523438 10.753906 38.285156 10.585938 38.074219 C 10.417969 37.867188 10.257812 37.632812 10.125 37.398438 C 10.03125 37.234375 9.914062 37.082031 9.820312 36.917969 C 9.582031 36.511719 9.339844 36.109375 9.128906 35.6875 C 8.96875 35.363281 8.824219 35.027344 8.664062 34.703125 C 8.609375 34.59375 8.570312 34.46875 8.527344 34.355469 C 8.371094 33.949219 8.203125 33.550781 8.085938 33.128906 C 8.042969 32.984375 7.980469 32.847656 7.9375 32.703125 C 7.765625 32.101562 7.613281 31.488281 7.480469 30.871094 C 7.289062 29.976562 7.210938 29.050781 7.167969 28.136719 C 7.132812 27.460938 7.175781 26.792969 7.210938 26.117188 C 7.234375 25.582031 7.316406 25.058594 7.382812 24.527344 C 7.398438 24.378906 7.421875 24.226562 7.453125 24.078125 C 7.507812 23.820312 7.566406 23.566406 7.621094 23.308594 C 7.683594 23.015625 7.75 22.71875 7.832031 22.429688 C 7.957031 21.996094 8.085938 21.554688 8.242188 21.132812 C 8.332031 20.890625 8.429688 20.652344 8.523438 20.410156 C 8.707031 19.929688 8.941406 19.476562 9.167969 19.015625 C 9.292969 18.769531 9.417969 18.523438 9.5625 18.289062 C 9.691406 18.074219 9.824219 17.863281 9.953125 17.652344 C 9.996094 17.582031 10.042969 17.511719 10.089844 17.441406 C 10.117188 17.402344 10.148438 17.359375 10.160156 17.3125 M 24.527344 32 C 24.503906 32.089844 24.511719 32.195312 24.511719 32.289062 C 24.511719 32.574219 24.566406 32.851562 24.582031 33.136719 C 24.585938 33.269531 24.589844 33.40625 24.578125 33.539062 C 24.570312 33.664062 24.53125 33.78125 24.546875 33.910156 C 24.5625 34.03125 24.621094 34.136719 24.652344 34.253906 C 24.71875 34.488281 24.816406 34.714844 24.875 34.957031 C 24.90625 35.082031 24.941406 35.203125 24.960938 35.335938 C 24.976562 35.46875 24.988281 35.605469 25.015625 35.738281 C 25.050781 35.910156 25.101562 36.078125 25.140625 36.25 C 25.179688 36.449219 25.179688 36.675781 25.140625 36.875 C 25.121094 36.960938 25.070312 37.03125 25.046875 37.117188 C 25.03125 37.179688 25.035156 37.242188 25.03125 37.304688 C 25.027344 37.410156 25.015625 37.519531 25.023438 37.621094 C 25.179688 37.574219 25.160156 37.328125 25.191406 37.203125 C 25.296875 37.214844 25.335938 37.367188 25.34375 37.457031 C 25.351562 37.515625 25.359375 37.585938 25.425781 37.585938 C 25.460938 37.480469 25.449219 37.371094 25.535156 37.285156 C 25.554688 37.265625 25.585938 37.226562 25.617188 37.238281 C 25.640625 37.25 25.65625 37.285156 25.667969 37.308594 C 25.695312 37.363281 25.730469 37.40625 25.761719 37.457031 C 25.777344 37.480469 25.808594 37.519531 25.84375 37.507812 C 25.878906 37.492188 25.875 37.414062 25.882812 37.378906 C 25.898438 37.300781 25.921875 37.226562 25.9375 37.148438 C 25.945312 37.113281 25.953125 37.066406 25.980469 37.039062 C 26.042969 37.027344 26.183594 37.042969 26.230469 37.09375 C 26.242188 37.132812 26.242188 37.242188 26.296875 37.234375 C 26.382812 37.101562 26.394531 36.925781 26.410156 36.773438 C 26.539062 36.71875 26.71875 36.722656 26.851562 36.757812 C 26.863281 36.800781 26.867188 36.847656 26.863281 36.894531 C 26.855469 36.941406 26.832031 37.003906 26.867188 37.042969 C 26.894531 37.078125 26.941406 37.078125 26.984375 37.078125 C 27.050781 37.078125 27.132812 37.066406 27.195312 37.09375 C 27.195312 37.1875 27.164062 37.253906 27.128906 37.339844 C 27.15625 37.34375 27.183594 37.34375 27.207031 37.332031 C 27.226562 37.246094 27.273438 37.167969 27.285156 37.078125 C 27.3125 36.902344 27.300781 36.71875 27.300781 36.546875 C 27.453125 36.515625 27.625 36.515625 27.78125 36.535156 C 27.824219 36.707031 27.773438 36.894531 27.804688 37.070312 C 27.820312 37.074219 27.839844 37.074219 27.855469 37.074219 C 27.871094 36.933594 27.859375 36.78125 27.859375 36.636719 C 27.859375 36.359375 27.859375 36.082031 27.859375 35.804688 C 28.007812 35.773438 28.175781 35.792969 28.324219 35.792969 C 28.421875 35.792969 28.535156 35.777344 28.628906 35.800781 C 28.695312 36.0625 28.671875 36.34375 28.671875 36.609375 C 28.671875 36.679688 28.671875 36.75 28.671875 36.820312 C 28.671875 36.832031 28.671875 36.878906 28.679688 36.886719 C 28.691406 36.894531 28.71875 36.878906 28.726562 36.875 C 28.765625 36.851562 28.808594 36.835938 28.851562 36.820312 C 28.878906 36.863281 28.894531 36.90625 28.917969 36.949219 C 28.960938 37.023438 29.050781 37.003906 29.097656 36.945312 C 29.148438 36.882812 29.160156 36.757812 29.171875 36.683594 C 29.175781 36.664062 29.1875 36.582031 29.214844 36.582031 C 29.222656 36.582031 29.226562 36.617188 29.230469 36.621094 C 29.234375 36.660156 29.226562 36.703125 29.234375 36.742188 C 29.265625 36.773438 29.320312 36.785156 29.359375 36.8125 C 29.363281 36.816406 29.421875 36.867188 29.421875 36.863281 C 29.429688 36.851562 29.421875 36.804688 29.421875 36.789062 C 29.425781 36.746094 29.429688 36.699219 29.445312 36.65625 C 29.472656 36.652344 29.503906 36.652344 29.53125 36.652344 C 29.535156 36.679688 29.550781 36.785156 29.59375 36.785156 C 29.601562 36.785156 29.605469 36.75 29.605469 36.742188 C 29.609375 36.710938 29.605469 36.671875 29.605469 36.636719 C 29.640625 36.554688 29.625 36.425781 29.625 36.335938 C 29.625 36.117188 29.625 35.898438 29.625 35.683594 C 29.625 35.167969 29.625 34.652344 29.625 34.136719 C 29.625 33.859375 29.601562 33.570312 29.632812 33.296875 C 29.847656 33.273438 30.066406 33.273438 30.285156 33.273438 C 30.402344 33.273438 30.527344 33.261719 30.644531 33.277344 C 30.675781 33.363281 30.664062 33.46875 30.664062 33.5625 C 30.664062 33.722656 30.664062 33.882812 30.664062 34.046875 C 30.664062 34.628906 30.640625 35.222656 30.671875 35.804688 C 30.679688 35.996094 30.671875 36.1875 30.671875 36.378906 C 30.671875 36.449219 30.640625 36.554688 30.71875 36.574219 C 30.746094 36.464844 30.738281 36.339844 30.738281 36.230469 C 30.738281 36.058594 30.742188 35.886719 30.742188 35.714844 C 30.964844 35.660156 31.21875 35.695312 31.449219 35.695312 C 31.472656 35.757812 31.464844 35.839844 31.46875 35.902344 C 31.476562 36.027344 31.476562 36.152344 31.476562 36.273438 C 31.476562 36.3125 31.46875 36.441406 31.515625 36.460938 C 31.542969 36.472656 31.601562 36.453125 31.628906 36.441406 C 31.679688 36.324219 31.640625 36.179688 31.664062 36.054688 C 31.714844 36.035156 31.769531 36.039062 31.824219 36.035156 C 31.925781 36.03125 32.035156 36.023438 32.136719 36.035156 C 32.171875 36.183594 32.132812 36.339844 32.167969 36.488281 C 32.25 36.507812 32.363281 36.496094 32.445312 36.476562 C 32.464844 36.300781 32.457031 36.117188 32.457031 35.941406 C 32.457031 35.863281 32.449219 35.78125 32.460938 35.703125 C 32.542969 35.691406 32.628906 35.699219 32.710938 35.699219 C 32.851562 35.699219 32.996094 35.699219 33.136719 35.699219 C 33.160156 35.757812 33.152344 35.832031 33.152344 35.894531 C 33.152344 36.011719 33.148438 36.128906 33.15625 36.242188 C 33.160156 36.316406 33.148438 36.402344 33.179688 36.472656 C 33.335938 36.472656 33.492188 36.445312 33.652344 36.457031 C 33.671875 36.367188 33.664062 36.277344 33.671875 36.183594 C 33.675781 36.144531 33.671875 36.097656 33.695312 36.066406 C 33.796875 36.050781 33.929688 36.046875 34.027344 36.074219 C 34.039062 36.152344 34.019531 36.28125 34.074219 36.347656 C 34.089844 36.371094 34.117188 36.378906 34.144531 36.378906 C 34.285156 36.386719 34.277344 36.253906 34.289062 36.148438 C 34.464844 36.128906 34.652344 36.152344 34.824219 36.167969 C 34.839844 36.242188 34.824219 36.351562 34.859375 36.417969 C 34.875 36.417969 34.890625 36.421875 34.910156 36.421875 C 34.941406 36.351562 34.9375 36.261719 34.945312 36.183594 C 34.996094 36.160156 35.054688 36.152344 35.109375 36.152344 C 35.128906 36.21875 35.117188 36.289062 35.136719 36.355469 C 35.140625 36.378906 35.152344 36.410156 35.179688 36.417969 C 35.246094 36.4375 35.3125 36.332031 35.371094 36.308594 C 35.433594 36.285156 35.523438 36.28125 35.574219 36.242188 C 35.660156 36.171875 35.71875 36.070312 35.785156 35.984375 C 35.894531 35.855469 36.003906 35.726562 36.109375 35.597656 C 36.253906 35.421875 36.375 35.226562 36.515625 35.050781 C 36.574219 34.976562 36.617188 34.886719 36.675781 34.816406 C 36.824219 34.632812 36.941406 34.421875 37.058594 34.21875 C 37.210938 33.960938 37.367188 33.703125 37.503906 33.433594 C 37.613281 33.207031 37.726562 32.980469 37.832031 32.75 C 37.878906 32.652344 37.949219 32.542969 37.964844 32.433594 C 37.53125 32.386719 37.089844 32.464844 36.65625 32.414062 C 36.699219 32.363281 36.742188 32.351562 36.796875 32.320312 C 36.898438 32.265625 37.003906 32.230469 37.109375 32.191406 C 37.402344 32.078125 37.679688 31.921875 37.960938 31.769531 C 38.042969 31.726562 38.132812 31.679688 38.214844 31.632812 C 38.265625 31.609375 38.3125 31.585938 38.347656 31.542969 C 38.402344 31.472656 38.433594 31.34375 38.441406 31.257812 C 38.488281 31.226562 38.496094 31.128906 38.515625 31.074219 C 38.546875 30.980469 38.585938 30.890625 38.613281 30.792969 C 38.644531 30.6875 38.65625 30.578125 38.679688 30.46875 C 38.875 29.6875 38.984375 28.894531 39.023438 28.089844 C 39.066406 27.28125 39.011719 26.480469 38.914062 25.679688 C 38.882812 25.421875 38.84375 25.164062 38.804688 24.90625 C 38.78125 24.753906 38.734375 24.609375 38.703125 24.460938 C 38.679688 24.34375 38.660156 24.226562 38.628906 24.113281 C 38.269531 22.851562 37.796875 21.636719 37.140625 20.503906 C 37.0625 20.371094 36.96875 20.246094 36.890625 20.113281 C 36.613281 19.628906 36.265625 19.167969 35.910156 18.734375 C 35.820312 18.621094 35.710938 18.519531 35.621094 18.40625 C 35.285156 18 34.894531 17.605469 34.488281 17.269531 C 34.351562 17.15625 34.226562 17.027344 34.085938 16.914062 C 33.980469 16.828125 33.871094 16.75 33.765625 16.664062 C 33.09375 16.113281 32.335938 15.660156 31.5625 15.273438 C 30.964844 14.972656 30.351562 14.683594 29.707031 14.5 C 29.574219 14.460938 29.445312 14.40625 29.3125 14.367188 C 28.6875 14.1875 28.050781 14.019531 27.40625 13.9375 C 26.863281 13.871094 26.308594 13.824219 25.761719 13.796875 C 25.292969 13.773438 24.828125 13.824219 24.359375 13.847656 C 23.816406 13.875 23.285156 13.957031 22.746094 14.039062 C 22.484375 14.078125 22.230469 14.160156 21.972656 14.214844 C 21.613281 14.292969 21.253906 14.398438 20.910156 14.523438 C 19.996094 14.847656 19.105469 15.253906 18.28125 15.761719 C 18.050781 15.90625 17.8125 16.035156 17.597656 16.199219 C 17.503906 16.269531 17.394531 16.324219 17.300781 16.398438 C 17.03125 16.621094 16.742188 16.8125 16.484375 17.046875 C 16.355469 17.164062 16.230469 17.277344 16.097656 17.386719 C 16.015625 17.453125 15.949219 17.53125 15.867188 17.597656 C 15.800781 17.652344 15.742188 17.722656 15.679688 17.785156 C 15.605469 17.859375 15.523438 17.933594 15.457031 18.015625 C 15.417969 18.0625 15.367188 18.097656 15.328125 18.144531 C 15.1875 18.316406 15.03125 18.472656 14.890625 18.644531 C 14.726562 18.847656 14.570312 19.058594 14.40625 19.265625 C 14.328125 19.363281 14.265625 19.476562 14.1875 19.574219 C 13.96875 19.84375 13.792969 20.160156 13.621094 20.460938 C 13.433594 20.785156 13.25 21.113281 13.089844 21.457031 C 12.824219 22.039062 12.546875 22.632812 12.371094 23.25 C 12.265625 23.621094 12.144531 23.988281 12.066406 24.367188 C 11.960938 24.855469 11.878906 25.34375 11.8125 25.839844 C 11.769531 26.148438 11.765625 26.460938 11.75 26.769531 C 11.722656 27.304688 11.738281 27.832031 11.765625 28.363281 C 11.808594 29.289062 11.976562 30.207031 12.230469 31.097656 C 12.308594 31.378906 12.386719 31.660156 12.492188 31.929688 C 12.535156 32.050781 12.574219 32.164062 12.648438 32.273438 C 12.664062 32.363281 12.714844 32.460938 12.753906 32.546875 C 12.808594 32.675781 12.859375 32.808594 12.917969 32.941406 C 13.089844 33.332031 13.296875 33.714844 13.511719 34.085938 C 13.617188 34.269531 13.742188 34.445312 13.847656 34.628906 C 13.941406 34.792969 14.050781 34.972656 14.171875 35.117188 C 14.242188 35.203125 14.285156 35.308594 14.367188 35.375 C 14.398438 35.402344 14.449219 35.398438 14.484375 35.398438 C 14.566406 35.398438 14.683594 35.378906 14.757812 35.425781 C 14.835938 35.546875 14.765625 35.71875 14.800781 35.851562 C 14.871094 35.851562 14.964844 35.824219 15.035156 35.84375 C 15.082031 35.855469 15.101562 35.914062 15.117188 35.957031 C 15.164062 36.078125 15.136719 36.21875 15.148438 36.351562 C 15.21875 36.367188 15.242188 36.324219 15.246094 36.257812 C 15.253906 36.132812 15.257812 36.007812 15.289062 35.882812 C 15.335938 35.851562 15.402344 35.859375 15.453125 35.835938 C 15.453125 35.769531 15.425781 35.710938 15.417969 35.648438 C 15.53125 35.621094 15.71875 35.609375 15.8125 35.699219 C 15.835938 35.925781 15.839844 36.152344 15.859375 36.378906 C 15.867188 36.453125 15.910156 36.488281 15.960938 36.535156 C 15.976562 36.550781 15.996094 36.578125 16.019531 36.582031 C 16.070312 36.59375 16.09375 36.527344 16.132812 36.507812 C 16.203125 36.46875 16.296875 36.457031 16.371094 36.488281 C 16.378906 36.574219 16.378906 36.65625 16.378906 36.742188 C 16.378906 36.761719 16.378906 36.828125 16.394531 36.839844 C 16.414062 36.855469 16.453125 36.800781 16.460938 36.789062 C 16.492188 36.710938 16.511719 36.628906 16.539062 36.550781 C 16.566406 36.53125 16.597656 36.523438 16.625 36.511719 C 16.664062 36.402344 16.65625 36.257812 16.65625 36.136719 C 16.65625 35.90625 16.640625 35.671875 16.640625 35.441406 C 16.707031 35.414062 16.800781 35.425781 16.867188 35.425781 C 17.019531 35.425781 17.175781 35.417969 17.328125 35.433594 C 17.359375 35.558594 17.34375 35.707031 17.34375 35.835938 C 17.34375 35.886719 17.335938 35.941406 17.347656 35.988281 C 17.5 36 17.652344 35.984375 17.804688 35.984375 C 17.839844 36.117188 17.824219 36.277344 17.824219 36.410156 C 17.824219 36.738281 17.792969 37.082031 17.855469 37.402344 C 17.9375 37.386719 17.949219 37.273438 17.976562 37.207031 C 18.023438 37.1875 18.074219 37.1875 18.121094 37.167969 C 18.121094 36.875 18.089844 36.574219 18.109375 36.28125 C 18.136719 35.878906 18.179688 35.476562 18.199219 35.078125 C 18.214844 34.722656 18.21875 34.371094 18.238281 34.015625 C 18.261719 33.503906 18.199219 32.996094 18.171875 32.484375 C 18.164062 32.324219 18.179688 32.160156 18.179688 32 C 18.203125 31.769531 18.246094 31.535156 18.308594 31.3125 C 18.335938 31.222656 18.386719 31.140625 18.398438 31.050781 C 18.425781 30.839844 18.382812 30.621094 18.382812 30.410156 C 18.382812 30.3125 18.390625 30.207031 18.410156 30.113281 C 18.425781 30.054688 18.445312 29.984375 18.414062 29.929688 C 18.347656 29.816406 18.203125 29.835938 18.121094 29.753906 C 18.121094 29.625 18.160156 29.492188 18.175781 29.363281 C 18.203125 29.140625 18.238281 28.917969 18.265625 28.695312 C 18.351562 28.019531 18.421875 27.339844 18.507812 26.664062 C 18.527344 26.515625 18.527344 26.359375 18.546875 26.210938 C 18.585938 25.929688 18.621094 25.652344 18.640625 25.367188 C 18.65625 25.160156 18.6875 24.949219 18.710938 24.738281 C 18.726562 24.621094 18.753906 24.496094 18.75 24.375 C 18.742188 24.21875 18.601562 24.273438 18.496094 24.296875 C 18.253906 24.359375 18.007812 24.507812 17.75 24.488281 C 17.316406 24.457031 17.0625 23.992188 16.980469 23.613281 C 16.878906 23.144531 17.152344 22.75 17.375 22.371094 C 17.484375 22.179688 17.578125 21.976562 17.679688 21.78125 C 17.734375 21.664062 17.808594 21.558594 17.867188 21.441406 C 17.976562 21.21875 18.089844 21.03125 18.265625 20.855469 C 18.332031 20.789062 18.398438 20.71875 18.476562 20.675781 C 18.527344 20.648438 18.585938 20.636719 18.636719 20.625 C 18.765625 20.585938 18.90625 20.566406 19.039062 20.570312 C 19.132812 20.578125 19.226562 20.597656 19.324219 20.597656 C 19.375 20.546875 19.398438 20.472656 19.441406 20.417969 C 19.503906 20.34375 19.585938 20.285156 19.644531 20.210938 C 19.699219 20.144531 19.730469 20.042969 19.757812 19.960938 C 19.796875 19.839844 19.851562 19.722656 19.878906 19.597656 C 19.902344 19.484375 19.917969 19.367188 19.925781 19.253906 C 19.929688 19.125 19.929688 19.007812 19.996094 18.894531 C 20.0625 18.78125 20.191406 18.667969 20.3125 18.621094 C 20.363281 18.601562 20.425781 18.601562 20.472656 18.574219 C 20.515625 18.550781 20.554688 18.496094 20.585938 18.457031 C 20.652344 18.378906 20.734375 18.292969 20.777344 18.199219 C 20.832031 18.082031 20.828125 17.957031 20.855469 17.835938 C 20.90625 17.582031 20.984375 17.253906 21.191406 17.082031 C 21.441406 16.878906 21.777344 16.765625 22.097656 16.78125 C 22.554688 16.804688 23.03125 17.101562 23.222656 17.519531 C 23.316406 17.730469 23.34375 17.972656 23.328125 18.203125 C 23.324219 18.304688 23.304688 18.40625 23.304688 18.511719 C 23.347656 18.53125 23.402344 18.527344 23.449219 18.53125 C 23.5625 18.539062 23.683594 18.542969 23.796875 18.535156 C 23.851562 18.527344 23.917969 18.535156 23.96875 18.511719 C 23.976562 18.441406 23.96875 18.363281 23.996094 18.296875 C 24.085938 18.273438 24.230469 18.261719 24.3125 18.316406 C 24.3125 18.382812 24.269531 18.429688 24.261719 18.492188 C 24.308594 18.523438 24.378906 18.519531 24.4375 18.523438 C 24.636719 18.542969 24.867188 18.496094 25.035156 18.636719 C 25.074219 18.664062 25.121094 18.699219 25.136719 18.746094 C 25.160156 18.808594 25.136719 18.886719 25.128906 18.949219 C 25.109375 19.078125 25.082031 19.25 25.113281 19.378906 C 25.269531 19.417969 25.4375 19.398438 25.570312 19.507812 C 25.699219 19.617188 25.71875 19.808594 25.785156 19.957031 C 25.871094 20.144531 25.964844 20.324219 26.015625 20.527344 C 26.050781 20.664062 26.046875 20.816406 26.054688 20.960938 C 26.070312 21.1875 26.117188 21.417969 26.164062 21.640625 C 26.191406 21.761719 26.210938 21.886719 26.226562 22.011719 C 26.234375 22.070312 26.230469 22.171875 26.261719 22.222656 C 26.339844 22.269531 26.4375 22.257812 26.5 22.332031 C 26.527344 22.371094 26.535156 22.4375 26.546875 22.480469 C 26.574219 22.59375 26.613281 22.703125 26.640625 22.816406 C 26.6875 23.007812 26.6875 23.207031 26.699219 23.40625 C 26.710938 23.675781 26.710938 23.941406 26.675781 24.210938 C 26.652344 24.402344 26.585938 24.59375 26.566406 24.785156 C 26.546875 24.957031 26.574219 25.152344 26.519531 25.316406 C 26.476562 25.433594 26.382812 25.53125 26.328125 25.644531 C 26.203125 25.914062 26.097656 26.203125 26.011719 26.492188 C 25.960938 26.65625 25.894531 26.820312 25.835938 26.984375 C 25.726562 27.273438 25.628906 27.570312 25.519531 27.863281 C 25.300781 28.445312 25.109375 29.039062 24.890625 29.621094 C 24.777344 29.925781 24.667969 30.234375 24.550781 30.539062 C 24.492188 30.6875 24.402344 30.839844 24.378906 31 C 24.34375 31.210938 24.445312 31.421875 24.492188 31.628906 C 24.515625 31.746094 24.492188 31.882812 24.527344 32 M 20.308594 37.265625 C 20.308594 37.273438 20.308594 37.28125 20.308594 37.289062 C 20.308594 37.292969 20.308594 37.300781 20.308594 37.304688 C 20.308594 37.378906 20.332031 37.265625 20.308594 37.265625 M 21.707031 32.378906 C 21.652344 32.109375 21.546875 31.855469 21.4375 31.605469 C 21.410156 31.546875 21.386719 31.476562 21.371094 31.414062 C 21.359375 31.382812 21.351562 31.335938 21.324219 31.308594 C 21.308594 31.308594 21.292969 31.308594 21.273438 31.308594 C 21.210938 31.371094 21.199219 31.507812 21.191406 31.589844 C 21.164062 31.816406 21.140625 32.039062 21.074219 32.257812 C 21.074219 32.40625 21.015625 32.542969 20.964844 32.683594 C 20.890625 32.882812 20.816406 33.078125 20.785156 33.289062 C 20.757812 33.492188 20.746094 33.695312 20.71875 33.902344 C 20.636719 34.53125 20.5625 35.160156 20.46875 35.789062 C 20.429688 36.066406 20.378906 36.34375 20.351562 36.621094 C 20.34375 36.675781 20.347656 36.730469 20.34375 36.785156 C 20.34375 36.808594 20.335938 36.839844 20.34375 36.863281 C 20.351562 36.886719 20.425781 36.867188 20.441406 36.863281 C 20.414062 36.792969 20.386719 36.742188 20.378906 36.667969 C 20.429688 36.644531 20.472656 36.632812 20.527344 36.644531 C 20.582031 36.699219 20.5625 36.8125 20.59375 36.878906 C 20.640625 36.902344 20.703125 36.925781 20.757812 36.917969 C 20.8125 36.914062 20.84375 36.875 20.90625 36.882812 C 20.945312 37.050781 20.921875 37.222656 20.929688 37.394531 C 20.933594 37.449219 20.902344 37.585938 20.996094 37.546875 C 21.023438 37.324219 20.988281 37.089844 21.019531 36.871094 C 21.058594 36.84375 21.113281 36.835938 21.15625 36.824219 C 21.160156 36.753906 21.160156 36.679688 21.167969 36.609375 C 21.304688 36.546875 21.457031 36.53125 21.605469 36.519531 C 21.617188 36.472656 21.613281 36.429688 21.613281 36.378906 C 21.625 36.175781 21.59375 35.953125 21.644531 35.753906 C 21.898438 35.726562 22.160156 35.765625 22.417969 35.742188 C 22.449219 36.09375 22.417969 36.449219 22.4375 36.804688 C 22.445312 36.96875 22.425781 37.140625 22.460938 37.304688 C 22.527344 37.332031 22.636719 37.34375 22.699219 37.300781 C 22.722656 37.207031 22.707031 37.105469 22.730469 37.015625 C 22.792969 36.996094 22.863281 37.003906 22.929688 36.996094 C 22.941406 36.992188 22.980469 36.984375 22.980469 36.972656 C 22.992188 36.90625 22.949219 36.863281 22.925781 36.808594 C 22.898438 36.757812 22.886719 36.707031 22.871094 36.652344 C 22.808594 36.394531 22.785156 36.125 22.746094 35.863281 C 22.679688 35.398438 22.621094 34.929688 22.507812 34.46875 C 22.425781 34.144531 22.238281 33.863281 22.121094 33.554688 C 22.027344 33.316406 21.945312 33.074219 21.855469 32.832031 C 21.800781 32.683594 21.769531 32.523438 21.707031 32.378906 M 20.667969 20.421875 C 20.757812 20.421875 20.839844 20.425781 20.90625 20.355469 C 20.9375 20.324219 20.953125 20.25 20.914062 20.21875 C 20.886719 20.199219 20.847656 20.238281 20.828125 20.25 C 20.761719 20.292969 20.691406 20.339844 20.667969 20.421875 M 20.761719 37.414062 C 20.761719 37.429688 20.75 37.488281 20.757812 37.5 C 20.761719 37.5 20.777344 37.480469 20.777344 37.476562 C 20.785156 37.453125 20.777344 37.429688 20.761719 37.414062 M 25 20.355469 C 24.847656 20.316406 24.679688 20.332031 24.527344 20.332031 C 24.265625 20.332031 24.003906 20.332031 23.742188 20.332031 C 23.621094 20.332031 23.5 20.332031 23.382812 20.332031 C 23.332031 20.332031 23.269531 20.320312 23.222656 20.335938 C 23.144531 20.363281 23.121094 20.449219 23.050781 20.484375 C 22.976562 20.523438 22.882812 20.503906 22.816406 20.5625 C 22.671875 20.691406 22.820312 20.800781 22.886719 20.921875 C 22.921875 20.984375 22.945312 21.070312 22.992188 21.128906 C 23.128906 21.296875 23.398438 21.265625 23.59375 21.3125 C 23.917969 21.394531 24.265625 21.535156 24.53125 21.75 C 24.601562 21.808594 24.648438 21.886719 24.703125 21.953125 C 24.8125 22.085938 24.914062 22.238281 24.996094 22.390625 C 25.03125 22.460938 25.074219 22.527344 25.105469 22.597656 C 25.125 22.640625 25.148438 22.6875 25.191406 22.710938 C 25.242188 22.589844 25.246094 22.429688 25.265625 22.300781 C 25.269531 22.253906 25.289062 22.1875 25.273438 22.140625 C 25.226562 22.003906 25.082031 21.882812 24.992188 21.773438 C 24.769531 21.503906 24.53125 21.230469 24.355469 20.925781 C 24.28125 20.800781 24.109375 20.695312 24.109375 20.542969 C 24.234375 20.417969 24.472656 20.503906 24.574219 20.628906 C 24.621094 20.683594 24.660156 20.773438 24.734375 20.78125 C 24.792969 20.722656 24.839844 20.648438 24.878906 20.578125 C 24.921875 20.5 24.976562 20.441406 25 20.355469 M 24 26.605469 C 24 27.472656 24.050781 28.339844 24.050781 29.210938 C 24.050781 29.292969 24.058594 29.371094 24.0625 29.453125 C 24.070312 29.609375 24.066406 29.78125 24.167969 29.910156 C 24.210938 29.957031 24.25 30.027344 24.3125 30.042969 C 24.367188 29.957031 24.390625 29.84375 24.425781 29.746094 C 24.515625 29.511719 24.609375 29.277344 24.6875 29.039062 C 24.792969 28.722656 24.910156 28.402344 25.027344 28.089844 C 25.171875 27.699219 25.292969 27.300781 25.429688 26.90625 C 25.515625 26.664062 25.59375 26.421875 25.683594 26.179688 C 25.726562 26.070312 25.804688 25.925781 25.789062 25.804688 C 25.695312 25.777344 25.589844 25.785156 25.496094 25.75 C 25.371094 25.699219 25.269531 25.601562 25.148438 25.539062 C 25.019531 25.472656 24.863281 25.425781 24.75 25.335938 C 24.671875 25.269531 24.609375 25.175781 24.519531 25.125 C 24.441406 25.078125 24.347656 25.054688 24.273438 24.996094 C 24.234375 24.960938 24.195312 24.917969 24.160156 24.878906 C 24.128906 24.835938 24.09375 24.769531 24.035156 24.757812 C 24.011719 24.792969 24.015625 24.835938 24.015625 24.875 C 24.015625 24.953125 24.015625 25.027344 24.015625 25.105469 C 24.015625 25.390625 24.027344 25.683594 24 25.96875 C 23.964844 25.980469 23.972656 26.078125 23.96875 26.117188 C 23.964844 26.203125 23.972656 26.292969 23.96875 26.375 C 23.964844 26.449219 23.957031 26.539062 24 26.605469 M 25.339844 20.207031 C 25.371094 20.136719 25.328125 19.945312 25.21875 19.972656 C 25.183594 19.980469 25.179688 20.046875 25.1875 20.074219 C 25.207031 20.136719 25.277344 20.203125 25.339844 20.207031 "/>
</g>
<path style=" stroke:none;fill-rule:evenodd;fill:rgb(90.980392%,18.039216%,13.333333%);fill-opacity:1;" d="M 12.648438 32.273438 C 12.867188 32.273438 13.089844 32.28125 13.308594 32.308594 C 13.476562 32.332031 13.667969 32.371094 13.839844 32.335938 C 14.027344 32.300781 14.210938 32.230469 14.394531 32.183594 C 14.574219 32.140625 14.753906 32.097656 14.921875 32.035156 C 15.152344 31.945312 15.417969 31.84375 15.664062 31.832031 C 15.738281 31.828125 15.824219 31.824219 15.898438 31.839844 C 16.039062 31.871094 16.175781 31.96875 16.304688 32.035156 C 16.367188 32.066406 16.441406 32.078125 16.507812 32.101562 C 16.652344 32.15625 16.804688 32.207031 16.957031 32.230469 C 17.167969 32.261719 17.359375 32.1875 17.554688 32.128906 C 17.757812 32.070312 17.96875 32.019531 18.179688 32 C 18.179688 32.160156 18.164062 32.324219 18.171875 32.484375 C 18.199219 32.996094 18.261719 33.503906 18.238281 34.015625 C 18.21875 34.371094 18.214844 34.722656 18.199219 35.078125 C 18.179688 35.476562 18.136719 35.878906 18.109375 36.28125 C 18.089844 36.574219 18.121094 36.875 18.121094 37.167969 C 18.074219 37.1875 18.023438 37.1875 17.976562 37.207031 C 17.949219 37.273438 17.9375 37.386719 17.855469 37.402344 C 17.792969 37.082031 17.824219 36.738281 17.824219 36.410156 C 17.824219 36.277344 17.839844 36.117188 17.804688 35.984375 C 17.652344 35.984375 17.5 36 17.347656 35.988281 C 17.335938 35.941406 17.34375 35.886719 17.34375 35.835938 C 17.34375 35.707031 17.359375 35.558594 17.328125 35.433594 C 17.175781 35.417969 17.019531 35.425781 16.867188 35.425781 C 16.800781 35.425781 16.707031 35.414062 16.640625 35.441406 C 16.640625 35.671875 16.65625 35.90625 16.65625 36.136719 C 16.65625 36.257812 16.664062 36.402344 16.625 36.511719 C 16.597656 36.523438 16.566406 36.53125 16.539062 36.550781 C 16.511719 36.628906 16.492188 36.710938 16.460938 36.789062 C 16.453125 36.800781 16.414062 36.855469 16.394531 36.839844 C 16.378906 36.828125 16.378906 36.761719 16.378906 36.742188 C 16.378906 36.65625 16.378906 36.574219 16.371094 36.488281 C 16.296875 36.457031 16.203125 36.46875 16.132812 36.507812 C 16.09375 36.527344 16.070312 36.59375 16.019531 36.582031 C 15.996094 36.578125 15.976562 36.550781 15.960938 36.535156 C 15.910156 36.488281 15.867188 36.453125 15.859375 36.378906 C 15.839844 36.152344 15.835938 35.925781 15.8125 35.699219 C 15.71875 35.609375 15.53125 35.621094 15.417969 35.648438 C 15.425781 35.710938 15.453125 35.769531 15.453125 35.835938 C 15.402344 35.859375 15.335938 35.851562 15.289062 35.882812 C 15.257812 36.007812 15.253906 36.132812 15.246094 36.257812 C 15.242188 36.324219 15.21875 36.367188 15.148438 36.351562 C 15.136719 36.21875 15.164062 36.078125 15.117188 35.957031 C 15.101562 35.914062 15.082031 35.855469 15.035156 35.84375 C 14.964844 35.824219 14.871094 35.851562 14.800781 35.851562 C 14.765625 35.71875 14.835938 35.546875 14.757812 35.425781 C 14.683594 35.378906 14.566406 35.398438 14.484375 35.398438 C 14.449219 35.398438 14.398438 35.402344 14.367188 35.375 C 14.285156 35.308594 14.242188 35.203125 14.171875 35.117188 C 14.050781 34.972656 13.941406 34.792969 13.847656 34.628906 C 13.742188 34.445312 13.617188 34.269531 13.511719 34.085938 C 13.296875 33.714844 13.089844 33.332031 12.917969 32.941406 C 12.859375 32.808594 12.808594 32.675781 12.753906 32.546875 C 12.714844 32.460938 12.664062 32.363281 12.648438 32.273438 "/>
<path style=" stroke:none;fill-rule:evenodd;fill:rgb(22.745098%,16.078431%,26.666667%);fill-opacity:1;" d="M 20.308594 37.265625 C 20.332031 37.265625 20.308594 37.378906 20.308594 37.304688 C 20.308594 37.300781 20.308594 37.292969 20.308594 37.289062 C 20.308594 37.28125 20.308594 37.273438 20.308594 37.265625 "/>
<path style=" stroke:none;fill-rule:evenodd;fill:rgb(90.588235%,18.823529%,13.333333%);fill-opacity:1;" d="M 21.074219 32.257812 C 21.152344 32.292969 21.261719 32.28125 21.347656 32.292969 C 21.46875 32.308594 21.585938 32.355469 21.707031 32.378906 C 21.769531 32.523438 21.800781 32.683594 21.855469 32.832031 C 21.945312 33.074219 22.027344 33.316406 22.121094 33.554688 C 22.238281 33.863281 22.425781 34.144531 22.507812 34.46875 C 22.621094 34.929688 22.679688 35.398438 22.746094 35.863281 C 22.785156 36.125 22.808594 36.394531 22.871094 36.652344 C 22.886719 36.707031 22.898438 36.757812 22.925781 36.808594 C 22.949219 36.863281 22.992188 36.90625 22.980469 36.972656 C 22.980469 36.984375 22.941406 36.992188 22.929688 36.996094 C 22.863281 37.003906 22.792969 36.996094 22.730469 37.015625 C 22.707031 37.105469 22.722656 37.207031 22.699219 37.300781 C 22.636719 37.34375 22.527344 37.332031 22.460938 37.304688 C 22.425781 37.140625 22.445312 36.96875 22.4375 36.804688 C 22.417969 36.449219 22.449219 36.09375 22.417969 35.742188 C 22.160156 35.765625 21.898438 35.726562 21.644531 35.753906 C 21.59375 35.953125 21.625 36.175781 21.613281 36.378906 C 21.613281 36.429688 21.617188 36.472656 21.605469 36.519531 C 21.457031 36.53125 21.304688 36.546875 21.167969 36.609375 C 21.160156 36.679688 21.160156 36.753906 21.15625 36.824219 C 21.113281 36.835938 21.058594 36.84375 21.019531 36.871094 C 20.988281 37.089844 21.023438 37.324219 20.996094 37.546875 C 20.902344 37.585938 20.933594 37.449219 20.929688 37.394531 C 20.921875 37.222656 20.945312 37.050781 20.90625 36.882812 C 20.84375 36.875 20.8125 36.914062 20.757812 36.917969 C 20.703125 36.925781 20.640625 36.902344 20.59375 36.878906 C 20.5625 36.8125 20.582031 36.699219 20.527344 36.644531 C 20.472656 36.632812 20.429688 36.644531 20.378906 36.667969 C 20.386719 36.742188 20.414062 36.792969 20.441406 36.863281 C 20.425781 36.867188 20.351562 36.886719 20.34375 36.863281 C 20.335938 36.839844 20.34375 36.808594 20.34375 36.785156 C 20.347656 36.730469 20.34375 36.675781 20.351562 36.621094 C 20.378906 36.34375 20.429688 36.066406 20.46875 35.789062 C 20.5625 35.160156 20.636719 34.53125 20.71875 33.902344 C 20.746094 33.695312 20.757812 33.492188 20.785156 33.289062 C 20.816406 33.078125 20.890625 32.882812 20.964844 32.683594 C 21.015625 32.542969 21.074219 32.40625 21.074219 32.257812 "/>
<path style=" stroke:none;fill-rule:evenodd;fill:rgb(89.803922%,88.627451%,87.843137%);fill-opacity:1;" d="M 20.667969 20.421875 C 20.691406 20.339844 20.761719 20.292969 20.828125 20.25 C 20.847656 20.238281 20.886719 20.199219 20.914062 20.21875 C 20.953125 20.25 20.9375 20.324219 20.90625 20.355469 C 20.839844 20.425781 20.757812 20.421875 20.667969 20.421875 "/>
<path style=" stroke:none;fill-rule:evenodd;fill:rgb(21.960784%,27.45098%,27.45098%);fill-opacity:1;" d="M 20.761719 37.414062 C 20.777344 37.429688 20.785156 37.453125 20.777344 37.476562 C 20.777344 37.480469 20.761719 37.5 20.757812 37.5 C 20.75 37.488281 20.761719 37.429688 20.761719 37.414062 "/>
<g clip-path="url(#clip2)" clip-rule="nonzero">
<use xlink:href="#surface5" mask="url(#mask0)"/>
</g>
<path style=" stroke:none;fill-rule:evenodd;fill:rgb(21.568627%,22.352941%,11.764706%);fill-opacity:1;" d="M 24 25.96875 C 24.019531 26.019531 24.007812 26.078125 24.011719 26.132812 C 24.015625 26.25 24.015625 26.367188 24.007812 26.484375 C 24.007812 26.523438 24.015625 26.566406 24 26.605469 C 23.957031 26.539062 23.964844 26.449219 23.96875 26.375 C 23.972656 26.292969 23.964844 26.203125 23.96875 26.117188 C 23.972656 26.078125 23.964844 25.980469 24 25.96875 "/>
<path style=" stroke:none;fill-rule:evenodd;fill:rgb(90.588235%,18.431373%,13.72549%);fill-opacity:1;" d="M 24.527344 32 C 24.636719 31.964844 24.765625 31.972656 24.882812 31.964844 C 25 31.957031 25.132812 31.949219 25.25 31.96875 C 25.335938 31.980469 25.417969 32.011719 25.5 32.035156 C 25.726562 32.101562 25.945312 32.175781 26.167969 32.242188 C 26.144531 32.277344 26.097656 32.285156 26.058594 32.296875 C 26.007812 32.3125 25.960938 32.332031 25.914062 32.351562 C 25.902344 32.355469 25.832031 32.386719 25.839844 32.40625 C 25.855469 32.4375 25.949219 32.425781 25.972656 32.425781 C 26.105469 32.425781 26.234375 32.425781 26.367188 32.425781 C 26.914062 32.425781 27.460938 32.425781 28.007812 32.425781 C 28.9375 32.425781 29.867188 32.425781 30.796875 32.425781 C 31.085938 32.425781 31.371094 32.425781 31.65625 32.425781 C 31.796875 32.425781 31.960938 32.449219 32.097656 32.414062 C 32.058594 32.320312 31.945312 32.289062 31.855469 32.253906 C 31.621094 32.160156 31.367188 32.089844 31.125 32.019531 C 30.863281 31.945312 30.597656 31.855469 30.347656 31.761719 C 30.15625 31.6875 29.980469 31.625 29.773438 31.636719 C 29.5625 31.648438 29.386719 31.753906 29.191406 31.808594 C 28.925781 31.886719 28.644531 31.953125 28.371094 31.988281 C 28.21875 32.007812 28.074219 32.046875 27.917969 32.046875 C 27.917969 31.753906 27.898438 31.460938 27.914062 31.167969 C 27.933594 30.769531 28.011719 30.371094 28.121094 29.988281 C 28.1875 29.753906 28.265625 29.511719 28.375 29.292969 C 28.441406 29.15625 28.496094 29.015625 28.574219 28.882812 C 29.253906 27.707031 30.363281 26.75 31.679688 26.371094 C 31.832031 26.328125 31.980469 26.296875 32.132812 26.265625 C 32.207031 26.25 32.277344 26.222656 32.351562 26.214844 C 32.441406 26.203125 32.53125 26.203125 32.621094 26.191406 C 32.894531 26.15625 33.171875 26.136719 33.445312 26.15625 C 33.742188 26.175781 34.050781 26.210938 34.339844 26.285156 C 34.589844 26.347656 34.828125 26.425781 35.070312 26.507812 C 35.144531 26.535156 35.214844 26.574219 35.285156 26.609375 C 35.511719 26.722656 35.730469 26.832031 35.949219 26.957031 C 36.195312 27.105469 36.40625 27.304688 36.628906 27.484375 C 36.773438 27.605469 36.917969 27.75 37.035156 27.894531 C 37.140625 28.023438 37.253906 28.132812 37.34375 28.269531 C 37.425781 28.390625 37.519531 28.503906 37.59375 28.625 C 37.839844 29.027344 38.0625 29.445312 38.191406 29.902344 C 38.269531 30.175781 38.324219 30.445312 38.367188 30.726562 C 38.382812 30.832031 38.398438 30.9375 38.410156 31.046875 C 38.417969 31.113281 38.414062 31.191406 38.441406 31.257812 C 38.433594 31.34375 38.402344 31.472656 38.347656 31.542969 C 38.3125 31.585938 38.265625 31.609375 38.214844 31.632812 C 38.132812 31.679688 38.042969 31.726562 37.960938 31.769531 C 37.679688 31.921875 37.402344 32.078125 37.109375 32.191406 C 37.003906 32.230469 36.898438 32.265625 36.796875 32.320312 C 36.742188 32.351562 36.699219 32.363281 36.65625 32.414062 C 37.089844 32.464844 37.53125 32.386719 37.964844 32.433594 C 37.949219 32.542969 37.878906 32.652344 37.832031 32.75 C 37.726562 32.980469 37.613281 33.207031 37.503906 33.433594 C 37.367188 33.703125 37.210938 33.960938 37.058594 34.21875 C 36.941406 34.421875 36.824219 34.632812 36.675781 34.816406 C 36.617188 34.886719 36.574219 34.976562 36.515625 35.050781 C 36.375 35.226562 36.253906 35.421875 36.109375 35.597656 C 36.003906 35.726562 35.894531 35.855469 35.785156 35.984375 C 35.71875 36.070312 35.660156 36.171875 35.574219 36.242188 C 35.523438 36.28125 35.433594 36.285156 35.371094 36.308594 C 35.3125 36.332031 35.246094 36.4375 35.179688 36.417969 C 35.152344 36.410156 35.140625 36.378906 35.136719 36.355469 C 35.117188 36.289062 35.128906 36.21875 35.109375 36.152344 C 35.054688 36.152344 34.996094 36.160156 34.945312 36.183594 C 34.9375 36.261719 34.941406 36.351562 34.910156 36.421875 C 34.890625 36.421875 34.875 36.417969 34.859375 36.417969 C 34.824219 36.351562 34.839844 36.242188 34.824219 36.167969 C 34.652344 36.152344 34.464844 36.128906 34.289062 36.148438 C 34.277344 36.253906 34.285156 36.386719 34.144531 36.378906 C 34.117188 36.378906 34.089844 36.371094 34.074219 36.347656 C 34.019531 36.28125 34.039062 36.152344 34.027344 36.074219 C 33.929688 36.046875 33.796875 36.050781 33.695312 36.066406 C 33.671875 36.097656 33.675781 36.144531 33.671875 36.183594 C 33.664062 36.277344 33.671875 36.367188 33.652344 36.457031 C 33.492188 36.445312 33.335938 36.472656 33.179688 36.472656 C 33.148438 36.402344 33.160156 36.316406 33.15625 36.242188 C 33.148438 36.128906 33.152344 36.011719 33.152344 35.894531 C 33.152344 35.832031 33.160156 35.757812 33.136719 35.699219 C 32.996094 35.699219 32.851562 35.699219 32.710938 35.699219 C 32.628906 35.699219 32.542969 35.691406 32.460938 35.703125 C 32.449219 35.78125 32.457031 35.863281 32.457031 35.941406 C 32.457031 36.117188 32.464844 36.300781 32.445312 36.476562 C 32.363281 36.496094 32.25 36.507812 32.167969 36.488281 C 32.132812 36.339844 32.171875 36.183594 32.136719 36.035156 C 32.035156 36.023438 31.925781 36.03125 31.824219 36.035156 C 31.769531 36.039062 31.714844 36.035156 31.664062 36.054688 C 31.640625 36.179688 31.679688 36.324219 31.628906 36.441406 C 31.601562 36.453125 31.542969 36.472656 31.515625 36.460938 C 31.46875 36.441406 31.476562 36.3125 31.476562 36.273438 C 31.476562 36.152344 31.476562 36.027344 31.46875 35.902344 C 31.464844 35.839844 31.472656 35.757812 31.449219 35.695312 C 31.21875 35.695312 30.964844 35.660156 30.742188 35.714844 C 30.742188 35.886719 30.738281 36.058594 30.738281 36.230469 C 30.738281 36.339844 30.746094 36.464844 30.71875 36.574219 C 30.640625 36.554688 30.671875 36.449219 30.671875 36.378906 C 30.671875 36.1875 30.679688 35.996094 30.671875 35.804688 C 30.640625 35.222656 30.664062 34.628906 30.664062 34.046875 C 30.664062 33.882812 30.664062 33.722656 30.664062 33.5625 C 30.664062 33.46875 30.675781 33.363281 30.644531 33.277344 C 30.527344 33.261719 30.402344 33.273438 30.285156 33.273438 C 30.066406 33.273438 29.847656 33.273438 29.632812 33.296875 C 29.601562 33.570312 29.625 33.859375 29.625 34.136719 C 29.625 34.652344 29.625 35.167969 29.625 35.683594 C 29.625 35.898438 29.625 36.117188 29.625 36.335938 C 29.625 36.425781 29.640625 36.554688 29.605469 36.636719 C 29.582031 36.644531 29.554688 36.644531 29.53125 36.652344 C 29.503906 36.652344 29.472656 36.652344 29.445312 36.65625 C 29.429688 36.699219 29.425781 36.746094 29.421875 36.789062 C 29.421875 36.804688 29.429688 36.851562 29.421875 36.863281 C 29.421875 36.867188 29.363281 36.816406 29.359375 36.8125 C 29.320312 36.785156 29.265625 36.773438 29.234375 36.742188 C 29.226562 36.703125 29.234375 36.660156 29.230469 36.621094 C 29.226562 36.617188 29.222656 36.582031 29.214844 36.582031 C 29.1875 36.582031 29.175781 36.664062 29.171875 36.683594 C 29.160156 36.757812 29.148438 36.882812 29.097656 36.945312 C 29.050781 37.003906 28.960938 37.023438 28.917969 36.949219 C 28.894531 36.90625 28.878906 36.863281 28.851562 36.820312 C 28.808594 36.835938 28.765625 36.851562 28.726562 36.875 C 28.71875 36.878906 28.691406 36.894531 28.679688 36.886719 C 28.671875 36.878906 28.671875 36.832031 28.671875 36.820312 C 28.671875 36.75 28.671875 36.679688 28.671875 36.609375 C 28.671875 36.34375 28.695312 36.0625 28.628906 35.800781 C 28.535156 35.777344 28.421875 35.792969 28.324219 35.792969 C 28.175781 35.792969 28.007812 35.773438 27.859375 35.804688 C 27.859375 36.082031 27.859375 36.359375 27.859375 36.636719 C 27.859375 36.78125 27.871094 36.933594 27.855469 37.074219 C 27.839844 37.074219 27.820312 37.074219 27.804688 37.070312 C 27.773438 36.894531 27.824219 36.707031 27.78125 36.535156 C 27.625 36.515625 27.453125 36.515625 27.300781 36.546875 C 27.300781 36.71875 27.3125 36.902344 27.285156 37.078125 C 27.273438 37.167969 27.226562 37.246094 27.207031 37.332031 C 27.183594 37.34375 27.15625 37.34375 27.128906 37.339844 C 27.164062 37.253906 27.195312 37.1875 27.195312 37.09375 C 27.132812 37.066406 27.050781 37.078125 26.984375 37.078125 C 26.941406 37.078125 26.894531 37.078125 26.867188 37.042969 C 26.832031 37.003906 26.855469 36.941406 26.863281 36.894531 C 26.867188 36.847656 26.863281 36.800781 26.851562 36.757812 C 26.71875 36.722656 26.539062 36.71875 26.410156 36.773438 C 26.394531 36.925781 26.382812 37.101562 26.296875 37.234375 C 26.242188 37.242188 26.242188 37.132812 26.230469 37.09375 C 26.183594 37.042969 26.042969 37.027344 25.980469 37.039062 C 25.953125 37.066406 25.945312 37.113281 25.9375 37.148438 C 25.921875 37.226562 25.898438 37.300781 25.882812 37.378906 C 25.875 37.414062 25.878906 37.492188 25.84375 37.507812 C 25.808594 37.519531 25.777344 37.480469 25.761719 37.457031 C 25.730469 37.40625 25.695312 37.363281 25.667969 37.308594 C 25.65625 37.285156 25.640625 37.25 25.617188 37.238281 C 25.585938 37.226562 25.554688 37.265625 25.535156 37.285156 C 25.449219 37.371094 25.460938 37.480469 25.425781 37.585938 C 25.359375 37.585938 25.351562 37.515625 25.34375 37.457031 C 25.335938 37.367188 25.296875 37.214844 25.191406 37.203125 C 25.160156 37.328125 25.179688 37.574219 25.023438 37.621094 C 25.015625 37.519531 25.027344 37.410156 25.03125 37.304688 C 25.035156 37.242188 25.03125 37.179688 25.046875 37.117188 C 25.070312 37.03125 25.121094 36.960938 25.140625 36.875 C 25.179688 36.675781 25.179688 36.449219 25.140625 36.25 C 25.101562 36.078125 25.050781 35.910156 25.015625 35.738281 C 24.988281 35.605469 24.976562 35.46875 24.960938 35.335938 C 24.941406 35.203125 24.90625 35.082031 24.875 34.957031 C 24.816406 34.714844 24.71875 34.488281 24.652344 34.253906 C 24.621094 34.136719 24.5625 34.03125 24.546875 33.910156 C 24.53125 33.78125 24.570312 33.664062 24.578125 33.539062 C 24.589844 33.40625 24.585938 33.269531 24.582031 33.136719 C 24.566406 32.851562 24.511719 32.574219 24.511719 32.289062 C 24.511719 32.195312 24.503906 32.089844 24.527344 32 M 35.53125 32.40625 C 35.507812 32.34375 35.449219 32.308594 35.390625 32.277344 C 35.296875 32.226562 35.199219 32.164062 35.117188 32.097656 C 35.003906 32.003906 34.882812 31.917969 34.753906 31.84375 C 34.53125 31.710938 34.300781 31.578125 34.03125 31.597656 C 33.808594 31.613281 33.625 31.722656 33.445312 31.839844 C 33.265625 31.953125 33.117188 32.109375 32.933594 32.222656 C 32.851562 32.273438 32.773438 32.328125 32.683594 32.363281 C 32.675781 32.367188 32.617188 32.398438 32.632812 32.414062 C 32.644531 32.433594 32.722656 32.425781 32.742188 32.425781 C 32.847656 32.425781 32.953125 32.425781 33.058594 32.425781 C 33.496094 32.425781 33.933594 32.425781 34.371094 32.425781 C 34.644531 32.425781 34.925781 32.4375 35.199219 32.425781 C 35.308594 32.417969 35.421875 32.40625 35.53125 32.40625 "/>
<g clip-path="url(#clip4)" clip-rule="nonzero">
<use xlink:href="#surface8" mask="url(#mask1)"/>
</g>
<path style=" stroke:none;fill-rule:evenodd;fill:rgb(2.352941%,0%,0.392157%);fill-opacity:1;" d="M 26.167969 32.242188 C 26.320312 32.242188 26.457031 32.1875 26.605469 32.164062 C 26.835938 32.128906 27.070312 32.097656 27.300781 32.085938 C 27.4375 32.078125 27.570312 32.074219 27.707031 32.066406 C 27.773438 32.0625 27.855469 32.070312 27.917969 32.046875 C 28.074219 32.046875 28.21875 32.007812 28.371094 31.988281 C 28.644531 31.953125 28.925781 31.886719 29.191406 31.808594 C 29.386719 31.753906 29.5625 31.648438 29.773438 31.636719 C 29.980469 31.625 30.15625 31.6875 30.347656 31.761719 C 30.597656 31.855469 30.863281 31.945312 31.125 32.019531 C 31.367188 32.089844 31.621094 32.160156 31.855469 32.253906 C 31.945312 32.289062 32.058594 32.320312 32.097656 32.414062 C 31.960938 32.449219 31.796875 32.425781 31.65625 32.425781 C 31.371094 32.425781 31.085938 32.425781 30.796875 32.425781 C 29.867188 32.425781 28.9375 32.425781 28.007812 32.425781 C 27.460938 32.425781 26.914062 32.425781 26.367188 32.425781 C 26.234375 32.425781 26.105469 32.425781 25.972656 32.425781 C 25.949219 32.425781 25.855469 32.4375 25.839844 32.40625 C 25.832031 32.386719 25.902344 32.355469 25.914062 32.351562 C 25.960938 32.332031 26.007812 32.3125 26.058594 32.296875 C 26.097656 32.285156 26.144531 32.277344 26.167969 32.242188 "/>
<path style=" stroke:none;fill-rule:evenodd;fill:rgb(32.54902%,15.294118%,18.431373%);fill-opacity:1;" d="M 29.605469 36.636719 C 29.605469 36.671875 29.609375 36.710938 29.605469 36.742188 C 29.605469 36.75 29.601562 36.785156 29.59375 36.785156 C 29.550781 36.785156 29.535156 36.679688 29.53125 36.652344 C 29.554688 36.644531 29.582031 36.644531 29.605469 36.636719 "/>
<path style=" stroke:none;fill-rule:evenodd;fill:rgb(1.960784%,0%,0%);fill-opacity:1;" d="M 35.53125 32.40625 C 35.421875 32.40625 35.308594 32.417969 35.199219 32.425781 C 34.925781 32.4375 34.644531 32.425781 34.371094 32.425781 C 33.933594 32.425781 33.496094 32.425781 33.058594 32.425781 C 32.953125 32.425781 32.847656 32.425781 32.742188 32.425781 C 32.722656 32.425781 32.644531 32.433594 32.632812 32.414062 C 32.617188 32.398438 32.675781 32.367188 32.683594 32.363281 C 32.773438 32.328125 32.851562 32.273438 32.933594 32.222656 C 33.117188 32.109375 33.265625 31.953125 33.445312 31.839844 C 33.625 31.722656 33.808594 31.613281 34.03125 31.597656 C 34.300781 31.578125 34.53125 31.710938 34.753906 31.84375 C 34.882812 31.917969 35.003906 32.003906 35.117188 32.097656 C 35.199219 32.164062 35.296875 32.226562 35.390625 32.277344 C 35.449219 32.308594 35.507812 32.34375 35.53125 32.40625 "/>
</g>
</svg>
